<svg width="1441" height="750" viewBox="0 0 1441 750" fill="none" xmlns="http://www.w3.org/2000/svg">
<g clip-path="url(#clip0_674_178)">
<rect width="1441" height="750" fill="url(#paint0_linear_674_178)"/>
<g clip-path="url(#clip1_674_178)">
<path d="M1052.56 438.237L1053.12 440.043L1052.56 438.237Z" fill="black"/>
<path d="M1179.14 395.72L1178.44 393.914L1179.14 395.72Z" fill="black"/>
<g opacity="0.71">
<path d="M1170.52 357.511L1052.56 401L1051.59 398.221L1169.55 354.732C1224.85 331.529 1262.09 276.091 1262.09 216.762C1262.09 134.925 1194.84 68.3714 1112.31 68.3714C1029.77 68.3714 962.526 134.925 962.526 216.762C962.526 272.061 994.344 323.47 1043.81 348.758C1044.78 349.174 1045.61 349.73 1046.59 350.147C1045.75 350.842 1045.06 351.536 1044.5 352.37C1043.67 351.953 1042.7 351.536 1041.86 350.981C1018.1 338.754 998.095 320.691 983.645 298.321C967.944 274.006 959.608 245.801 959.608 216.762C959.608 133.397 1028.11 65.4536 1112.31 65.4536C1196.51 65.4536 1265 133.258 1265 216.762C1264.86 277.341 1226.93 333.891 1170.52 357.511Z" fill="white"/>
<path d="M1271.67 216.762C1271.67 279.981 1232.07 339.032 1173.02 363.763H1172.89L1054.92 407.252L1053.26 402.667L1053.95 404.474L1172.05 360.985C1229.85 336.809 1268.76 278.869 1268.76 216.762C1268.76 131.173 1198.59 61.5632 1112.17 61.5632C1025.88 61.5632 955.579 131.173 955.579 216.762C955.579 246.496 964.054 275.535 980.311 300.406C995.178 323.331 1015.88 341.949 1040.19 354.454C1041.03 354.871 1042 355.427 1042.83 355.844C1042.56 356.677 1042.42 357.65 1042.42 358.484C1042.42 358.622 1042.42 358.761 1042.42 358.9C1041.45 358.484 1040.47 357.928 1039.5 357.511C1014.35 344.728 993.093 325.693 977.81 301.934C961.276 276.507 952.661 247.052 952.661 216.623C952.661 129.645 1024.22 58.6454 1112.17 58.6454C1200.12 58.6454 1271.67 129.645 1271.67 216.762Z" fill="white"/>
<path d="M1177.75 392.108L1052.56 438.237L1051.45 435.597L1176.78 389.329L1178.44 393.914L1177.75 392.108Z" fill="white"/>
<path d="M1180.11 398.499L1054.92 444.628L1053.12 440.043L1053.81 441.849L1179.14 395.72L1180.11 398.499Z" fill="white"/>
<path d="M1066.46 462.274L1068.82 467.137C1076.74 483.393 1093.55 493.953 1111.75 493.953C1138.01 493.953 1159.27 472.833 1159.27 446.851V428.233L1066.46 462.274ZM1156.21 446.712C1156.21 471.027 1136.2 490.896 1111.61 490.896C1094.52 490.896 1078.82 481.031 1071.32 465.747L1070.35 463.802L1156.07 432.262V446.712H1156.21ZM1111.61 487.005C1133.98 487.005 1152.32 468.943 1152.32 446.712V437.82L1075.9 466.025C1082.99 478.808 1096.74 487.005 1111.61 487.005ZM1149.4 441.988V446.712C1149.4 467.276 1132.45 484.088 1111.61 484.088C1098.97 484.088 1087.16 477.696 1080.21 467.553L1149.4 441.988Z" fill="white"/>
<path d="M1053.53 344.728C1049.78 344.728 1046.31 346.257 1043.81 348.758C1043.11 349.452 1042.42 350.147 1041.86 351.12C1042.7 351.536 1043.67 351.953 1044.5 352.509C1045.06 351.675 1045.75 350.981 1046.59 350.286C1048.53 348.758 1050.89 347.785 1053.53 347.785C1059.65 347.785 1064.51 352.648 1064.51 358.623C1064.51 364.597 1059.51 369.46 1053.53 369.46C1047.56 369.46 1042.7 364.736 1042.56 359.039C1042.56 358.9 1042.56 358.761 1042.56 358.623C1042.56 357.65 1042.7 356.816 1042.97 355.983C1042.14 355.566 1041.17 355.149 1040.33 354.593C1040.06 355.566 1039.78 356.538 1039.78 357.65C1039.78 357.928 1039.78 358.345 1039.78 358.623C1039.78 366.264 1046.03 372.517 1053.67 372.517C1061.31 372.517 1067.57 366.264 1067.57 358.623C1067.57 350.981 1061.17 344.728 1053.53 344.728ZM1053.53 351.536C1049.64 351.536 1046.45 354.732 1046.45 358.623C1046.45 362.513 1049.64 365.709 1053.53 365.709C1057.42 365.709 1060.62 362.513 1060.62 358.623C1060.62 354.732 1057.42 351.536 1053.53 351.536ZM1053.53 362.652C1051.17 362.652 1049.36 360.846 1049.36 358.484C1049.36 356.122 1051.31 354.315 1053.53 354.315C1055.9 354.315 1057.7 356.122 1057.7 358.484C1057.7 360.846 1055.76 362.652 1053.53 362.652Z" fill="white"/>
<path d="M1088.13 245.801C1084.52 232.879 1079.93 216.901 1068.26 209.12C1064.93 206.897 1060.76 205.647 1056.59 205.647C1051.59 205.647 1046.86 207.453 1044.09 211.482C1040.19 217.04 1041.58 224.682 1044.64 229.823C1047.7 234.686 1052.56 238.854 1060.2 243.022C1068.82 247.607 1078.96 250.803 1089.8 252.609C1089.38 250.386 1088.82 248.024 1088.13 245.801ZM1061.73 240.382C1054.51 236.492 1049.92 232.74 1047.28 228.294C1044.22 223.292 1043.95 217.04 1046.59 213.288C1048.81 210.093 1052.7 208.703 1056.73 208.703C1060.2 208.703 1063.95 209.815 1066.73 211.621C1077.43 218.707 1081.88 234.13 1085.35 246.635C1085.63 247.468 1085.77 248.163 1086.05 248.997C1077.15 247.052 1068.82 244.273 1061.73 240.382ZM1128.84 263.725C1129.12 261.779 1129.54 259.556 1129.95 257.472C1118.42 259.001 1106.47 259.001 1095.08 257.472C1100.08 281.648 1100.36 307.353 1095.63 332.501L1098.55 333.057C1103 309.02 1103.14 284.288 1098.69 260.807C1107.86 261.641 1117.31 261.641 1126.48 260.807C1126.34 261.641 1126.2 262.335 1126.06 263.169V263.308C1122.03 287.067 1122.17 310.548 1126.34 333.057L1129.26 332.501C1124.95 310.131 1124.81 287.067 1128.84 263.725ZM1180.53 211.621C1177.75 207.592 1172.89 205.786 1168.02 205.786C1163.85 205.786 1159.69 207.036 1156.35 209.259C1143.43 217.874 1138.01 236.492 1134.81 252.748C1145.65 250.942 1155.8 247.746 1164.41 243.161C1172.05 238.993 1177.05 234.825 1179.97 229.962C1183.03 224.821 1184.42 217.179 1180.53 211.621ZM1177.47 228.294C1174.69 232.74 1170.11 236.631 1163.02 240.382C1155.8 244.273 1147.46 247.052 1138.57 248.997C1141.76 234.408 1147.04 218.846 1158.02 211.621C1160.94 209.676 1164.55 208.703 1168.02 208.703C1172.05 208.703 1175.94 210.093 1178.16 213.288C1180.8 217.179 1180.53 223.292 1177.47 228.294ZM1186.08 207.731C1178.58 196.893 1162.6 196.893 1152.6 203.563C1137.73 213.427 1131.76 233.435 1128.28 250.664C1117.86 251.915 1107.03 251.915 1096.61 250.664C1096.05 248.441 1095.49 246.218 1094.8 243.995C1090.91 229.962 1085.91 212.594 1072.15 203.563C1062.01 196.893 1046.17 196.893 1038.67 207.731C1033.8 214.817 1033.94 225.099 1038.94 233.435C1043.81 241.216 1051.59 246.079 1057.15 248.997C1066.32 253.86 1077.15 257.333 1088.41 259.417C1093.13 282.621 1093.27 307.214 1088.82 331.251L1091.74 331.807C1096.47 306.797 1096.05 281.092 1090.91 256.916C1079.1 254.971 1067.98 251.498 1058.54 246.496C1053.26 243.717 1045.89 239.132 1041.45 231.907C1036.86 224.543 1036.72 215.512 1041.03 209.398C1047.42 200.089 1061.73 200.228 1070.62 206.063C1083.55 214.539 1088.27 231.351 1092.02 244.828C1092.85 247.607 1093.55 250.525 1094.24 253.304C1106.19 254.971 1118.84 254.971 1130.79 253.304C1134.12 236.075 1139.82 215.651 1154.27 206.063C1163.02 200.228 1177.33 200.228 1183.86 209.398C1188.17 215.512 1187.89 224.543 1183.44 231.907C1179 239.132 1171.5 243.717 1166.35 246.496C1156.91 251.498 1145.79 254.971 1134.12 256.916C1133.7 259.417 1133.29 261.918 1132.87 264.28C1128.98 287.345 1129.12 309.993 1133.15 331.807L1136.07 331.251C1132.04 309.854 1132.04 287.484 1135.79 264.836V264.697C1136.07 263.03 1136.34 261.224 1136.76 259.417C1148.01 257.472 1158.71 253.999 1167.88 249.136C1173.44 246.218 1181.22 241.355 1186.08 233.574C1190.81 225.099 1190.95 214.678 1186.08 207.731Z" fill="white"/>
</g>
<path d="M1099.25 392.524C1080.35 418.646 1044.22 425.037 1018.52 406.835C992.816 388.634 987.397 352.648 1006.29 326.527C1025.19 300.405 1061.31 294.014 1087.02 312.215C1112.72 330.417 1118.14 366.403 1099.25 392.524Z" fill="url(#paint1_radial_674_178)"/>
<path d="M1016.57 124.643C985.035 156.739 952.522 176.052 943.769 167.715C935.016 159.24 953.495 126.449 984.896 94.2146C1016.44 61.9799 1048.95 42.8059 1057.7 51.1424C1066.46 59.6179 1047.98 92.5473 1016.57 124.643Z" fill="url(#paint2_radial_674_178)"/>
<path d="M1118.56 397.526C1069.23 416.145 1026.72 424.62 1023.52 416.284C1020.33 408.086 1057.84 386.272 1107.03 367.654C1156.35 349.035 1198.87 340.56 1202.06 348.757C1205.26 357.094 1167.74 378.908 1118.56 397.526Z" fill="url(#paint3_radial_674_178)"/>
<path d="M1118.56 434.902C1069.23 453.52 1026.72 461.996 1023.52 453.798C1020.33 445.6 1057.84 423.786 1107.03 405.168C1156.35 386.55 1198.87 378.074 1202.06 386.272C1205.26 394.47 1167.74 416.284 1118.56 434.902Z" fill="url(#paint4_radial_674_178)"/>
<path d="M1118.56 466.442C1069.23 485.06 1026.72 493.536 1023.52 485.338C1020.33 477.14 1057.84 455.326 1107.03 436.708C1156.35 418.09 1198.87 409.614 1202.06 417.812C1205.26 426.01 1167.74 447.824 1118.56 466.442Z" fill="url(#paint5_radial_674_178)"/>
<path d="M1207.2 71.289C1256.95 102.273 1281.54 152.293 1261.95 183.138C1242.5 213.983 1186.36 213.844 1136.62 182.86C1086.88 151.876 1062.43 101.856 1081.88 71.0112C1101.33 40.3048 1157.46 40.4438 1207.2 71.289Z" fill="url(#paint6_radial_674_178)"/>
<path d="M1069.23 169.938C1095.91 186.472 1104.8 220.097 1089.24 244.828C1073.54 269.56 1039.22 276.09 1012.55 259.556C985.868 242.883 976.976 209.259 992.677 184.527C1008.24 159.795 1042.56 153.265 1069.23 169.938Z" fill="url(#paint7_radial_674_178)"/>
<path d="M1210.96 169.938C1237.63 186.472 1246.52 220.097 1230.96 244.828C1215.26 269.56 1180.94 276.09 1154.27 259.556C1127.59 243.022 1118.7 209.398 1134.26 184.666C1149.96 159.796 1184.28 153.265 1210.96 169.938Z" fill="url(#paint8_radial_674_178)"/>
<path d="M1110.5 447.268C1229.57 447.268 1326 467.414 1326 492.285C1326 517.156 1229.57 537.303 1110.5 537.303C991.426 537.303 895 517.156 895 492.285C895 467.414 991.426 447.268 1110.5 447.268Z" fill="url(#paint9_radial_674_178)"/>
</g>
<g filter="url(#filter0_d_674_178)">
<path d="M1048.61 355.264C1047.38 357.921 1048.55 361.078 1051.25 362.192C1051.4 362.252 1051.54 362.311 1051.69 362.369C1054.36 363.461 1057.37 362.086 1058.4 359.388L1058.45 359.268C1059.46 356.601 1058.1 353.627 1055.46 352.543C1052.86 351.473 1049.84 352.591 1048.66 355.146L1048.61 355.264Z" fill="url(#paint10_radial_674_178)"/>
</g>
<g style="mix-blend-mode:plus-lighter" opacity="0.4">
<g opacity="0.2">
<path d="M975.077 121.951L972.451 122.461L972.959 125.088L975.585 124.578L975.077 121.951Z" fill="#5BF7FF"/>
<path d="M993.396 114.323L990.77 114.832L991.278 117.459L993.904 116.95L993.396 114.323Z" fill="#5BF7FF"/>
<path d="M1001.57 112.711L998.947 113.22L999.455 115.847L1002.08 115.338L1001.57 112.711Z" fill="#5BF7FF"/>
<path d="M1018.14 98.6891L1013.36 99.6165L1013.87 102.243L1018.65 101.316L1018.14 98.6891Z" fill="#00ACEC"/>
<path d="M1026.25 107.951L1023.63 108.46L1024.13 111.087L1026.76 110.578L1026.25 107.951Z" fill="#5BF7FF"/>
<path d="M1042.74 104.706L1040.12 105.216L1040.62 107.843L1043.25 107.333L1042.74 104.706Z" fill="#5BF7FF"/>
<path d="M998.026 101.179L995.4 101.689L995.909 104.316L998.535 103.806L998.026 101.179Z" fill="#5BF7FF"/>
</g>
<g opacity="0.2">
<path d="M1049.75 125.09L1047.71 125.339L1047.96 127.382L1050 127.133L1049.75 125.09Z" fill="#5BF7FF"/>
<path d="M1063.97 120.318L1061.92 120.566L1062.17 122.61L1064.22 122.361L1063.97 120.318Z" fill="#5BF7FF"/>
<path d="M1070.31 119.536L1068.27 119.785L1068.51 121.829L1070.56 121.58L1070.31 119.536Z" fill="#5BF7FF"/>
<path d="M1083.52 109.745L1079.85 110.193L1080.09 112.237L1083.77 111.789L1083.52 109.745Z" fill="#00ACEC"/>
<path d="M1089.26 117.242L1087.22 117.491L1087.47 119.534L1089.51 119.285L1089.26 117.242Z" fill="#5BF7FF"/>
<path d="M1101.88 115.693L1099.83 115.942L1100.08 117.986L1102.13 117.737L1101.88 115.693Z" fill="#5BF7FF"/>
<path d="M1068.19 110.628L1066.15 110.877L1066.4 112.92L1068.44 112.671L1068.19 110.628Z" fill="#5BF7FF"/>
</g>
<path d="M636.605 67.8768L1245.55 1159.2" stroke="url(#paint11_linear_674_178)" stroke-width="0.7484" stroke-miterlimit="10"/>
<path d="M745.813 67.911L1306.04 1047.07" stroke="url(#paint12_linear_674_178)" stroke-width="0.7484" stroke-miterlimit="10"/>
<path d="M836.711 67.9418L1355.24 955.791" stroke="url(#paint13_linear_674_178)" stroke-width="0.7484" stroke-miterlimit="10"/>
<path d="M913.617 67.943L1396.03 880.078" stroke="url(#paint14_linear_674_178)" stroke-width="0.7484" stroke-miterlimit="10"/>
<path d="M979.458 67.9612L1430.39 816.306" stroke="url(#paint15_linear_674_178)" stroke-width="0.7484" stroke-miterlimit="10"/>
<path d="M1036.54 67.9911L1459.79 761.776" stroke="url(#paint16_linear_674_178)" stroke-width="0.7484" stroke-miterlimit="10"/>
<path d="M1086.27 67.6119L1485.17 714.689" stroke="url(#paint17_linear_674_178)" stroke-width="0.7484" stroke-miterlimit="10"/>
<path d="M1130.33 67.7001L1507.33 673.572" stroke="url(#paint18_linear_674_178)" stroke-width="0.7484" stroke-miterlimit="10"/>
<path d="M1488.77 576.652L1093.33 1159.62" stroke="url(#paint19_linear_674_178)" stroke-width="0.7484" stroke-miterlimit="10"/>
<path d="M1451.25 516.81L1019.59 1023.24" stroke="url(#paint20_linear_674_178)" stroke-width="0.7484" stroke-miterlimit="10"/>
<path d="M1414.23 457.912L948.128 891.091" stroke="url(#paint21_linear_674_178)" stroke-width="0.7484" stroke-miterlimit="10"/>
<path d="M1377.83 399.782L878.764 762.823" stroke="url(#paint22_linear_674_178)" stroke-width="0.7484" stroke-miterlimit="10"/>
<path d="M1341.88 342.511L811.52 638.373" stroke="url(#paint23_linear_674_178)" stroke-width="0.7484" stroke-miterlimit="10"/>
<path d="M1306.47 286.053L746.217 517.614" stroke="url(#paint24_linear_674_178)" stroke-width="0.7484" stroke-miterlimit="10"/>
<path d="M1271.53 230.388L682.788 400.31" stroke="url(#paint25_linear_674_178)" stroke-width="0.7484" stroke-miterlimit="10"/>
<path d="M1237.15 175.471L621.185 286.374" stroke="url(#paint26_linear_674_178)" stroke-width="0.7484" stroke-miterlimit="10"/>
<path d="M1203.15 121.392L561.341 175.57" stroke="url(#paint27_linear_674_178)" stroke-width="0.7484" stroke-miterlimit="10"/>
<path d="M503.122 67.8568L1169.67 67.975L1526.88 637.393L1169.44 1300.4L503.122 67.8568Z" stroke="url(#paint28_linear_674_178)" stroke-width="0.7484" stroke-miterlimit="10"/>
<path opacity="0.4" d="M1106.51 278.78L1062.91 206.848L1116.07 197.976L1155.99 263.735L1106.51 278.78Z" fill="url(#paint29_linear_674_178)"/>
<path opacity="0.4" d="M1087.89 301.093L1044.28 229.161L1097.44 220.289L1137.36 286.048L1087.89 301.093Z" fill="url(#paint30_linear_674_178)"/>
<path opacity="0.15" d="M1288.77 434.805L1331.94 505.596L1290.78 535.504L1322.07 587.882L1414.54 614.334L1425.19 579.993L1327.85 413.665L1288.77 434.805Z" fill="url(#paint31_linear_674_178)"/>
<path opacity="0.06" d="M1318.65 360.451L1229.92 408.075L1297.7 518.972L1382.11 462.606L1318.65 360.451Z" fill="url(#paint32_linear_674_178)"/>
<path opacity="0.1" d="M1235.21 215.748L1197.54 227.699L1235.87 289.803L1272.02 274.867L1235.21 215.748Z" fill="url(#paint33_linear_674_178)"/>
<path d="M1094.65 370.288C1210.88 321.995 1305.63 284.139 1306.31 285.644C1306.92 287.128 1213.18 327.524 1096.98 375.751C980.75 424.044 886 461.9 885.383 460.416C884.701 458.911 978.357 418.561 1094.65 370.288Z" fill="url(#paint34_radial_674_178)"/>
<path d="M1281.96 576.447C1374.82 491.451 1451.02 423.561 1452.15 424.774C1453.28 425.987 1378.9 495.878 1286 580.788C1193.15 665.785 1116.94 733.675 1115.81 732.461C1114.72 731.334 1189.11 661.443 1281.96 576.447Z" fill="url(#paint35_radial_674_178)"/>
<path d="M1034.02 295.591C1155 260.913 1253.45 234.048 1253.89 235.622C1254.34 237.197 1156.68 266.607 1035.7 301.285C914.719 335.963 816.269 362.829 815.824 361.254C815.358 359.745 913.018 330.334 1034.02 295.591Z" fill="url(#paint36_radial_674_178)"/>
<path d="M965.973 221.181C1089.81 198.813 1190.47 181.971 1190.74 183.636C1191.03 185.236 1090.87 204.672 967.028 227.04C843.189 249.408 742.533 266.251 742.26 264.586C741.966 262.986 842.134 243.549 965.973 221.181Z" fill="url(#paint37_radial_674_178)"/>
<path d="M1064.41 316.152C1128.9 424.231 1180.08 512.518 1178.66 513.373C1177.25 514.228 1123.78 427.313 1059.29 319.233C994.79 211.153 943.615 122.866 945.029 122.011C946.443 121.157 999.91 208.072 1064.41 316.152Z" fill="url(#paint38_radial_674_178)"/>
<path d="M1031.14 394.701C1094.31 503.59 1144.35 592.53 1142.89 593.299C1141.47 594.154 1089.16 506.52 1025.97 397.696C962.872 288.827 912.834 199.887 914.248 199.032C915.641 198.243 968.038 285.832 1031.14 394.701Z" fill="url(#paint39_radial_674_178)"/>
<path d="M959.228 434.395C1021.97 543.511 1071.75 632.587 1070.27 633.421C1068.85 634.276 1016.82 546.441 954.063 437.391C891.325 328.276 841.609 239.22 843.023 238.365C844.482 237.597 896.47 325.346 959.228 434.395Z" fill="url(#paint40_radial_674_178)"/>
<path d="M1196.76 424.446C1261.26 532.525 1312.8 620.566 1311.9 621.149C1310.93 621.712 1257.9 534.571 1193.4 426.492C1128.84 318.391 1077.3 230.351 1078.2 229.767C1079.17 229.204 1132.2 316.345 1196.76 424.446Z" fill="url(#paint41_radial_674_178)"/>
<path d="M1195.34 420.699C1305.36 359.56 1395.13 311.11 1395.99 312.524C1396.75 313.984 1308.28 364.707 1198.25 425.912C1088.3 487.071 998.457 535.501 997.689 534.041C996.835 532.627 1085.39 481.859 1195.34 420.699Z" fill="url(#paint42_radial_674_178)"/>
<path d="M1227.05 506.469C1328.45 431.882 1411.47 372.572 1412.43 373.876C1413.39 375.179 1331.98 436.712 1230.58 511.299C1129.17 585.885 1046.15 645.195 1045.19 643.891C1044.19 642.502 1125.6 580.969 1227.05 506.469Z" fill="url(#paint43_radial_674_178)"/>
<path opacity="0.8" d="M1319.6 558.81C1309.19 555.579 1302.91 545.729 1305.67 536.816C1308.43 527.903 1319.12 523.315 1329.6 526.566C1340.02 529.796 1346.3 539.646 1343.53 548.559C1340.77 557.472 1330.08 562.06 1319.6 558.81Z" fill="url(#paint44_radial_674_178)"/>
<path opacity="0.8" d="M924.819 251.306C911.98 247.324 904.329 235.181 907.723 224.236C911.118 213.292 924.298 207.609 937.137 211.591C949.976 215.573 957.627 227.716 954.233 238.661C950.818 249.671 937.658 255.288 924.819 251.306Z" fill="url(#paint45_radial_674_178)"/>
<path d="M1085.59 371.717C1084.63 376.663 1087.7 381.351 1092.38 382.229C1097.06 383.106 1101.6 379.842 1102.55 374.895C1103.51 369.949 1100.44 365.261 1095.76 364.383C1091.01 363.485 1086.48 366.75 1085.59 371.717Z" fill="url(#paint46_radial_674_178)"/>
<path d="M1133.74 453.535C1132.78 458.482 1135.85 463.17 1140.54 464.047C1145.22 464.925 1149.75 461.661 1150.71 456.714C1151.67 451.767 1148.6 447.079 1143.92 446.202C1139.17 445.304 1134.64 448.568 1133.74 453.535Z" fill="url(#paint47_radial_674_178)"/>
<path d="M1182.49 534.604C1181.53 539.55 1184.6 544.238 1189.28 545.116C1193.96 545.993 1198.5 542.729 1199.45 537.782C1200.41 532.836 1197.34 528.148 1192.66 527.27C1187.98 526.393 1183.43 529.722 1182.49 534.604Z" fill="url(#paint48_radial_674_178)"/>
<path d="M1039.41 293.025C1038.45 297.972 1041.52 302.659 1046.2 303.537C1050.88 304.415 1055.42 301.15 1056.38 296.204C1057.33 291.257 1054.27 286.569 1049.58 285.691C1044.9 284.814 1040.37 288.078 1039.41 293.025Z" fill="url(#paint49_radial_674_178)"/>
<path d="M994.587 215.975C993.627 220.922 996.697 225.61 1001.38 226.487C1006.06 227.365 1010.59 224.101 1011.55 219.154C1012.51 214.207 1009.44 209.519 1004.76 208.642C1000.08 207.764 995.461 211.074 994.587 215.975Z" fill="url(#paint50_radial_674_178)"/>
<path d="M948.762 140.77C947.802 145.717 950.872 150.405 955.555 151.282C960.237 152.16 964.768 148.895 965.728 143.949C966.688 139.002 963.618 134.314 958.935 133.437C954.187 132.539 949.636 135.869 948.762 140.77Z" fill="url(#paint51_radial_674_178)"/>
<path d="M1191 330.988C1190.35 334.235 1192.39 337.382 1195.46 337.903C1198.51 338.49 1201.54 336.342 1202.13 333.075C1202.77 329.827 1200.73 326.68 1197.66 326.159C1194.61 325.573 1191.64 327.741 1191 330.988Z" fill="url(#paint52_radial_674_178)"/>
<path d="M1150.43 262.659C1149.79 265.907 1151.83 269.054 1154.9 269.575C1157.95 270.161 1160.98 268.014 1161.56 264.746C1162.21 261.499 1160.17 258.352 1157.1 257.831C1154.03 257.31 1151 259.457 1150.43 262.659Z" fill="url(#paint53_radial_674_178)"/>
<path d="M1109.79 196.459C1109.14 199.707 1111.18 202.854 1114.25 203.375C1117.3 203.961 1120.33 201.814 1120.92 198.546C1121.56 195.299 1119.52 192.152 1116.45 191.631C1113.4 191.044 1110.43 193.212 1109.79 196.459Z" fill="url(#paint54_radial_674_178)"/>
<path d="M1069.07 130.239C1068.43 133.486 1070.47 136.634 1073.54 137.155C1076.58 137.741 1079.62 135.594 1080.2 132.326C1080.85 129.079 1078.81 125.932 1075.74 125.41C1072.69 124.824 1069.72 126.992 1069.07 130.239Z" fill="url(#paint55_radial_674_178)"/>
<path d="M1233.55 397.994C1232.9 401.241 1234.94 404.388 1238.01 404.909C1241.06 405.496 1244.09 403.348 1244.68 400.081C1245.33 396.833 1243.29 393.686 1240.22 393.165C1237.17 392.579 1234.2 394.747 1233.55 397.994Z" fill="url(#paint56_radial_674_178)"/>
<path d="M1276.33 469.596C1275.68 472.843 1277.72 475.99 1280.79 476.511C1283.86 477.033 1286.87 474.95 1287.45 471.683C1288.1 468.435 1286.06 465.288 1282.99 464.767C1279.94 464.181 1276.91 466.328 1276.33 469.596Z" fill="url(#paint57_radial_674_178)"/>
<path opacity="0.6" d="M1268.76 298.57C1268.12 301.817 1270.16 304.964 1273.23 305.485C1276.28 306.072 1279.31 303.924 1279.89 300.656C1280.54 297.409 1278.5 294.262 1275.43 293.741C1272.36 293.22 1269.35 295.302 1268.76 298.57Z" fill="url(#paint58_radial_674_178)"/>
<path opacity="0.6" d="M1232.27 240.268C1231.63 243.515 1233.67 246.662 1236.73 247.184C1239.78 247.77 1242.82 245.622 1243.4 242.355C1244.05 239.108 1242.01 235.96 1238.94 235.439C1235.89 234.853 1232.92 237.021 1232.27 240.268Z" fill="url(#paint59_radial_674_178)"/>
<path opacity="0.6" d="M1306.73 359.053C1306.15 362.104 1307.98 364.973 1310.9 365.519C1313.76 366.045 1316.53 364.033 1317.12 360.982C1317.71 357.931 1315.87 355.062 1312.95 354.516C1310.16 354.011 1307.32 356.003 1306.73 359.053Z" fill="url(#paint60_radial_674_178)"/>
<path opacity="0.6" d="M1196.21 180.807C1195.63 183.858 1197.47 186.727 1200.38 187.273C1203.24 187.799 1206.02 185.787 1206.6 182.736C1207.19 179.685 1205.35 176.816 1202.43 176.27C1199.58 175.745 1196.8 177.757 1196.21 180.807Z" fill="url(#paint61_radial_674_178)"/>
<path opacity="0.6" d="M1160.22 122.517C1159.64 125.568 1161.47 128.437 1164.39 128.983C1167.25 129.508 1170.02 127.497 1170.61 124.446C1171.2 121.395 1169.36 118.526 1166.44 117.98C1163.57 117.52 1160.79 119.532 1160.22 122.517Z" fill="url(#paint62_radial_674_178)"/>
</g>
</g>
<defs>
<filter id="filter0_d_674_178" x="1047.32" y="352.139" width="11.4655" height="12.4064" filterUnits="userSpaceOnUse" color-interpolation-filters="sRGB">
<feFlood flood-opacity="0" result="BackgroundImageFix"/>
<feColorMatrix in="SourceAlpha" type="matrix" values="0 0 0 0 0 0 0 0 0 0 0 0 0 0 0 0 0 0 127 0" result="hardAlpha"/>
<feMorphology radius="2" operator="erode" in="SourceAlpha" result="effect1_dropShadow_674_178"/>
<feOffset dx="-1" dy="2"/>
<feGaussianBlur stdDeviation="0.9"/>
<feComposite in2="hardAlpha" operator="out"/>
<feColorMatrix type="matrix" values="0 0 0 0 1 0 0 0 0 1 0 0 0 0 1 0 0 0 1 0"/>
<feBlend mode="normal" in2="BackgroundImageFix" result="effect1_dropShadow_674_178"/>
<feBlend mode="normal" in="SourceGraphic" in2="effect1_dropShadow_674_178" result="shape"/>
</filter>
<linearGradient id="paint0_linear_674_178" x1="2015.9" y1="-456.568" x2="-1476.93" y2="1489.19" gradientUnits="userSpaceOnUse">
<stop stop-color="#3F64B0"/>
<stop offset="0.259545" stop-color="#0F3260"/>
<stop offset="0.359075" stop-color="#143768"/>
<stop offset="0.559343" stop-color="#002347"/>
<stop offset="1" stop-color="#6B91F9"/>
</linearGradient>
<radialGradient id="paint1_radial_674_178" cx="0" cy="0" r="1" gradientUnits="userSpaceOnUse" gradientTransform="translate(1052.79 359.596) rotate(35.4234) scale(57.0381 58.409)">
<stop stop-color="#F9F9F9"/>
<stop offset="0.0487689" stop-color="#EDF1FA"/>
<stop offset="0.0982115" stop-color="#E6EDFA"/>
<stop offset="0.1217" stop-color="#DFE6FA" stop-opacity="0.9668"/>
<stop offset="0.2262" stop-color="#C5C9FC" stop-opacity="0.8188"/>
<stop offset="0.3388" stop-color="#B0B4FD" stop-opacity="0.6593"/>
<stop offset="0.4619" stop-color="#A1A4FE" stop-opacity="0.4851"/>
<stop offset="0.6033" stop-color="#999BFF" stop-opacity="0.2848"/>
<stop offset="0.8045" stop-color="#9698FF" stop-opacity="0"/>
</radialGradient>
<radialGradient id="paint2_radial_674_178" cx="0" cy="0" r="1" gradientUnits="userSpaceOnUse" gradientTransform="translate(1000.59 109.496) rotate(43.9461) scale(21.9722 81.4682)">
<stop stop-color="#F9F9F9"/>
<stop offset="0.0487689" stop-color="#EDF1FA"/>
<stop offset="0.0982115" stop-color="#E6EDFA"/>
<stop offset="0.1217" stop-color="#DFE6FA" stop-opacity="0.9668"/>
<stop offset="0.2262" stop-color="#C5C9FC" stop-opacity="0.8188"/>
<stop offset="0.3388" stop-color="#B0B4FD" stop-opacity="0.6593"/>
<stop offset="0.4619" stop-color="#A1A4FE" stop-opacity="0.4851"/>
<stop offset="0.6033" stop-color="#999BFF" stop-opacity="0.2848"/>
<stop offset="0.8045" stop-color="#9698FF" stop-opacity="0"/>
</radialGradient>
<radialGradient id="paint3_radial_674_178" cx="0" cy="0" r="1" gradientUnits="userSpaceOnUse" gradientTransform="translate(1112.87 382.658) rotate(69.0846) scale(15.933 95.4101)">
<stop stop-color="#F9F9F9"/>
<stop offset="0.0487689" stop-color="#EDF1FA"/>
<stop offset="0.0982115" stop-color="#E6EDFA"/>
<stop offset="0.1217" stop-color="#DFE6FA" stop-opacity="0.9668"/>
<stop offset="0.2262" stop-color="#C5C9FC" stop-opacity="0.8188"/>
<stop offset="0.3388" stop-color="#B0B4FD" stop-opacity="0.6593"/>
<stop offset="0.4619" stop-color="#A1A4FE" stop-opacity="0.4851"/>
<stop offset="0.6033" stop-color="#999BFF" stop-opacity="0.2848"/>
<stop offset="0.8045" stop-color="#9698FF" stop-opacity="0"/>
</radialGradient>
<radialGradient id="paint4_radial_674_178" cx="0" cy="0" r="1" gradientUnits="userSpaceOnUse" gradientTransform="translate(1112.87 420.048) rotate(69.0846) scale(15.933 95.4101)">
<stop stop-color="#F9F9F9"/>
<stop offset="0.0487689" stop-color="#EDF1FA"/>
<stop offset="0.0982115" stop-color="#E6EDFA"/>
<stop offset="0.1217" stop-color="#DFE6FA" stop-opacity="0.9668"/>
<stop offset="0.2262" stop-color="#C5C9FC" stop-opacity="0.8188"/>
<stop offset="0.3388" stop-color="#B0B4FD" stop-opacity="0.6593"/>
<stop offset="0.4619" stop-color="#A1A4FE" stop-opacity="0.4851"/>
<stop offset="0.6033" stop-color="#999BFF" stop-opacity="0.2848"/>
<stop offset="0.8045" stop-color="#9698FF" stop-opacity="0"/>
</radialGradient>
<radialGradient id="paint5_radial_674_178" cx="0" cy="0" r="1" gradientUnits="userSpaceOnUse" gradientTransform="translate(1112.87 451.581) rotate(69.0846) scale(15.933 95.4101)">
<stop stop-color="#F9F9F9"/>
<stop offset="0.0487689" stop-color="#EDF1FA"/>
<stop offset="0.0982115" stop-color="#E6EDFA"/>
<stop offset="0.1217" stop-color="#DFE6FA" stop-opacity="0.9668"/>
<stop offset="0.2262" stop-color="#C5C9FC" stop-opacity="0.8188"/>
<stop offset="0.3388" stop-color="#B0B4FD" stop-opacity="0.6593"/>
<stop offset="0.4619" stop-color="#A1A4FE" stop-opacity="0.4851"/>
<stop offset="0.6033" stop-color="#999BFF" stop-opacity="0.2848"/>
<stop offset="0.8045" stop-color="#9698FF" stop-opacity="0"/>
</radialGradient>
<radialGradient id="paint6_radial_674_178" cx="0" cy="0" r="1" gradientUnits="userSpaceOnUse" gradientTransform="translate(1171.75 127.308) rotate(-57.6247) scale(66.035 106.028)">
<stop stop-color="#F9F9F9"/>
<stop offset="0.015188" stop-color="#EDF1FA"/>
<stop offset="0.0305858" stop-color="#E6EDFA"/>
<stop offset="0.2959" stop-color="#CDD1D9" stop-opacity="0.7263"/>
<stop offset="0.5681" stop-color="#B9BBBF" stop-opacity="0.4456"/>
<stop offset="0.8114" stop-color="#ADAEAF" stop-opacity="0.1945"/>
<stop offset="1" stop-color="#A9A9A9" stop-opacity="0"/>
</radialGradient>
<radialGradient id="paint7_radial_674_178" cx="0" cy="0" r="1" gradientUnits="userSpaceOnUse" gradientTransform="translate(1041.08 213.966) rotate(-57.6339) scale(53.0115 56.8982)">
<stop stop-color="#F9F9F9"/>
<stop offset="0.015188" stop-color="#EDF1FA"/>
<stop offset="0.0305858" stop-color="#E6EDFA"/>
<stop offset="0.2959" stop-color="#CDD1D9" stop-opacity="0.7263"/>
<stop offset="0.5681" stop-color="#B9BBBF" stop-opacity="0.4456"/>
<stop offset="0.8114" stop-color="#ADAEAF" stop-opacity="0.1945"/>
<stop offset="1" stop-color="#A9A9A9" stop-opacity="0"/>
</radialGradient>
<radialGradient id="paint8_radial_674_178" cx="0" cy="0" r="1" gradientUnits="userSpaceOnUse" gradientTransform="translate(1182.71 213.966) rotate(-57.6339) scale(53.0113 56.898)">
<stop stop-color="#F9F9F9"/>
<stop offset="0.015188" stop-color="#EDF1FA"/>
<stop offset="0.0305858" stop-color="#E6EDFA"/>
<stop offset="0.2959" stop-color="#CDD1D9" stop-opacity="0.7263"/>
<stop offset="0.5681" stop-color="#B9BBBF" stop-opacity="0.4456"/>
<stop offset="0.8114" stop-color="#ADAEAF" stop-opacity="0.1945"/>
<stop offset="1" stop-color="#A9A9A9" stop-opacity="0"/>
</radialGradient>
<radialGradient id="paint9_radial_674_178" cx="0" cy="0" r="1" gradientUnits="userSpaceOnUse" gradientTransform="translate(1110.49 491.488) rotate(-89.9031) scale(45.0318 215.435)">
<stop stop-color="#F9F9F9"/>
<stop offset="0.015188" stop-color="#EDF1FA"/>
<stop offset="0.0305858" stop-color="#E6EDFA"/>
<stop offset="0.2959" stop-color="#CDD1D9" stop-opacity="0.7263"/>
<stop offset="0.5681" stop-color="#B9BBBF" stop-opacity="0.4456"/>
<stop offset="0.8114" stop-color="#ADAEAF" stop-opacity="0.1945"/>
<stop offset="1" stop-color="#A9A9A9" stop-opacity="0"/>
</radialGradient>
<radialGradient id="paint10_radial_674_178" cx="0" cy="0" r="1" gradientUnits="userSpaceOnUse" gradientTransform="translate(1053.66 357.848) rotate(106.293) scale(5.44712 5.47519)">
<stop stop-color="#A6A7D4"/>
<stop offset="1" stop-color="white"/>
</radialGradient>
<linearGradient id="paint11_linear_674_178" x1="508.774" y1="479.47" x2="1373.38" y2="747.631" gradientUnits="userSpaceOnUse">
<stop stop-color="#5083C2"/>
<stop offset="1" stop-color="#5082C2" stop-opacity="0"/>
</linearGradient>
<linearGradient id="paint12_linear_674_178" x1="631.678" y1="435.206" x2="1420.12" y2="679.742" gradientUnits="userSpaceOnUse">
<stop stop-color="#5083C2"/>
<stop offset="1" stop-color="#5082C2" stop-opacity="0"/>
</linearGradient>
<linearGradient id="paint13_linear_674_178" x1="733.682" y1="399.494" x2="1458.23" y2="624.213" gradientUnits="userSpaceOnUse">
<stop stop-color="#5083C2"/>
<stop offset="1" stop-color="#5082C2" stop-opacity="0"/>
</linearGradient>
<linearGradient id="paint14_linear_674_178" x1="819.707" y1="370.081" x2="1489.91" y2="577.945" gradientUnits="userSpaceOnUse">
<stop stop-color="#5083C2"/>
<stop offset="1" stop-color="#5082C2" stop-opacity="0"/>
</linearGradient>
<linearGradient id="paint15_linear_674_178" x1="893.239" y1="345.443" x2="1516.65" y2="538.796" gradientUnits="userSpaceOnUse">
<stop stop-color="#5083C2"/>
<stop offset="1" stop-color="#5082C2" stop-opacity="0"/>
</linearGradient>
<linearGradient id="paint16_linear_674_178" x1="956.816" y1="324.507" x2="1539.54" y2="505.239" gradientUnits="userSpaceOnUse">
<stop stop-color="#5083C2"/>
<stop offset="1" stop-color="#5082C2" stop-opacity="0"/>
</linearGradient>
<linearGradient id="paint17_linear_674_178" x1="1012.08" y1="306.281" x2="1559.38" y2="476.026" gradientUnits="userSpaceOnUse">
<stop stop-color="#5083C2"/>
<stop offset="1" stop-color="#5082C2" stop-opacity="0"/>
</linearGradient>
<linearGradient id="paint18_linear_674_178" x1="1061.03" y1="290.666" x2="1576.68" y2="450.597" gradientUnits="userSpaceOnUse">
<stop stop-color="#5083C2"/>
<stop offset="1" stop-color="#5082C2" stop-opacity="0"/>
</linearGradient>
<linearGradient id="paint19_linear_674_178" x1="1192.92" y1="837.722" x2="1389.19" y2="898.596" gradientUnits="userSpaceOnUse">
<stop stop-color="#5083C2"/>
<stop offset="1" stop-color="#5082C2" stop-opacity="0"/>
</linearGradient>
<linearGradient id="paint20_linear_674_178" x1="1109.95" y1="731.14" x2="1360.9" y2="808.971" gradientUnits="userSpaceOnUse">
<stop stop-color="#5083C2"/>
<stop offset="1" stop-color="#5082C2" stop-opacity="0"/>
</linearGradient>
<linearGradient id="paint21_linear_674_178" x1="1029.64" y1="627.467" x2="1332.75" y2="721.478" gradientUnits="userSpaceOnUse">
<stop stop-color="#5083C2"/>
<stop offset="1" stop-color="#5082C2" stop-opacity="0"/>
</linearGradient>
<linearGradient id="paint22_linear_674_178" x1="951.852" y1="526.578" x2="1304.76" y2="636.034" gradientUnits="userSpaceOnUse">
<stop stop-color="#5083C2"/>
<stop offset="1" stop-color="#5082C2" stop-opacity="0"/>
</linearGradient>
<linearGradient id="paint23_linear_674_178" x1="876.482" y1="428.356" x2="1276.94" y2="552.558" gradientUnits="userSpaceOnUse">
<stop stop-color="#5083C2"/>
<stop offset="1" stop-color="#5082C2" stop-opacity="0"/>
</linearGradient>
<linearGradient id="paint24_linear_674_178" x1="803.417" y1="332.691" x2="1249.29" y2="470.978" gradientUnits="userSpaceOnUse">
<stop stop-color="#5083C2"/>
<stop offset="1" stop-color="#5082C2" stop-opacity="0"/>
</linearGradient>
<linearGradient id="paint25_linear_674_178" x1="732.556" y1="239.479" x2="1221.81" y2="391.223" gradientUnits="userSpaceOnUse">
<stop stop-color="#5083C2"/>
<stop offset="1" stop-color="#5082C2" stop-opacity="0"/>
</linearGradient>
<linearGradient id="paint26_linear_674_178" x1="663.8" y1="148.621" x2="1194.52" y2="313.226" gradientUnits="userSpaceOnUse">
<stop stop-color="#5083C2"/>
<stop offset="1" stop-color="#5082C2" stop-opacity="0"/>
</linearGradient>
<linearGradient id="paint27_linear_674_178" x1="597.06" y1="60.0248" x2="1167.42" y2="236.924" gradientUnits="userSpaceOnUse">
<stop stop-color="#5083C2"/>
<stop offset="1" stop-color="#5082C2" stop-opacity="0"/>
</linearGradient>
<linearGradient id="paint28_linear_674_178" x1="386.987" y1="441.608" x2="1482.49" y2="781.38" gradientUnits="userSpaceOnUse">
<stop stop-color="#5083C2"/>
<stop offset="1" stop-color="#5082C2" stop-opacity="0"/>
</linearGradient>
<linearGradient id="paint29_linear_674_178" x1="1058.24" y1="221.906" x2="1159.24" y2="253.232" gradientUnits="userSpaceOnUse">
<stop stop-color="#5083C2"/>
<stop offset="1" stop-color="#5082C2" stop-opacity="0"/>
</linearGradient>
<linearGradient id="paint30_linear_674_178" x1="1039.63" y1="244.243" x2="1140.64" y2="275.569" gradientUnits="userSpaceOnUse">
<stop stop-color="#5083C2"/>
<stop offset="1" stop-color="#5082C2" stop-opacity="0"/>
</linearGradient>
<linearGradient id="paint31_linear_674_178" x1="1273.28" y1="484.755" x2="1438.84" y2="536.105" gradientUnits="userSpaceOnUse">
<stop stop-color="#5083C2"/>
<stop offset="1" stop-color="#5082C2" stop-opacity="0"/>
</linearGradient>
<linearGradient id="paint32_linear_674_178" x1="1227.86" y1="414.791" x2="1382.1" y2="462.627" gradientUnits="userSpaceOnUse">
<stop stop-color="#5083C2"/>
<stop offset="1" stop-color="#5082C2" stop-opacity="0"/>
</linearGradient>
<linearGradient id="paint33_linear_674_178" x1="1193.77" y1="239.825" x2="1275.04" y2="265.032" gradientUnits="userSpaceOnUse">
<stop stop-color="#5083C2"/>
<stop offset="1" stop-color="#5082C2" stop-opacity="0"/>
</linearGradient>
<radialGradient id="paint34_radial_674_178" cx="0" cy="0" r="1" gradientUnits="userSpaceOnUse" gradientTransform="translate(1095.77 373.062) rotate(-110.982) scale(2.97923 227.75)">
<stop stop-color="#FAFAFA"/>
<stop offset="0.0469493" stop-color="#EFF2FA"/>
<stop offset="0.0982115" stop-color="#E8EDFA"/>
<stop offset="0.1217" stop-color="#E1E6FA" stop-opacity="0.9668"/>
<stop offset="0.2262" stop-color="#C6C9FC" stop-opacity="0.8188"/>
<stop offset="0.3388" stop-color="#B1B4FD" stop-opacity="0.6593"/>
<stop offset="0.4619" stop-color="#A2A4FE" stop-opacity="0.4851"/>
<stop offset="0.6033" stop-color="#999BFF" stop-opacity="0.2848"/>
<stop offset="0.8045" stop-color="#9698FF" stop-opacity="0"/>
</radialGradient>
<radialGradient id="paint35_radial_674_178" cx="0" cy="0" r="1" gradientUnits="userSpaceOnUse" gradientTransform="translate(1283.99 578.676) rotate(-130.882) scale(2.97885 227.78)">
<stop stop-color="#FAFAFA"/>
<stop offset="0.0469493" stop-color="#EFF2FA"/>
<stop offset="0.0982115" stop-color="#E8EDFA"/>
<stop offset="0.1217" stop-color="#E1E6FA" stop-opacity="0.9668"/>
<stop offset="0.2262" stop-color="#C6C9FC" stop-opacity="0.8188"/>
<stop offset="0.3388" stop-color="#B1B4FD" stop-opacity="0.6593"/>
<stop offset="0.4619" stop-color="#A2A4FE" stop-opacity="0.4851"/>
<stop offset="0.6033" stop-color="#999BFF" stop-opacity="0.2848"/>
<stop offset="0.8045" stop-color="#9698FF" stop-opacity="0"/>
</radialGradient>
<radialGradient id="paint36_radial_674_178" cx="0" cy="0" r="1" gradientUnits="userSpaceOnUse" gradientTransform="translate(1034.85 298.488) rotate(-104.434) scale(2.97993 227.698)">
<stop stop-color="#FAFAFA"/>
<stop offset="0.0469493" stop-color="#EFF2FA"/>
<stop offset="0.0982115" stop-color="#E8EDFA"/>
<stop offset="0.1217" stop-color="#E1E6FA" stop-opacity="0.9668"/>
<stop offset="0.2262" stop-color="#C6C9FC" stop-opacity="0.8188"/>
<stop offset="0.3388" stop-color="#B1B4FD" stop-opacity="0.6593"/>
<stop offset="0.4619" stop-color="#A2A4FE" stop-opacity="0.4851"/>
<stop offset="0.6033" stop-color="#999BFF" stop-opacity="0.2848"/>
<stop offset="0.8045" stop-color="#9698FF" stop-opacity="0"/>
</radialGradient>
<radialGradient id="paint37_radial_674_178" cx="0" cy="0" r="1" gradientUnits="userSpaceOnUse" gradientTransform="translate(966.498 224.117) rotate(-98.685) scale(2.9802 227.677)">
<stop stop-color="#FAFAFA"/>
<stop offset="0.0469493" stop-color="#EFF2FA"/>
<stop offset="0.0982115" stop-color="#E8EDFA"/>
<stop offset="0.1217" stop-color="#E1E6FA" stop-opacity="0.9668"/>
<stop offset="0.2262" stop-color="#C6C9FC" stop-opacity="0.8188"/>
<stop offset="0.3388" stop-color="#B1B4FD" stop-opacity="0.6593"/>
<stop offset="0.4619" stop-color="#A2A4FE" stop-opacity="0.4851"/>
<stop offset="0.6033" stop-color="#999BFF" stop-opacity="0.2848"/>
<stop offset="0.8045" stop-color="#9698FF" stop-opacity="0"/>
</radialGradient>
<radialGradient id="paint38_radial_674_178" cx="0" cy="0" r="1" gradientUnits="userSpaceOnUse" gradientTransform="translate(1061.87 317.688) rotate(-29.324) scale(2.97945 227.734)">
<stop stop-color="#FAFAFA"/>
<stop offset="0.0469493" stop-color="#EFF2FA"/>
<stop offset="0.0982115" stop-color="#E8EDFA"/>
<stop offset="0.1217" stop-color="#E1E6FA" stop-opacity="0.9668"/>
<stop offset="0.2262" stop-color="#C6C9FC" stop-opacity="0.8188"/>
<stop offset="0.3388" stop-color="#B1B4FD" stop-opacity="0.6593"/>
<stop offset="0.4619" stop-color="#A2A4FE" stop-opacity="0.4851"/>
<stop offset="0.6033" stop-color="#999BFF" stop-opacity="0.2848"/>
<stop offset="0.8045" stop-color="#9698FF" stop-opacity="0"/>
</radialGradient>
<radialGradient id="paint39_radial_674_178" cx="0" cy="0" r="1" gradientUnits="userSpaceOnUse" gradientTransform="translate(1028.6 396.198) rotate(-28.5952) scale(2.97905 227.765)">
<stop stop-color="#FAFAFA"/>
<stop offset="0.0469493" stop-color="#EFF2FA"/>
<stop offset="0.0982115" stop-color="#E8EDFA"/>
<stop offset="0.1217" stop-color="#E1E6FA" stop-opacity="0.9668"/>
<stop offset="0.2262" stop-color="#C6C9FC" stop-opacity="0.8188"/>
<stop offset="0.3388" stop-color="#B1B4FD" stop-opacity="0.6593"/>
<stop offset="0.4619" stop-color="#A2A4FE" stop-opacity="0.4851"/>
<stop offset="0.6033" stop-color="#999BFF" stop-opacity="0.2848"/>
<stop offset="0.8045" stop-color="#9698FF" stop-opacity="0"/>
</radialGradient>
<radialGradient id="paint40_radial_674_178" cx="0" cy="0" r="1" gradientUnits="userSpaceOnUse" gradientTransform="translate(956.678 435.924) rotate(-28.3986) scale(2.97971 227.715)">
<stop stop-color="#FAFAFA"/>
<stop offset="0.0469493" stop-color="#EFF2FA"/>
<stop offset="0.0982115" stop-color="#E8EDFA"/>
<stop offset="0.1217" stop-color="#E1E6FA" stop-opacity="0.9668"/>
<stop offset="0.2262" stop-color="#C6C9FC" stop-opacity="0.8188"/>
<stop offset="0.3388" stop-color="#B1B4FD" stop-opacity="0.6593"/>
<stop offset="0.4619" stop-color="#A2A4FE" stop-opacity="0.4851"/>
<stop offset="0.6033" stop-color="#999BFF" stop-opacity="0.2848"/>
<stop offset="0.8045" stop-color="#9698FF" stop-opacity="0"/>
</radialGradient>
<radialGradient id="paint41_radial_674_178" cx="0" cy="0" r="1" gradientUnits="userSpaceOnUse" gradientTransform="translate(1195.04 425.451) rotate(-28.5782) scale(1.99321 227.655)">
<stop stop-color="#FAFAFA"/>
<stop offset="0.0469493" stop-color="#EFF2FA"/>
<stop offset="0.0982115" stop-color="#E8EDFA"/>
<stop offset="0.1217" stop-color="#E1E6FA" stop-opacity="0.9668"/>
<stop offset="0.2262" stop-color="#C6C9FC" stop-opacity="0.8188"/>
<stop offset="0.3388" stop-color="#B1B4FD" stop-opacity="0.6593"/>
<stop offset="0.4619" stop-color="#A2A4FE" stop-opacity="0.4851"/>
<stop offset="0.6033" stop-color="#999BFF" stop-opacity="0.2848"/>
<stop offset="0.8045" stop-color="#9698FF" stop-opacity="0"/>
</radialGradient>
<radialGradient id="paint42_radial_674_178" cx="0" cy="0" r="1" gradientUnits="userSpaceOnUse" gradientTransform="translate(1196.82 423.276) rotate(-117.531) scale(2.97963 227.722)">
<stop stop-color="#FAFAFA"/>
<stop offset="0.0469493" stop-color="#EFF2FA"/>
<stop offset="0.0982115" stop-color="#E8EDFA"/>
<stop offset="0.1217" stop-color="#E1E6FA" stop-opacity="0.9668"/>
<stop offset="0.2262" stop-color="#C6C9FC" stop-opacity="0.8188"/>
<stop offset="0.3388" stop-color="#B1B4FD" stop-opacity="0.6593"/>
<stop offset="0.4619" stop-color="#A2A4FE" stop-opacity="0.4851"/>
<stop offset="0.6033" stop-color="#999BFF" stop-opacity="0.2848"/>
<stop offset="0.8045" stop-color="#9698FF" stop-opacity="0"/>
</radialGradient>
<radialGradient id="paint43_radial_674_178" cx="0" cy="0" r="1" gradientUnits="userSpaceOnUse" gradientTransform="translate(1228.81 508.836) rotate(-124.752) scale(2.9796 227.723)">
<stop stop-color="#FAFAFA"/>
<stop offset="0.0469493" stop-color="#EFF2FA"/>
<stop offset="0.0982115" stop-color="#E8EDFA"/>
<stop offset="0.1217" stop-color="#E1E6FA" stop-opacity="0.9668"/>
<stop offset="0.2262" stop-color="#C6C9FC" stop-opacity="0.8188"/>
<stop offset="0.3388" stop-color="#B1B4FD" stop-opacity="0.6593"/>
<stop offset="0.4619" stop-color="#A2A4FE" stop-opacity="0.4851"/>
<stop offset="0.6033" stop-color="#999BFF" stop-opacity="0.2848"/>
<stop offset="0.8045" stop-color="#9698FF" stop-opacity="0"/>
</radialGradient>
<radialGradient id="paint44_radial_674_178" cx="0" cy="0" r="1" gradientUnits="userSpaceOnUse" gradientTransform="translate(1324.61 542.672) rotate(107.255) scale(16.9052 19.7933)">
<stop stop-color="#FAFAFA"/>
<stop offset="0.0093946" stop-color="#F2E1F7"/>
<stop offset="0.0318941" stop-color="#E1AAF1"/>
<stop offset="0.0528121" stop-color="#D47EEC"/>
<stop offset="0.0714933" stop-color="#CA5FE9"/>
<stop offset="0.0872582" stop-color="#C44CE7"/>
<stop offset="0.0982115" stop-color="#C245E6"/>
<stop offset="0.1614" stop-color="#B85BEC" stop-opacity="0.9105"/>
<stop offset="0.2599" stop-color="#AC77F3" stop-opacity="0.7711"/>
<stop offset="0.3659" stop-color="#A28DF8" stop-opacity="0.621"/>
<stop offset="0.4818" stop-color="#9B9DFC" stop-opacity="0.4568"/>
<stop offset="0.615" stop-color="#97A6FE" stop-opacity="0.2682"/>
<stop offset="0.8045" stop-color="#96A9FF" stop-opacity="0"/>
</radialGradient>
<radialGradient id="paint45_radial_674_178" cx="0" cy="0" r="1" gradientUnits="userSpaceOnUse" gradientTransform="translate(930.994 231.492) rotate(107.255) scale(20.7858 24.3369)">
<stop stop-color="#FAFAFA"/>
<stop offset="0.0093946" stop-color="#F2E1F7"/>
<stop offset="0.0318941" stop-color="#E1AAF1"/>
<stop offset="0.0528121" stop-color="#D47EEC"/>
<stop offset="0.0714933" stop-color="#CA5FE9"/>
<stop offset="0.0872582" stop-color="#C44CE7"/>
<stop offset="0.0982115" stop-color="#C245E6"/>
<stop offset="0.1614" stop-color="#B85BEC" stop-opacity="0.9105"/>
<stop offset="0.2599" stop-color="#AC77F3" stop-opacity="0.7711"/>
<stop offset="0.3659" stop-color="#A28DF8" stop-opacity="0.621"/>
<stop offset="0.4818" stop-color="#9B9DFC" stop-opacity="0.4568"/>
<stop offset="0.615" stop-color="#97A6FE" stop-opacity="0.2682"/>
<stop offset="0.8045" stop-color="#96A9FF" stop-opacity="0"/>
</radialGradient>
<radialGradient id="paint46_radial_674_178" cx="0" cy="0" r="1" gradientUnits="userSpaceOnUse" gradientTransform="translate(1094.03 373.282) rotate(-169.267) scale(8.60259 9.0871)">
<stop stop-color="white"/>
<stop offset="1"/>
</radialGradient>
<radialGradient id="paint47_radial_674_178" cx="0" cy="0" r="1" gradientUnits="userSpaceOnUse" gradientTransform="translate(1142.17 455.109) rotate(-169.266) scale(8.60259 9.08709)">
<stop stop-color="white"/>
<stop offset="1"/>
</radialGradient>
<radialGradient id="paint48_radial_674_178" cx="0" cy="0" r="1" gradientUnits="userSpaceOnUse" gradientTransform="translate(1190.93 536.229) rotate(-169.266) scale(8.60259 9.08709)">
<stop stop-color="white"/>
<stop offset="1"/>
</radialGradient>
<radialGradient id="paint49_radial_674_178" cx="0" cy="0" r="1" gradientUnits="userSpaceOnUse" gradientTransform="translate(1047.87 294.62) rotate(-169.267) scale(8.60259 9.0871)">
<stop stop-color="white"/>
<stop offset="1"/>
</radialGradient>
<radialGradient id="paint50_radial_674_178" cx="0" cy="0" r="1" gradientUnits="userSpaceOnUse" gradientTransform="translate(1003.02 217.595) rotate(-169.267) scale(8.60259 9.0871)">
<stop stop-color="white"/>
<stop offset="1"/>
</radialGradient>
<radialGradient id="paint51_radial_674_178" cx="0" cy="0" r="1" gradientUnits="userSpaceOnUse" gradientTransform="translate(957.182 142.391) rotate(-169.266) scale(8.60259 9.08709)">
<stop stop-color="white"/>
<stop offset="1"/>
</radialGradient>
<radialGradient id="paint52_radial_674_178" cx="0" cy="0" r="1" gradientUnits="userSpaceOnUse" gradientTransform="translate(1196.59 332.068) rotate(-169.266) scale(5.67033 5.98967)">
<stop stop-color="white"/>
<stop offset="1"/>
</radialGradient>
<radialGradient id="paint53_radial_674_178" cx="0" cy="0" r="1" gradientUnits="userSpaceOnUse" gradientTransform="translate(1155.99 263.741) rotate(-169.267) scale(5.67031 5.98967)">
<stop stop-color="white"/>
<stop offset="1"/>
</radialGradient>
<radialGradient id="paint54_radial_674_178" cx="0" cy="0" r="1" gradientUnits="userSpaceOnUse" gradientTransform="translate(1115.38 197.515) rotate(-169.267) scale(5.67036 5.98973)">
<stop stop-color="white"/>
<stop offset="1"/>
</radialGradient>
<radialGradient id="paint55_radial_674_178" cx="0" cy="0" r="1" gradientUnits="userSpaceOnUse" gradientTransform="translate(1074.66 131.308) rotate(-169.267) scale(5.67031 5.98968)">
<stop stop-color="white"/>
<stop offset="1"/>
</radialGradient>
<radialGradient id="paint56_radial_674_178" cx="0" cy="0" r="1" gradientUnits="userSpaceOnUse" gradientTransform="translate(1239.13 399.076) rotate(-169.266) scale(5.67033 5.98967)">
<stop stop-color="white"/>
<stop offset="1"/>
</radialGradient>
<radialGradient id="paint57_radial_674_178" cx="0" cy="0" r="1" gradientUnits="userSpaceOnUse" gradientTransform="translate(1281.89 470.653) rotate(-169.266) scale(5.67038 5.98973)">
<stop stop-color="white"/>
<stop offset="1"/>
</radialGradient>
<radialGradient id="paint58_radial_674_178" cx="0" cy="0" r="1" gradientUnits="userSpaceOnUse" gradientTransform="translate(1274.32 299.643) rotate(-169.266) scale(5.67033 5.98967)">
<stop stop-color="white"/>
<stop offset="1"/>
</radialGradient>
<radialGradient id="paint59_radial_674_178" cx="0" cy="0" r="1" gradientUnits="userSpaceOnUse" gradientTransform="translate(1237.86 241.311) rotate(-169.266) scale(5.67033 5.98967)">
<stop stop-color="white"/>
<stop offset="1"/>
</radialGradient>
<radialGradient id="paint60_radial_674_178" cx="0" cy="0" r="1" gradientUnits="userSpaceOnUse" gradientTransform="translate(1311.96 360.029) rotate(-169.266) scale(5.28219 5.57967)">
<stop stop-color="white"/>
<stop offset="1"/>
</radialGradient>
<radialGradient id="paint61_radial_674_178" cx="0" cy="0" r="1" gradientUnits="userSpaceOnUse" gradientTransform="translate(1201.43 181.795) rotate(-169.266) scale(5.28217 5.57966)">
<stop stop-color="white"/>
<stop offset="1"/>
</radialGradient>
<radialGradient id="paint62_radial_674_178" cx="0" cy="0" r="1" gradientUnits="userSpaceOnUse" gradientTransform="translate(1165.41 123.523) rotate(-169.267) scale(5.28217 5.57966)">
<stop stop-color="white"/>
<stop offset="1"/>
</radialGradient>
<clipPath id="clip0_674_178">
<rect width="1441" height="750" fill="white"/>
</clipPath>
<clipPath id="clip1_674_178">
<rect width="431" height="489.217" fill="white" transform="translate(895 48.0857)"/>
</clipPath>
</defs>
</svg>
