<svg width="431" height="490" viewBox="0 0 431 490" fill="none" xmlns="http://www.w3.org/2000/svg">
<g clip-path="url(#clip0_76_2627)">
<path d="M157.561 390.542L158.117 392.349L157.561 390.542Z" fill="black"/>
<path d="M284.138 348.026L283.443 346.22L284.138 348.026Z" fill="black"/>
<g opacity="0.71">
<path d="M275.523 309.817L157.561 353.306L156.588 350.527L274.551 307.038C329.85 283.835 367.086 228.396 367.086 169.068C367.086 87.2307 299.838 20.6772 217.306 20.6772C134.774 20.6772 67.526 87.2307 67.526 169.068C67.526 224.367 99.3439 275.776 148.807 301.063C149.78 301.48 150.614 302.036 151.586 302.453C150.753 303.148 150.058 303.842 149.502 304.676C148.669 304.259 147.696 303.842 146.862 303.286C123.103 291.06 103.095 272.997 88.6453 250.627C72.9448 226.312 64.6082 198.107 64.6082 169.068C64.6082 85.7023 133.107 17.7594 217.306 17.7594C301.505 17.7594 370.004 85.5634 370.004 169.068C369.865 229.647 331.934 286.197 275.523 309.817Z" fill="white"/>
<path d="M376.673 169.068C376.673 232.287 337.075 291.337 278.024 316.069H277.885L159.923 359.558L158.256 354.973L158.95 356.779L277.052 313.29C334.852 289.114 373.756 231.175 373.756 169.068C373.756 83.4792 303.59 13.869 217.167 13.869C130.884 13.869 60.579 83.4792 60.579 169.068C60.579 198.802 69.0545 227.841 85.3108 252.711C100.178 275.637 120.88 294.255 145.195 306.76C146.029 307.177 147.001 307.733 147.835 308.149C147.557 308.983 147.418 309.956 147.418 310.789C147.418 310.928 147.418 311.067 147.418 311.206C146.446 310.789 145.473 310.234 144.5 309.817C119.352 297.034 98.0935 277.999 82.8099 254.24C66.2757 228.813 57.6612 199.357 57.6612 168.929C57.6612 81.9509 129.217 10.9512 217.167 10.9512C305.118 10.9512 376.673 81.9509 376.673 169.068Z" fill="white"/>
<path d="M282.748 344.413L157.561 390.542L156.449 387.903L281.776 341.635L283.443 346.22L282.748 344.413Z" fill="white"/>
<path d="M285.11 350.805L159.923 396.934L158.117 392.349L158.811 394.155L284.137 348.026L285.11 350.805Z" fill="white"/>
<path d="M171.455 414.58L173.817 419.443C181.737 435.699 198.549 446.258 216.751 446.258C243.011 446.258 264.269 425.139 264.269 399.157V380.539L171.455 414.58ZM261.212 399.018C261.212 423.333 241.204 443.202 216.612 443.202C199.522 443.202 183.821 433.337 176.318 418.053L175.346 416.108L261.073 384.568V399.018H261.212ZM216.612 439.311C238.981 439.311 257.322 421.249 257.322 399.018V390.126L180.903 418.331C187.989 431.114 201.745 439.311 216.612 439.311ZM254.404 394.294V399.018C254.404 419.581 237.453 436.393 216.612 436.393C203.968 436.393 192.158 430.002 185.211 419.859L254.404 394.294Z" fill="white"/>
<path d="M158.533 297.034C154.782 297.034 151.308 298.562 148.807 301.063C148.113 301.758 147.418 302.453 146.862 303.425C147.696 303.842 148.668 304.259 149.502 304.815C150.058 303.981 150.753 303.286 151.586 302.592C153.531 301.063 155.893 300.091 158.533 300.091C164.647 300.091 169.51 304.954 169.51 310.928C169.51 316.903 164.508 321.766 158.533 321.766C152.559 321.766 147.696 317.042 147.557 311.345C147.557 311.206 147.557 311.067 147.557 310.928C147.557 309.956 147.696 309.122 147.974 308.288C147.14 307.871 146.167 307.455 145.334 306.899C145.056 307.871 144.778 308.844 144.778 309.956C144.778 310.233 144.778 310.65 144.778 310.928C144.778 318.57 151.03 324.822 158.672 324.822C166.314 324.822 172.567 318.57 172.567 310.928C172.567 303.286 166.175 297.034 158.533 297.034ZM158.533 303.842C154.643 303.842 151.447 307.038 151.447 310.928C151.447 314.819 154.643 318.014 158.533 318.014C162.424 318.014 165.619 314.819 165.619 310.928C165.619 307.038 162.424 303.842 158.533 303.842ZM158.533 314.958C156.171 314.958 154.365 313.151 154.365 310.789C154.365 308.427 156.31 306.621 158.533 306.621C160.895 306.621 162.702 308.427 162.702 310.789C162.702 313.151 160.756 314.958 158.533 314.958Z" fill="white"/>
<path d="M193.13 198.107C189.518 185.185 184.933 169.207 173.261 161.426C169.927 159.203 165.759 157.952 161.59 157.952C156.588 157.952 151.864 159.759 149.085 163.788C145.195 169.346 146.584 176.988 149.641 182.128C152.698 186.991 157.561 191.16 165.203 195.328C173.817 199.913 183.96 203.109 194.798 204.915C194.381 202.692 193.825 200.33 193.13 198.107ZM166.731 192.688C159.506 188.798 154.921 185.046 152.281 180.6C149.224 175.598 148.946 169.346 151.586 165.594C153.809 162.399 157.7 161.009 161.729 161.009C165.203 161.009 168.954 162.121 171.733 163.927C182.432 171.013 186.878 186.436 190.351 198.94C190.629 199.774 190.768 200.469 191.046 201.303C182.154 199.357 173.817 196.578 166.731 192.688ZM233.84 216.03C234.118 214.085 234.535 211.862 234.952 209.778C223.42 211.306 211.471 211.306 200.077 209.778C205.079 233.954 205.357 259.658 200.633 284.807L203.551 285.363C207.997 261.326 208.136 236.594 203.69 213.113C212.86 213.946 222.308 213.946 231.478 213.113C231.339 213.946 231.201 214.641 231.062 215.475V215.614C227.032 239.373 227.171 262.854 231.339 285.363L234.257 284.807C229.95 262.437 229.811 239.373 233.84 216.03ZM285.527 163.927C282.748 159.898 277.885 158.091 273.022 158.091C268.854 158.091 264.686 159.342 261.351 161.565C248.429 170.179 243.011 188.798 239.815 205.054C250.652 203.248 260.795 200.052 269.41 195.467C277.052 191.299 282.054 187.13 284.971 182.267C288.028 177.127 289.417 169.485 285.527 163.927ZM282.47 180.6C279.691 185.046 275.106 188.937 268.02 192.688C260.795 196.578 252.459 199.357 243.566 201.303C246.762 186.714 252.042 171.152 263.018 163.927C265.936 161.982 269.549 161.009 273.022 161.009C277.052 161.009 280.942 162.399 283.165 165.594C285.805 169.485 285.527 175.598 282.47 180.6ZM291.085 160.037C283.582 149.199 267.603 149.199 257.6 155.868C242.733 165.733 236.758 185.741 233.285 202.97C222.864 204.22 212.026 204.22 201.606 202.97C201.05 200.747 200.494 198.524 199.799 196.301C195.909 182.267 190.907 164.9 177.152 155.868C167.009 149.199 151.17 149.199 143.667 160.037C138.804 167.123 138.943 177.404 143.945 185.741C148.808 193.522 156.588 198.385 162.146 201.303C171.316 206.166 182.154 209.639 193.408 211.723C198.132 234.927 198.271 259.519 193.825 283.557L196.743 284.112C201.467 259.103 201.05 233.398 195.909 209.222C184.099 207.277 172.984 203.804 163.535 198.802C158.256 196.023 150.892 191.438 146.446 184.213C141.86 176.849 141.721 167.817 146.029 161.704C152.42 152.395 166.731 152.534 175.623 158.369C188.545 166.845 193.269 183.657 197.021 197.134C197.854 199.913 198.549 202.831 199.244 205.61C211.193 207.277 223.837 207.277 235.786 205.61C239.12 188.381 244.817 167.956 259.267 158.369C268.02 152.534 282.331 152.534 288.862 161.704C293.169 167.817 292.891 176.849 288.445 184.213C283.999 191.438 276.496 196.023 271.355 198.802C261.907 203.804 250.791 207.277 239.12 209.222C238.703 211.723 238.287 214.224 237.87 216.586C233.979 239.651 234.118 262.298 238.148 284.112L241.065 283.557C237.036 262.159 237.036 239.79 240.788 217.142V217.003C241.065 215.336 241.343 213.529 241.76 211.723C253.015 209.778 263.713 206.304 272.883 201.441C278.441 198.524 286.222 193.661 291.085 185.88C295.809 177.404 295.948 166.984 291.085 160.037Z" fill="white"/>
</g>
<path d="M204.246 344.83C185.349 370.951 149.224 377.343 123.52 359.141C97.8155 340.94 92.3967 304.954 111.293 278.832C130.189 252.711 166.314 246.32 192.019 264.521C217.723 282.723 223.142 318.709 204.246 344.83Z" fill="url(#paint0_radial_76_2627)"/>
<path d="M121.575 76.9488C90.0348 109.045 57.5222 128.358 48.7688 120.021C40.0154 111.546 58.4948 78.7551 89.8958 46.5204C121.436 14.2857 153.948 -4.88836 162.702 3.4482C171.455 11.9237 152.976 44.8531 121.575 76.9488Z" fill="url(#paint1_radial_76_2627)"/>
<path d="M223.559 349.832C174.234 368.45 131.718 376.926 128.522 368.589C125.326 360.392 162.841 338.578 212.026 319.959C261.351 301.341 303.868 292.866 307.063 301.063C310.259 309.4 272.744 331.214 223.559 349.832Z" fill="url(#paint2_radial_76_2627)"/>
<path d="M223.559 387.208C174.234 405.826 131.718 414.301 128.522 406.104C125.326 397.906 162.841 376.092 212.026 357.474C261.351 338.856 303.868 330.38 307.063 338.578C310.259 346.775 272.744 368.589 223.559 387.208Z" fill="url(#paint3_radial_76_2627)"/>
<path d="M223.559 418.748C174.234 437.366 131.718 445.841 128.522 437.644C125.326 429.446 162.841 407.632 212.026 389.014C261.351 370.396 303.868 361.92 307.063 370.118C310.259 378.315 272.744 400.129 223.559 418.748Z" fill="url(#paint4_radial_76_2627)"/>
<path d="M312.204 23.5948C361.945 54.579 386.538 104.598 366.947 135.444C347.495 166.289 291.362 166.15 241.621 135.166C191.88 104.182 167.426 54.1622 186.878 23.3169C206.33 -7.38938 262.462 -7.25043 312.204 23.5948Z" fill="url(#paint5_radial_76_2627)"/>
<path d="M174.234 122.244C200.911 138.778 209.803 172.402 194.242 197.134C178.541 221.866 144.222 228.396 117.545 211.862C90.8684 195.189 81.9761 161.565 97.6766 136.833C113.238 112.101 147.557 105.571 174.234 122.244Z" fill="url(#paint6_radial_76_2627)"/>
<path d="M315.955 122.244C342.632 138.778 351.525 172.402 335.963 197.134C320.263 221.866 285.944 228.396 259.267 211.862C232.59 195.328 223.697 161.704 239.259 136.972C254.959 112.101 289.278 105.571 315.955 122.244Z" fill="url(#paint7_radial_76_2627)"/>
<path d="M215.5 399.573C334.574 399.573 431 419.72 431 444.591C431 469.462 334.574 489.608 215.5 489.608C96.4262 489.608 0 469.462 0 444.591C0 419.72 96.4262 399.573 215.5 399.573Z" fill="url(#paint8_radial_76_2627)"/>
</g>
<defs>
<radialGradient id="paint0_radial_76_2627" cx="0" cy="0" r="1" gradientUnits="userSpaceOnUse" gradientTransform="translate(157.792 311.902) rotate(35.4234) scale(57.0381 58.409)">
<stop stop-color="#F9F9F9"/>
<stop offset="0.0487689" stop-color="#EDF1FA"/>
<stop offset="0.0982115" stop-color="#E6EDFA"/>
<stop offset="0.1217" stop-color="#DFE6FA" stop-opacity="0.9668"/>
<stop offset="0.2262" stop-color="#C5C9FC" stop-opacity="0.8188"/>
<stop offset="0.3388" stop-color="#B0B4FD" stop-opacity="0.6593"/>
<stop offset="0.4619" stop-color="#A1A4FE" stop-opacity="0.4851"/>
<stop offset="0.6033" stop-color="#999BFF" stop-opacity="0.2848"/>
<stop offset="0.8045" stop-color="#9698FF" stop-opacity="0"/>
</radialGradient>
<radialGradient id="paint1_radial_76_2627" cx="0" cy="0" r="1" gradientUnits="userSpaceOnUse" gradientTransform="translate(105.593 61.8021) rotate(43.9461) scale(21.9722 81.4682)">
<stop stop-color="#F9F9F9"/>
<stop offset="0.0487689" stop-color="#EDF1FA"/>
<stop offset="0.0982115" stop-color="#E6EDFA"/>
<stop offset="0.1217" stop-color="#DFE6FA" stop-opacity="0.9668"/>
<stop offset="0.2262" stop-color="#C5C9FC" stop-opacity="0.8188"/>
<stop offset="0.3388" stop-color="#B0B4FD" stop-opacity="0.6593"/>
<stop offset="0.4619" stop-color="#A1A4FE" stop-opacity="0.4851"/>
<stop offset="0.6033" stop-color="#999BFF" stop-opacity="0.2848"/>
<stop offset="0.8045" stop-color="#9698FF" stop-opacity="0"/>
</radialGradient>
<radialGradient id="paint2_radial_76_2627" cx="0" cy="0" r="1" gradientUnits="userSpaceOnUse" gradientTransform="translate(217.866 334.964) rotate(69.0846) scale(15.933 95.4101)">
<stop stop-color="#F9F9F9"/>
<stop offset="0.0487689" stop-color="#EDF1FA"/>
<stop offset="0.0982115" stop-color="#E6EDFA"/>
<stop offset="0.1217" stop-color="#DFE6FA" stop-opacity="0.9668"/>
<stop offset="0.2262" stop-color="#C5C9FC" stop-opacity="0.8188"/>
<stop offset="0.3388" stop-color="#B0B4FD" stop-opacity="0.6593"/>
<stop offset="0.4619" stop-color="#A1A4FE" stop-opacity="0.4851"/>
<stop offset="0.6033" stop-color="#999BFF" stop-opacity="0.2848"/>
<stop offset="0.8045" stop-color="#9698FF" stop-opacity="0"/>
</radialGradient>
<radialGradient id="paint3_radial_76_2627" cx="0" cy="0" r="1" gradientUnits="userSpaceOnUse" gradientTransform="translate(217.868 372.353) rotate(69.0846) scale(15.933 95.4101)">
<stop stop-color="#F9F9F9"/>
<stop offset="0.0487689" stop-color="#EDF1FA"/>
<stop offset="0.0982115" stop-color="#E6EDFA"/>
<stop offset="0.1217" stop-color="#DFE6FA" stop-opacity="0.9668"/>
<stop offset="0.2262" stop-color="#C5C9FC" stop-opacity="0.8188"/>
<stop offset="0.3388" stop-color="#B0B4FD" stop-opacity="0.6593"/>
<stop offset="0.4619" stop-color="#A1A4FE" stop-opacity="0.4851"/>
<stop offset="0.6033" stop-color="#999BFF" stop-opacity="0.2848"/>
<stop offset="0.8045" stop-color="#9698FF" stop-opacity="0"/>
</radialGradient>
<radialGradient id="paint4_radial_76_2627" cx="0" cy="0" r="1" gradientUnits="userSpaceOnUse" gradientTransform="translate(217.87 403.887) rotate(69.0846) scale(15.933 95.4101)">
<stop stop-color="#F9F9F9"/>
<stop offset="0.0487689" stop-color="#EDF1FA"/>
<stop offset="0.0982115" stop-color="#E6EDFA"/>
<stop offset="0.1217" stop-color="#DFE6FA" stop-opacity="0.9668"/>
<stop offset="0.2262" stop-color="#C5C9FC" stop-opacity="0.8188"/>
<stop offset="0.3388" stop-color="#B0B4FD" stop-opacity="0.6593"/>
<stop offset="0.4619" stop-color="#A1A4FE" stop-opacity="0.4851"/>
<stop offset="0.6033" stop-color="#999BFF" stop-opacity="0.2848"/>
<stop offset="0.8045" stop-color="#9698FF" stop-opacity="0"/>
</radialGradient>
<radialGradient id="paint5_radial_76_2627" cx="0" cy="0" r="1" gradientUnits="userSpaceOnUse" gradientTransform="translate(276.753 79.6135) rotate(-57.6247) scale(66.035 106.028)">
<stop stop-color="#F9F9F9"/>
<stop offset="0.015188" stop-color="#EDF1FA"/>
<stop offset="0.0305858" stop-color="#E6EDFA"/>
<stop offset="0.2959" stop-color="#CDD1D9" stop-opacity="0.7263"/>
<stop offset="0.5681" stop-color="#B9BBBF" stop-opacity="0.4456"/>
<stop offset="0.8114" stop-color="#ADAEAF" stop-opacity="0.1945"/>
<stop offset="1" stop-color="#A9A9A9" stop-opacity="0"/>
</radialGradient>
<radialGradient id="paint6_radial_76_2627" cx="0" cy="0" r="1" gradientUnits="userSpaceOnUse" gradientTransform="translate(146.081 166.272) rotate(-57.6339) scale(53.0115 56.8982)">
<stop stop-color="#F9F9F9"/>
<stop offset="0.015188" stop-color="#EDF1FA"/>
<stop offset="0.0305858" stop-color="#E6EDFA"/>
<stop offset="0.2959" stop-color="#CDD1D9" stop-opacity="0.7263"/>
<stop offset="0.5681" stop-color="#B9BBBF" stop-opacity="0.4456"/>
<stop offset="0.8114" stop-color="#ADAEAF" stop-opacity="0.1945"/>
<stop offset="1" stop-color="#A9A9A9" stop-opacity="0"/>
</radialGradient>
<radialGradient id="paint7_radial_76_2627" cx="0" cy="0" r="1" gradientUnits="userSpaceOnUse" gradientTransform="translate(287.711 166.272) rotate(-57.6339) scale(53.0113 56.898)">
<stop stop-color="#F9F9F9"/>
<stop offset="0.015188" stop-color="#EDF1FA"/>
<stop offset="0.0305858" stop-color="#E6EDFA"/>
<stop offset="0.2959" stop-color="#CDD1D9" stop-opacity="0.7263"/>
<stop offset="0.5681" stop-color="#B9BBBF" stop-opacity="0.4456"/>
<stop offset="0.8114" stop-color="#ADAEAF" stop-opacity="0.1945"/>
<stop offset="1" stop-color="#A9A9A9" stop-opacity="0"/>
</radialGradient>
<radialGradient id="paint8_radial_76_2627" cx="0" cy="0" r="1" gradientUnits="userSpaceOnUse" gradientTransform="translate(215.486 443.794) rotate(-89.9031) scale(45.0318 215.435)">
<stop stop-color="#F9F9F9"/>
<stop offset="0.015188" stop-color="#EDF1FA"/>
<stop offset="0.0305858" stop-color="#E6EDFA"/>
<stop offset="0.2959" stop-color="#CDD1D9" stop-opacity="0.7263"/>
<stop offset="0.5681" stop-color="#B9BBBF" stop-opacity="0.4456"/>
<stop offset="0.8114" stop-color="#ADAEAF" stop-opacity="0.1945"/>
<stop offset="1" stop-color="#A9A9A9" stop-opacity="0"/>
</radialGradient>
<clipPath id="clip0_76_2627">
<rect width="431" height="489.217" fill="white" transform="translate(0 0.391479)"/>
</clipPath>
</defs>
</svg>
