<svg width="605" height="361" viewBox="0 0 605 361" fill="none" xmlns="http://www.w3.org/2000/svg">
<g opacity="0.8">
<rect width="603.597" height="359.823" transform="translate(0.5 0.811279)" fill="#E6F0FA"/>
<g clip-path="url(#clip0_206_11377)">
<path d="M388.276 334.844C451.979 334.844 503.62 328.473 503.62 320.614C503.62 312.755 451.979 306.384 388.276 306.384C324.574 306.384 272.933 312.755 272.933 320.614C272.933 328.473 324.574 334.844 388.276 334.844Z" fill="#002D5B"/>
<path d="M152.642 340.733C216.344 340.733 267.986 331.726 267.986 320.614C267.986 309.502 216.344 300.495 152.642 300.495C88.9394 300.495 37.2983 309.502 37.2983 320.614C37.2983 331.726 88.9394 340.733 152.642 340.733Z" fill="#EFF1FA"/>
<path d="M114.473 73.1331C122.089 76.2634 138.785 102.813 139.707 106.071C140.628 109.329 140.745 114.221 138.785 116.863C136.836 119.505 116.009 141.704 116.009 141.704L109.494 132.939L123.054 109.339L110.479 98.1974C110.468 98.2186 110.225 74.3003 114.473 73.1331Z" fill="#8E599B"/>
<path d="M220.738 38.614C220.738 38.614 228.842 38.9217 230.007 51.4433C231.172 63.9648 228.768 69.6101 233.302 73.9396C237.836 78.2691 246.279 77.6537 246.279 77.6537C246.279 77.6537 239.552 73.4621 237.899 62.8612C236.247 52.271 238.789 38.3699 229.933 32.5973C221.077 26.814 215.579 33.616 215.579 33.616L220.738 38.614Z" fill="#4F200B"/>
<path d="M229.371 51.4328C229.371 51.4328 227.348 63.636 227.962 68.8887L225.695 60.9938C225.695 61.0044 226.447 50.4884 229.371 51.4328Z" fill="#4F200B"/>
<path d="M225.992 299.264C225.41 295.72 223.641 285.023 221.49 273.181C218.852 258.654 211.829 240.285 211.829 240.285L196.309 252.499L214.986 303.052C214.509 304.559 213.672 306.766 212.592 308.061C210.833 310.151 210.176 311 210.176 311C210.176 311 214.244 312.242 217.094 312.242C219.954 312.242 227.423 305.642 227.751 304.432C227.931 303.753 226.925 301.301 225.992 299.264Z" fill="#F18571"/>
<path d="M211.702 309.101C211.702 309.101 210.621 310.364 207.327 313.006C204.032 315.648 202.824 317.41 202.824 318.503C202.824 319.606 215.674 319.999 218.418 319.256C221.162 318.503 229.181 310.364 230.06 308.602C230.94 306.841 226.798 301.089 226.798 301.089C226.798 301.089 225.23 304.421 224.128 306.077C223.026 307.732 218.958 309.546 216.501 310.364C210.918 312.242 211.702 309.101 211.702 309.101Z" fill="#004361"/>
<path d="M186.753 149.334C186.753 149.334 185.461 167.204 185.747 191.43C186.033 215.646 205.578 294.478 205.578 294.478L224.827 288.568L211.362 149.334H186.753Z" fill="#004361"/>
<path d="M198.957 83.4795C198.957 83.4795 191.955 88.8171 181.986 109.711C178.988 115.993 175.747 132.759 186.446 129.098C189.751 127.973 194.805 117.914 194.805 117.914C194.805 117.914 200.112 89.1036 198.957 83.4795Z" fill="#19100D"/>
<path d="M198.957 83.4794C198.957 83.4794 212.051 74.6506 225.028 75.2343C237.709 75.8073 243.652 81.3571 243.652 81.3571L232.772 129.141L237.264 149.324H186.753L192.802 120.641C192.802 120.641 192.972 118.03 193.353 114.115C190.08 92.2657 195.917 91.1621 198.957 83.4794Z" fill="#FFEEE6"/>
<path d="M210.907 258.229L190.864 259.269L183.946 306.172C181.806 307.159 179.455 309.918 174.465 311.86C170.545 313.388 171.509 314.046 170.683 315.595C169.857 317.144 170.683 318.906 170.683 318.906H196.955C197.877 318.895 198.629 318.153 198.629 317.219C198.65 314.555 198.682 309.334 198.64 306.353C199.169 304.241 201.267 295.921 204.297 285.766C207.803 273.966 210.907 258.229 210.907 258.229Z" fill="#FFA98C"/>
<path d="M179.635 309.207C179.635 309.207 181.467 311.934 189.19 311.457C196.913 310.979 198.735 309.207 198.735 309.207C198.735 309.207 199.709 318.375 199.286 319.288C198.862 320.201 189.603 319.681 188.321 319.649C187.05 319.628 169.973 320.445 167.844 319.649C165.714 318.853 165.121 317.314 165.81 316.264C166.488 315.203 176.7 310.64 179.635 309.207Z" fill="#005481"/>
<path d="M206.595 79.8929C206.595 79.8929 201.14 84.6469 209.901 84.7424C218.651 84.8379 230.929 75.8075 230.929 75.8075L223.45 75.2239L213.831 77.0278L206.595 79.8929Z" fill="#FFA98C"/>
<path d="M237.253 149.334C237.253 149.334 238.8 164.244 231.977 187.536C225.155 210.828 203.11 303.222 203.11 303.222H179.253L201.288 163.618L199.741 149.334H237.253Z" fill="#005481"/>
<path d="M233.185 150.767C233.185 150.767 232.359 170.855 228.249 186.91C224.138 202.965 200.017 298.988 200.017 298.988" stroke="#004361" stroke-width="1.08693" stroke-miterlimit="10" stroke-linecap="round" stroke-linejoin="round"/>
<path d="M179.814 298.988C179.814 298.988 199.105 299.498 204.233 298.988" stroke="#004361" stroke-width="1.08693" stroke-miterlimit="10" stroke-linecap="round" stroke-linejoin="round"/>
<path d="M211.13 156.306L201.288 163.617" stroke="#004361" stroke-width="1.08693" stroke-miterlimit="10" stroke-linecap="round" stroke-linejoin="round"/>
<path d="M188.586 147.286C188.586 147.286 210.377 147.424 215.896 147.286C221.416 147.148 233.959 147.52 233.959 147.52" stroke="#D76D5F" stroke-width="1.08693" stroke-miterlimit="10" stroke-linecap="round" stroke-linejoin="round"/>
<path d="M229.858 75.818L215.589 79.2243L214.137 79.3304L213.703 76.0197L213.65 75.6589L211.574 59.869L225.038 57.7148L226.193 62.437L229.297 73.77L229.858 75.818Z" fill="#FFA98C"/>
<path d="M226.193 62.4367C225.621 65.9067 224.255 69.0795 221.5 71.5626C220.579 72.4009 219.646 73.1012 218.725 73.6955C217.496 74.4913 216.278 75.0962 215.102 75.5419C214.625 75.7223 214.159 75.8814 213.693 76.0194L213.65 75.648L211.563 59.8581L225.028 57.6934L226.193 62.4367Z" fill="#D76D5F"/>
<path d="M222.739 39.9723C229.689 45.5433 227.602 57.5662 225.599 62.076C222.623 68.7931 213.713 73.5364 208.162 72.4435C206.997 72.21 205.927 71.7749 205.027 71.0958C202.23 69.0266 200.302 64.4636 199.295 59.4656C198.946 57.7253 199.38 56.0381 199.253 54.2766C199.2 53.5869 198.458 52.1331 198.49 50.9021C198.533 49.0239 198.617 48.3766 199.052 46.5939C201.149 37.8819 215.79 34.4013 222.739 39.9723Z" fill="#FFA98C"/>
<path d="M223.926 56.6324C223.481 54.2555 225.059 51.974 227.443 51.5283C229.826 51.0826 231.691 51.7299 232.136 54.1069C232.581 56.4839 230.473 59.9857 228.089 60.4207C225.695 60.877 224.371 59.0094 223.926 56.6324Z" fill="#FFA98C"/>
<path d="M229.371 51.4327C229.371 51.4327 227.327 50.987 225.96 53.0775C224.583 55.1679 224.477 58.3832 224.477 58.3832C224.477 58.3832 223.947 55.1467 224.424 53.6929C224.424 53.6929 220.43 58.1073 217.051 52.3877C213.671 46.6681 203.947 45.416 200.673 43.3574C200.673 43.3574 200.938 46.9546 199.052 53.4277C199.052 53.4277 194.285 47.1775 198.491 38.8156C200.355 35.1122 210.843 31.4725 219.371 32.4169C227.888 33.3613 229.371 51.4327 229.371 51.4327Z" fill="#4F200B"/>
<path d="M173.638 86.4082C173.638 86.4082 172.557 116.937 175.058 124.005C177.558 131.072 182.473 130.679 185.153 129.597C187.834 128.525 188.808 123.591 188.776 118.147C188.745 112.703 180.386 87.6816 180.386 87.6816L173.638 86.4082Z" fill="#FFA98C"/>
<path d="M173.13 107.695C173.13 107.695 174.623 108.968 178.988 108.13C183.353 107.292 186.382 106.071 186.382 106.071C186.382 106.071 189.656 114.529 189.116 122.36C188.575 130.202 183.331 132.048 178.448 129.692C173.564 127.358 172.865 113.287 173.13 107.695Z" fill="#2D1E18"/>
<path d="M235.727 127.676C236.734 137.927 241.819 166.907 241.819 166.907H207.061C207.061 166.907 204.911 126.403 205.26 120.227C205.62 114.051 215.96 82.2378 229.848 75.8073C229.848 75.8073 231.034 75.2342 235.505 76.5925C239.986 77.9402 246.077 82.0574 246.268 83.4581C246.395 84.4132 241.459 101.094 238.238 113.085C236.755 118.603 235.643 123.124 235.547 124.673C235.537 125.257 235.59 126.297 235.727 127.676Z" fill="#2D1E18"/>
<path d="M235.727 127.676L215.208 124.376C215.208 124.376 230.272 123.601 230.462 121.776C230.653 119.94 231.554 93.4224 231.554 93.4224L238.249 113.085C236.766 118.603 235.653 123.124 235.558 124.673C235.537 125.257 235.59 126.297 235.727 127.676Z" fill="#19100D"/>
<path d="M238.164 80.7309C238.164 80.7309 233.704 81.3039 232.411 90.2494C231.119 99.1842 239.763 122.094 242.772 127.008C247.804 135.221 293.081 122.073 293.081 122.073L291.302 113.658L254.139 114.04C254.139 114.04 249.531 94.0058 246.798 86.6521C244.064 79.2877 238.164 80.7309 238.164 80.7309Z" fill="#FFA98C"/>
<path d="M248.45 88.1378C248.45 88.1378 246.501 80.4763 239.562 79.9988C232.624 79.5213 230.854 89.7402 231.797 97.2955C232.729 104.862 240.601 126.806 242.709 129.968C244.817 133.131 272.954 127.995 272.954 127.995L271.078 112.512L254.393 112.916L248.45 88.1378Z" fill="#2D1E18"/>
<path d="M206.595 79.8928C206.595 79.8928 202.156 119.41 201.447 121.299C200.737 123.188 192.135 163.883 191.308 165.177C190.472 166.461 181.096 167.363 181.096 167.363L192.982 114.645C192.982 114.645 191.245 104.363 191.955 96.4467C192.664 88.5306 197.877 84.1586 199.921 82.5351C201.966 80.9115 206.595 79.8928 206.595 79.8928Z" fill="#2D1E18"/>
<path d="M217.04 32.2684C217.04 32.2684 221.023 31.9607 222.824 33.9556C224.625 35.94 225.695 37.277 225.695 37.277L226.331 36.5448C226.331 36.5448 226.14 33.5842 222.898 32.035C219.657 30.4963 217.029 31.0269 217.04 32.2684Z" fill="#BD3F00"/>
<path d="M289.84 117.818L291.429 121.362C293.897 122.126 303.283 124.907 303.283 124.907C303.792 125.087 304.406 125.289 305.052 125.511C305.699 125.724 306.387 125.946 307.055 126.159C309.523 126.923 312.267 127.729 311.536 126.095C310.985 124.854 307.012 123.453 305.137 122.848L305.413 122.54C306.398 122.89 308.188 123.506 309.862 124.026C312.33 124.79 315.074 125.596 314.343 123.962C313.707 122.53 308.527 120.885 307.245 120.492L307.574 120.121C308.516 120.45 310.423 121.118 312.203 121.67C314.671 122.434 317.415 123.241 316.684 121.606C316.006 120.089 310.222 118.327 309.406 118.083L309.586 117.882C310.497 118.2 312.478 118.9 314.311 119.463C316.779 120.227 319.523 121.033 318.792 119.399C318.061 117.765 311.419 115.844 311.419 115.844L299.703 111.78C299.703 111.78 302.383 110.634 303.792 109.934C305.201 109.233 306.885 106.591 304.999 106.835C303.114 107.09 296.874 109.679 295.412 110.273C292.393 111.494 290.624 113.658 290.052 115.431C289.882 115.993 289.84 117.744 289.84 117.818Z" fill="#FFA98C"/>
<path d="M165.862 68.2201L172.399 115.505L197.802 109.403L191.245 65.6521L165.862 68.2201Z" fill="#472BAF"/>
<path d="M166.541 67.6152L173.087 114.889L198.48 108.788L191.923 65.0366L166.541 67.6152Z" fill="#7149E2"/>
<path d="M168.85 70.3955L190.386 67.7002L196.022 106.549L175.778 111.695L168.85 70.3955Z" fill="#FFEEE6"/>
<path d="M173.278 65.79C173.278 65.79 184.666 64.6015 184.846 64.7394C185.037 64.8774 185.196 66.7556 185.164 67.0209C185.132 67.2862 182.452 67.2331 182.431 67.456C182.399 67.6682 182.728 69.6631 182.622 69.7905C182.516 69.9284 177.685 70.4378 177.442 70.4378C177.198 70.4378 176.668 68.1775 176.552 68.1033C176.446 68.0184 173.49 68.2624 173.278 68.1563C173.066 68.0502 172.399 66.0128 173.278 65.79Z" fill="#2C1F6D"/>
<path d="M172.123 74.916L189.422 72.592L189.687 75.2025L172.61 77.1125L172.123 74.916Z" fill="#D8C5BF"/>
<path d="M173.744 79.9987L176.424 94.0059L185.122 91.7456L182.06 78.2478L173.744 79.9987Z" fill="#D8C5BF"/>
<path d="M164.74 85.1879C165.089 85.8777 165.799 86.3021 166.466 86.6841C165.841 86.9813 165.449 87.7028 165.555 88.3926C165.651 89.0717 166.233 89.666 166.911 89.7721C166.191 90.0904 166.276 91.2683 166.901 91.7458C167.526 92.2339 168.394 92.2233 169.189 92.1703C170.757 92.0535 172.462 91.767 173.5 90.5785C173.67 90.3769 173.829 90.1329 173.606 89.8357C173.5 89.6978 173.342 89.6023 173.172 89.5598C172.452 89.3901 171.7 89.337 170.958 89.4113C172.515 89.4113 174.073 88.817 175.217 87.7665C175.397 87.6073 175.513 87.3739 175.481 87.1298C175.439 86.7372 175.111 86.6311 174.814 86.578C173.034 86.2066 171.149 86.2809 169.401 86.7902C170.958 86.7266 172.494 86.2915 173.85 85.5063C174.051 85.3895 174.274 85.2304 174.21 84.9545C174.168 84.7635 174.009 84.6149 173.818 84.5724C171.88 84.0525 169.835 83.957 167.865 84.2965C169.475 84.2329 171.223 84.0949 172.611 83.384C173.299 83.0232 173.151 81.9939 172.388 81.8347C171.085 81.5694 169.464 81.3466 167.928 81.389C166.138 81.4421 164.655 82.8746 164.655 84.6786C164.655 84.8802 164.676 85.0606 164.74 85.1879Z" fill="#F4A27D"/>
<path d="M183.405 78.5132L189.825 77.3884L189.931 77.9508L183.543 79.1605L183.405 78.5132Z" fill="#D8C5BF"/>
<path d="M183.66 79.7654L190.069 78.6406L190.175 79.203L183.787 80.4127L183.66 79.7654Z" fill="#D8C5BF"/>
<path d="M183.903 81.0283L190.323 79.8928L190.429 80.4552L184.041 81.6649L183.903 81.0283Z" fill="#D8C5BF"/>
<path d="M184.157 82.2804L190.577 81.145L190.683 81.718L184.295 82.9277L184.157 82.2804Z" fill="#D8C5BF"/>
<path d="M184.412 83.5325L190.821 82.4077L190.927 82.9701L184.539 84.1798L184.412 83.5325Z" fill="#D8C5BF"/>
<path d="M184.655 84.7847L191.075 83.6599L191.181 84.2223L184.793 85.432L184.655 84.7847Z" fill="#D8C5BF"/>
<path d="M184.909 86.0475L191.329 84.9121L191.435 85.4851L185.036 86.6948L184.909 86.0475Z" fill="#D8C5BF"/>
<path d="M185.153 87.2996L191.573 86.1748L191.679 86.7372L185.291 87.9469L185.153 87.2996Z" fill="#D8C5BF"/>
<path d="M185.407 88.5518L191.827 87.427L191.933 87.9894L185.545 89.1991L185.407 88.5518Z" fill="#D8C5BF"/>
<path d="M185.662 89.8146L192.071 88.6792L192.187 89.2416L185.789 90.4513L185.662 89.8146Z" fill="#D8C5BF"/>
<path d="M185.905 91.0666L192.325 89.9312L192.431 90.5042L186.043 91.7139L185.905 91.0666Z" fill="#D8C5BF"/>
<path d="M176.53 95.5341L192.41 91.6396L192.505 92.2339L176.679 96.2026L176.53 95.5341Z" fill="#D8C5BF"/>
<path d="M176.784 96.8497L192.664 92.9553L192.77 93.5496L176.932 97.5183L176.784 96.8497Z" fill="#D8C5BF"/>
<path d="M177.049 98.1657L192.919 94.2712L193.025 94.8655L177.198 98.8342L177.049 98.1657Z" fill="#D8C5BF"/>
<path d="M177.303 99.4816L193.183 95.5872L193.278 96.1814L177.452 100.15L177.303 99.4816Z" fill="#D8C5BF"/>
<path d="M177.568 100.797L193.438 96.9028L193.544 97.4971L177.706 101.466L177.568 100.797Z" fill="#D8C5BF"/>
<path d="M177.822 102.113L193.692 98.2188L193.797 98.813L177.971 102.782L177.822 102.113Z" fill="#D8C5BF"/>
<path d="M178.077 103.429L193.957 99.5344L194.052 100.129L178.225 104.097L178.077 103.429Z" fill="#D8C5BF"/>
<path d="M178.341 104.745L194.211 100.85L194.317 101.445L178.479 105.413L178.341 104.745Z" fill="#D8C5BF"/>
<path d="M178.596 106.05L194.465 102.166L194.571 102.761L178.744 106.729L178.596 106.05Z" fill="#D8C5BF"/>
<path d="M178.85 107.366L194.73 103.482L194.825 104.076L178.998 108.045L178.85 107.366Z" fill="#D8C5BF"/>
<path d="M179.115 108.682L194.984 104.798L195.09 105.392L179.252 109.361L179.115 108.682Z" fill="#D8C5BF"/>
<path d="M425.704 322.928H410.067L410.915 107.557H423.172L425.704 322.928Z" fill="#AAAAAA"/>
<path d="M417.886 322.928H402.25L404.792 107.557H417.049L417.886 322.928Z" fill="#F5F6F6"/>
<path d="M564.142 32.2683L567.298 41.999L502.974 166.557L283.495 164.838L279.045 157.197L378.912 115.367L564.142 32.2683Z" fill="#D1D1D1"/>
<path d="M564.142 32.2683L499.118 158.874L279.045 157.197L348.296 32.2683H564.142Z" fill="#F5F6F6"/>
<path d="M537.424 47.6019H549.067C549.766 47.6019 550.412 47.2305 550.751 46.615L555.974 37.3936C556.228 36.9479 555.91 36.4067 555.402 36.4067H544.013C543.166 36.4067 542.371 36.863 541.958 37.6058L536.852 46.615C536.598 47.0501 536.916 47.6019 537.424 47.6019Z" fill="#012347"/>
<path d="M520.019 47.6019H531.661C532.36 47.6019 533.006 47.2305 533.345 46.615L538.568 37.3936C538.822 36.9479 538.504 36.4067 537.996 36.4067H526.608C525.76 36.4067 524.966 36.863 524.553 37.6058L519.446 46.615C519.192 47.0501 519.51 47.6019 520.019 47.6019Z" fill="#012347"/>
<path d="M503.345 47.6019H514.987C515.686 47.6019 516.332 47.2305 516.671 46.615L521.894 37.3936C522.148 36.9479 521.831 36.4067 521.322 36.4067H509.934C509.086 36.4067 508.292 36.863 507.879 37.6058L502.773 46.615C502.518 47.0501 502.836 47.6019 503.345 47.6019Z" fill="#012347"/>
<path d="M486.745 47.6019H498.387C499.086 47.6019 499.732 47.2305 500.071 46.615L505.294 37.3936C505.548 36.9479 505.23 36.4067 504.722 36.4067H493.334C492.486 36.4067 491.692 36.863 491.279 37.6058L486.172 46.615C485.918 47.0501 486.236 47.6019 486.745 47.6019Z" fill="#012347"/>
<path d="M530.856 61.1314H542.498C543.197 61.1314 543.844 60.76 544.183 60.1445L549.405 50.9231C549.66 50.4775 549.342 49.9363 548.833 49.9363H537.445C536.598 49.9363 535.803 50.3926 535.39 51.1354L530.284 60.1445C530.03 60.5796 530.347 61.1314 530.856 61.1314Z" fill="#012347"/>
<path d="M513.822 61.1316H525.464C526.163 61.1316 526.81 60.7602 527.149 60.1448L532.371 50.9234C532.625 50.4777 532.308 49.9365 531.799 49.9365H520.411C519.563 49.9365 518.769 50.3928 518.356 51.1356L513.25 60.1448C512.995 60.5798 513.313 61.1316 513.822 61.1316Z" fill="#012347"/>
<path d="M496.649 61.1316H508.292C508.991 61.1316 509.637 60.7602 509.976 60.1448L515.199 50.9234C515.453 50.4777 515.135 49.9365 514.627 49.9365H503.239C502.391 49.9365 501.597 50.3928 501.183 51.1356L496.077 60.1448C495.823 60.5798 496.141 61.1316 496.649 61.1316Z" fill="#012347"/>
<path d="M479.879 61.1316H491.522C492.221 61.1316 492.867 60.7602 493.206 60.1448L498.429 50.9234C498.683 50.4777 498.365 49.9365 497.857 49.9365H486.469C485.621 49.9365 484.827 50.3928 484.413 51.1356L479.307 60.1448C479.053 60.5798 479.381 61.1316 479.879 61.1316Z" fill="#012347"/>
<path d="M523.642 74.5127H535.284C535.984 74.5127 536.63 74.1413 536.969 73.5259L542.191 64.3045C542.446 63.8588 542.128 63.3176 541.619 63.3176H530.231C529.384 63.3176 528.589 63.7739 528.176 64.5167L523.07 73.5259C522.816 73.9716 523.134 74.5127 523.642 74.5127Z" fill="#012347"/>
<path d="M506.607 74.5127H518.25C518.949 74.5127 519.595 74.1413 519.934 73.5259L525.157 64.3045C525.411 63.8588 525.093 63.3176 524.585 63.3176H513.197C512.349 63.3176 511.555 63.7739 511.141 64.5167L506.035 73.5259C505.781 73.9716 506.099 74.5127 506.607 74.5127Z" fill="#012347"/>
<path d="M489.446 74.5127H501.088C501.787 74.5127 502.433 74.1413 502.772 73.5259L507.995 64.3045C508.249 63.8588 507.932 63.3176 507.423 63.3176H496.035C495.187 63.3176 494.393 63.7739 493.98 64.5167L488.874 73.5259C488.619 73.9716 488.937 74.5127 489.446 74.5127Z" fill="#012347"/>
<path d="M472.676 74.5127H484.318C485.017 74.5127 485.664 74.1413 486.003 73.5259L491.225 64.3045C491.479 63.8588 491.162 63.3176 490.653 63.3176H479.265C478.417 63.3176 477.623 63.7739 477.21 64.5167L472.104 73.5259C471.849 73.9716 472.167 74.5127 472.676 74.5127Z" fill="#012347"/>
<path d="M516.428 87.9043H528.07C528.769 87.9043 529.415 87.5329 529.754 86.9175L534.977 77.6961C535.231 77.2504 534.914 76.7092 534.405 76.7092H523.017C522.169 76.7092 521.375 77.1655 520.962 77.9083L515.856 86.9175C515.601 87.3526 515.919 87.9043 516.428 87.9043Z" fill="#012347"/>
<path d="M499.404 87.9043H511.046C511.745 87.9043 512.392 87.5329 512.731 86.9175L517.953 77.6961C518.207 77.2504 517.89 76.7092 517.381 76.7092H505.993C505.145 76.7092 504.351 77.1655 503.938 77.9083L498.832 86.9175C498.577 87.3526 498.895 87.9043 499.404 87.9043Z" fill="#012347"/>
<path d="M482.231 87.9043H493.874C494.573 87.9043 495.219 87.5329 495.558 86.9175L500.781 77.6961C501.035 77.2504 500.717 76.7092 500.209 76.7092H488.821C487.973 76.7092 487.179 77.1655 486.765 77.9083L481.659 86.9175C481.405 87.3526 481.723 87.9043 482.231 87.9043Z" fill="#012347"/>
<path d="M465.462 87.9043H477.104C477.803 87.9043 478.45 87.5329 478.789 86.9175L484.011 77.6961C484.266 77.2504 483.948 76.7092 483.439 76.7092H472.051C471.204 76.7092 470.409 77.1655 469.996 77.9083L464.89 86.9175C464.636 87.3526 464.953 87.9043 465.462 87.9043Z" fill="#012347"/>
<path d="M509.224 101.296H520.866C521.566 101.296 522.212 100.925 522.551 100.309L527.774 91.0877C528.028 90.642 527.71 90.1008 527.201 90.1008H515.813C514.966 90.1008 514.171 90.5571 513.758 91.2999L508.652 100.309C508.398 100.744 508.716 101.296 509.224 101.296Z" fill="#012347"/>
<path d="M492.189 101.296H503.832C504.531 101.296 505.177 100.925 505.516 100.309L510.739 91.0879C510.993 90.6423 510.675 90.1011 510.167 90.1011H498.779C497.931 90.1011 497.137 90.5574 496.723 91.3002L491.617 100.309C491.363 100.744 491.681 101.296 492.189 101.296Z" fill="#012347"/>
<path d="M475.017 101.296H486.659C487.359 101.296 488.005 100.925 488.344 100.309L493.566 91.0879C493.821 90.6423 493.503 90.1011 492.994 90.1011H481.606C480.759 90.1011 479.964 90.5574 479.551 91.3002L474.445 100.309C474.191 100.744 474.509 101.296 475.017 101.296Z" fill="#012347"/>
<path d="M458.247 101.296H469.89C470.589 101.296 471.235 100.925 471.574 100.309L476.797 91.0879C477.051 90.6423 476.733 90.1011 476.225 90.1011H464.837C463.989 90.1011 463.195 90.5574 462.782 91.3002L457.675 100.309C457.421 100.744 457.739 101.296 458.247 101.296Z" fill="#012347"/>
<path d="M502.01 114.688H513.652C514.351 114.688 514.998 114.316 515.337 113.701L520.559 104.48C520.813 104.034 520.496 103.493 519.987 103.493H508.599C507.751 103.493 506.957 103.949 506.544 104.692L501.438 113.701C501.183 114.136 501.501 114.688 502.01 114.688Z" fill="#012347"/>
<path d="M484.975 114.688H496.617C497.317 114.688 497.963 114.316 498.302 113.701L503.524 104.479C503.779 104.034 503.461 103.492 502.952 103.492H491.564C490.717 103.492 489.922 103.949 489.509 104.692L484.403 113.701C484.149 114.136 484.467 114.688 484.975 114.688Z" fill="#012347"/>
<path d="M467.814 114.688H479.456C480.155 114.688 480.802 114.316 481.141 113.701L486.363 104.479C486.617 104.034 486.3 103.492 485.791 103.492H474.392C473.545 103.492 472.75 103.949 472.337 104.692L467.231 113.701C466.987 114.136 467.305 114.688 467.814 114.688Z" fill="#012347"/>
<path d="M451.043 114.688H462.686C463.385 114.688 464.031 114.316 464.37 113.701L469.593 104.48C469.847 104.034 469.529 103.493 469.021 103.493H457.633C456.785 103.493 455.991 103.949 455.577 104.692L450.471 113.701C450.217 114.136 450.535 114.688 451.043 114.688Z" fill="#012347"/>
<path d="M494.795 128.069H506.438C507.137 128.069 507.783 127.697 508.122 127.082L513.345 117.861C513.599 117.415 513.281 116.874 512.773 116.874H501.385C500.537 116.874 499.743 117.33 499.329 118.073L494.223 127.082C493.969 127.528 494.287 128.069 494.795 128.069Z" fill="#012347"/>
<path d="M477.772 128.069H489.414C490.113 128.069 490.76 127.697 491.099 127.082L496.321 117.861C496.575 117.415 496.258 116.874 495.749 116.874H484.35C483.503 116.874 482.708 117.33 482.295 118.073L477.189 127.082C476.935 127.528 477.263 128.069 477.772 128.069Z" fill="#012347"/>
<path d="M460.6 128.069H472.242C472.941 128.069 473.587 127.697 473.926 127.082L479.149 117.861C479.403 117.415 479.085 116.874 478.577 116.874H467.189C466.341 116.874 465.547 117.33 465.134 118.073L460.027 127.082C459.773 127.528 460.091 128.069 460.6 128.069Z" fill="#012347"/>
<path d="M443.829 128.069H455.471C456.171 128.069 456.817 127.697 457.156 127.082L462.378 117.86C462.633 117.415 462.315 116.874 461.806 116.874H450.418C449.571 116.874 448.776 117.33 448.363 118.073L443.257 127.082C443.003 127.527 443.321 128.069 443.829 128.069Z" fill="#012347"/>
<path d="M487.592 141.461H499.234C499.933 141.461 500.579 141.089 500.918 140.474L506.141 131.252C506.395 130.807 506.078 130.266 505.569 130.266H494.181C493.333 130.266 492.539 130.722 492.126 131.465L487.02 140.474C486.765 140.909 487.083 141.461 487.592 141.461Z" fill="#012347"/>
<path d="M470.557 141.461H482.199C482.899 141.461 483.545 141.089 483.884 140.474L489.107 131.252C489.361 130.807 489.043 130.266 488.534 130.266H477.146C476.299 130.266 475.504 130.722 475.091 131.465L469.985 140.474C469.731 140.909 470.049 141.461 470.557 141.461Z" fill="#012347"/>
<path d="M453.384 141.461H465.027C465.726 141.461 466.372 141.089 466.711 140.474L471.934 131.252C472.188 130.807 471.87 130.266 471.362 130.266H459.973C459.126 130.266 458.331 130.722 457.918 131.465L452.812 140.474C452.558 140.909 452.876 141.461 453.384 141.461Z" fill="#012347"/>
<path d="M436.615 141.461H448.258C448.957 141.461 449.603 141.089 449.942 140.474L455.165 131.252C455.419 130.807 455.101 130.266 454.593 130.266H443.204C442.357 130.266 441.562 130.722 441.149 131.465L436.043 140.474C435.789 140.909 436.107 141.461 436.615 141.461Z" fill="#012347"/>
<path d="M480.377 154.852H492.02C492.719 154.852 493.365 154.481 493.704 153.865L498.927 144.644C499.181 144.198 498.863 143.657 498.355 143.657H486.967C486.119 143.657 485.325 144.114 484.911 144.856L479.805 153.865C479.551 154.301 479.869 154.852 480.377 154.852Z" fill="#012347"/>
<path d="M463.343 154.852H474.985C475.684 154.852 476.33 154.481 476.669 153.865L481.892 144.644C482.146 144.198 481.829 143.657 481.32 143.657H469.932C469.084 143.657 468.29 144.114 467.877 144.856L462.771 153.865C462.516 154.301 462.834 154.852 463.343 154.852Z" fill="#012347"/>
<path d="M446.182 154.852H457.824C458.523 154.852 459.169 154.481 459.508 153.865L464.731 144.644C464.985 144.198 464.667 143.657 464.159 143.657H452.771C451.923 143.657 451.129 144.114 450.716 144.856L445.61 153.865C445.355 154.301 445.673 154.852 446.182 154.852Z" fill="#012347"/>
<path d="M429.411 154.852H441.053C441.753 154.852 442.399 154.481 442.738 153.865L447.961 144.644C448.215 144.198 447.897 143.657 447.388 143.657H436C435.153 143.657 434.358 144.114 433.945 144.856L428.839 153.865C428.585 154.301 428.903 154.852 429.411 154.852Z" fill="#012347"/>
<path d="M420.481 322.928H407.959L409.262 107.557H419.083L420.481 322.928Z" fill="#D1D1D1"/>
<path d="M467.135 47.6019H478.778C479.477 47.6019 480.123 47.2305 480.462 46.615L485.685 37.3936C485.939 36.9479 485.621 36.4067 485.113 36.4067H473.724C472.877 36.4067 472.082 36.863 471.669 37.6058L466.563 46.615C466.309 47.0501 466.627 47.6019 467.135 47.6019Z" fill="#012347"/>
<path d="M449.741 47.6019H461.383C462.082 47.6019 462.728 47.2305 463.067 46.615L468.29 37.3936C468.544 36.9479 468.227 36.4067 467.718 36.4067H456.33C455.482 36.4067 454.688 36.863 454.275 37.6058L449.169 46.615C448.904 47.0501 449.232 47.6019 449.741 47.6019Z" fill="#012347"/>
<path d="M433.067 47.6019H444.709C445.408 47.6019 446.054 47.2305 446.393 46.615L451.616 37.3936C451.87 36.9479 451.553 36.4067 451.044 36.4067H439.645C438.798 36.4067 438.003 36.863 437.59 37.6058L432.484 46.615C432.23 47.0501 432.558 47.6019 433.067 47.6019Z" fill="#012347"/>
<path d="M416.455 47.6019H428.098C428.797 47.6019 429.443 47.2305 429.782 46.615L435.005 37.3936C435.259 36.9479 434.941 36.4067 434.433 36.4067H423.045C422.197 36.4067 421.403 36.863 420.99 37.6058L415.883 46.615C415.629 47.0501 415.947 47.6019 416.455 47.6019Z" fill="#012347"/>
<path d="M460.567 61.1316H472.21C472.909 61.1316 473.555 60.7602 473.894 60.1448L479.117 50.9234C479.371 50.4777 479.053 49.9365 478.545 49.9365H467.157C466.309 49.9365 465.515 50.3928 465.101 51.1356L459.995 60.1448C459.741 60.5798 460.059 61.1316 460.567 61.1316Z" fill="#012347"/>
<path d="M443.533 61.1314H455.175C455.874 61.1314 456.52 60.76 456.859 60.1445L462.082 50.9231C462.336 50.4775 462.019 49.9363 461.51 49.9363H450.122C449.274 49.9363 448.48 50.3926 448.067 51.1354L442.961 60.1445C442.706 60.5796 443.024 61.1314 443.533 61.1314Z" fill="#012347"/>
<path d="M426.371 61.1314H438.013C438.712 61.1314 439.358 60.76 439.697 60.1445L444.92 50.9231C445.174 50.4775 444.856 49.9363 444.348 49.9363H432.96C432.112 49.9363 431.318 50.3926 430.905 51.1354L425.798 60.1445C425.544 60.5796 425.862 61.1314 426.371 61.1314Z" fill="#012347"/>
<path d="M409.601 61.1314H421.243C421.943 61.1314 422.589 60.76 422.928 60.1445L428.15 50.9231C428.405 50.4775 428.087 49.9363 427.578 49.9363H416.19C415.343 49.9363 414.548 50.3926 414.135 51.1354L409.029 60.1445C408.775 60.5796 409.092 61.1314 409.601 61.1314Z" fill="#012347"/>
<path d="M453.353 74.5127H464.996C465.695 74.5127 466.341 74.1413 466.68 73.5259L471.903 64.3045C472.157 63.8588 471.839 63.3176 471.331 63.3176H459.943C459.095 63.3176 458.301 63.7739 457.888 64.5167L452.781 73.5259C452.527 73.9716 452.845 74.5127 453.353 74.5127Z" fill="#012347"/>
<path d="M436.329 74.5127H447.971C448.67 74.5127 449.316 74.1413 449.655 73.5259L454.878 64.3045C455.132 63.8588 454.814 63.3176 454.306 63.3176H442.918C442.07 63.3176 441.276 63.7739 440.863 64.5167L435.756 73.5259C435.502 73.9716 435.82 74.5127 436.329 74.5127Z" fill="#012347"/>
<path d="M419.156 74.5127H430.799C431.498 74.5127 432.144 74.1413 432.483 73.5259L437.706 64.3045C437.96 63.8588 437.642 63.3176 437.134 63.3176H425.745C424.898 63.3176 424.103 63.7739 423.69 64.5167L418.584 73.5259C418.33 73.9716 418.648 74.5127 419.156 74.5127Z" fill="#012347"/>
<path d="M402.387 74.5127H414.029C414.728 74.5127 415.374 74.1413 415.713 73.5259L420.936 64.3045C421.19 63.8588 420.873 63.3176 420.364 63.3176H408.976C408.128 63.3176 407.334 63.7739 406.921 64.5167L401.815 73.5259C401.56 73.9716 401.878 74.5127 402.387 74.5127Z" fill="#012347"/>
<path d="M446.149 87.9043H457.791C458.49 87.9043 459.137 87.5329 459.476 86.9175L464.698 77.6961C464.953 77.2504 464.635 76.7092 464.126 76.7092H452.738C451.891 76.7092 451.096 77.1655 450.683 77.9083L445.577 86.9175C445.323 87.3526 445.64 87.9043 446.149 87.9043Z" fill="#012347"/>
<path d="M429.115 87.9043H440.757C441.456 87.9043 442.102 87.5329 442.441 86.9175L447.664 77.6961C447.918 77.2504 447.601 76.7092 447.092 76.7092H435.704C434.856 76.7092 434.062 77.1655 433.649 77.9083L428.543 86.9175C428.288 87.3526 428.606 87.9043 429.115 87.9043Z" fill="#012347"/>
<path d="M411.943 87.9043H423.585C424.284 87.9043 424.931 87.5329 425.27 86.9175L430.492 77.6961C430.747 77.2504 430.429 76.7092 429.92 76.7092H418.532C417.685 76.7092 416.89 77.1655 416.477 77.9083L411.371 86.9175C411.116 87.3526 411.434 87.9043 411.943 87.9043Z" fill="#012347"/>
<path d="M395.173 87.9043H406.815C407.514 87.9043 408.161 87.5329 408.5 86.9175L413.722 77.6961C413.977 77.2504 413.659 76.7092 413.15 76.7092H401.762C400.915 76.7092 400.12 77.1655 399.707 77.9083L394.601 86.9175C394.347 87.3526 394.675 87.9043 395.173 87.9043Z" fill="#012347"/>
<path d="M438.935 101.296H450.577C451.277 101.296 451.923 100.925 452.262 100.309L457.484 91.0879C457.739 90.6423 457.421 90.1011 456.912 90.1011H445.524C444.677 90.1011 443.882 90.5574 443.469 91.3002L438.363 100.309C438.109 100.744 438.426 101.296 438.935 101.296Z" fill="#012347"/>
<path d="M421.9 101.296H433.543C434.242 101.296 434.888 100.925 435.227 100.309L440.45 91.0877C440.704 90.642 440.386 90.1008 439.878 90.1008H428.49C427.642 90.1008 426.848 90.5571 426.434 91.2999L421.328 100.309C421.074 100.744 421.392 101.296 421.9 101.296Z" fill="#012347"/>
<path d="M404.739 101.296H416.382C417.081 101.296 417.727 100.925 418.066 100.309L423.289 91.0877C423.543 90.642 423.225 90.1008 422.717 90.1008H411.328C410.481 90.1008 409.686 90.5571 409.273 91.2999L404.167 100.309C403.913 100.744 404.231 101.296 404.739 101.296Z" fill="#012347"/>
<path d="M387.969 101.296H399.601C400.3 101.296 400.947 100.925 401.286 100.309L406.508 91.0877C406.763 90.642 406.445 90.1008 405.936 90.1008H394.548C393.701 90.1008 392.906 90.5571 392.493 91.2999L387.387 100.309C387.143 100.744 387.461 101.296 387.969 101.296Z" fill="#012347"/>
<path d="M431.721 114.688H443.363C444.062 114.688 444.708 114.316 445.047 113.701L450.27 104.48C450.524 104.034 450.207 103.493 449.698 103.493H438.31C437.462 103.493 436.668 103.949 436.255 104.692L431.149 113.701C430.894 114.136 431.212 114.688 431.721 114.688Z" fill="#012347"/>
<path d="M414.697 114.688H426.339C427.038 114.688 427.685 114.316 428.024 113.701L433.246 104.479C433.5 104.034 433.183 103.492 432.674 103.492H421.286C420.438 103.492 419.644 103.949 419.231 104.692L414.125 113.701C413.86 114.136 414.188 114.688 414.697 114.688Z" fill="#012347"/>
<path d="M397.525 114.688H409.167C409.866 114.688 410.513 114.316 410.852 113.701L416.074 104.48C416.329 104.034 416.011 103.493 415.502 103.493H404.114C403.267 103.493 402.472 103.949 402.059 104.692L396.953 113.701C396.699 114.136 397.016 114.688 397.525 114.688Z" fill="#012347"/>
<path d="M380.754 114.688H392.397C393.096 114.688 393.742 114.316 394.081 113.701L399.304 104.479C399.558 104.034 399.24 103.492 398.732 103.492H387.344C386.496 103.492 385.702 103.949 385.288 104.692L380.182 113.701C379.928 114.136 380.246 114.688 380.754 114.688Z" fill="#012347"/>
<path d="M424.517 128.069H436.149C436.848 128.069 437.495 127.697 437.833 127.082L443.056 117.86C443.31 117.415 442.993 116.874 442.484 116.874H431.096C430.248 116.874 429.454 117.33 429.041 118.073L423.935 127.082C423.691 127.527 424.009 128.069 424.517 128.069Z" fill="#012347"/>
<path d="M407.482 128.069H419.125C419.824 128.069 420.47 127.697 420.809 127.082L426.032 117.861C426.286 117.415 425.968 116.874 425.46 116.874H414.072C413.224 116.874 412.43 117.33 412.016 118.073L406.91 127.082C406.656 127.528 406.974 128.069 407.482 128.069Z" fill="#012347"/>
<path d="M390.311 128.069H401.953C402.653 128.069 403.299 127.697 403.638 127.082L408.86 117.86C409.115 117.415 408.797 116.874 408.288 116.874H396.9C396.053 116.874 395.258 117.33 394.845 118.073L389.739 127.082C389.485 127.527 389.802 128.069 390.311 128.069Z" fill="#012347"/>
<path d="M373.54 128.069H385.183C385.882 128.069 386.528 127.697 386.867 127.082L392.09 117.861C392.344 117.415 392.026 116.874 391.518 116.874H380.13C379.282 116.874 378.488 117.33 378.075 118.073L372.968 127.082C372.714 127.528 373.032 128.069 373.54 128.069Z" fill="#012347"/>
<path d="M417.303 141.46H428.945C429.644 141.46 430.29 141.089 430.629 140.474L435.852 131.252C436.106 130.807 435.789 130.265 435.28 130.265H423.892C423.044 130.265 422.25 130.722 421.837 131.464L416.731 140.474C416.476 140.909 416.794 141.46 417.303 141.46Z" fill="#012347"/>
<path d="M400.268 141.46H411.91C412.61 141.46 413.256 141.089 413.595 140.474L418.817 131.252C419.072 130.807 418.754 130.265 418.245 130.265H406.857C406.01 130.265 405.215 130.722 404.802 131.464L399.696 140.474C399.442 140.909 399.76 141.46 400.268 141.46Z" fill="#012347"/>
<path d="M383.106 141.46H394.749C395.448 141.46 396.094 141.089 396.433 140.474L401.656 131.252C401.91 130.807 401.592 130.265 401.084 130.265H389.696C388.848 130.265 388.054 130.722 387.64 131.464L382.534 140.474C382.28 140.909 382.598 141.46 383.106 141.46Z" fill="#012347"/>
<path d="M366.337 141.46H377.979C378.678 141.46 379.325 141.089 379.664 140.474L384.886 131.252C385.141 130.807 384.823 130.265 384.314 130.265H372.926C372.079 130.265 371.284 130.722 370.871 131.464L365.765 140.474C365.511 140.909 365.828 141.46 366.337 141.46Z" fill="#012347"/>
<path d="M410.088 154.852H421.731C422.43 154.852 423.076 154.481 423.415 153.865L428.638 144.644C428.892 144.198 428.574 143.657 428.066 143.657H416.678C415.83 143.657 415.036 144.113 414.622 144.856L409.516 153.865C409.262 154.3 409.58 154.852 410.088 154.852Z" fill="#012347"/>
<path d="M393.065 154.852H404.707C405.406 154.852 406.053 154.481 406.392 153.865L411.614 144.644C411.869 144.198 411.551 143.657 411.042 143.657H399.654C398.807 143.657 398.012 144.113 397.599 144.856L392.493 153.865C392.228 154.3 392.556 154.852 393.065 154.852Z" fill="#012347"/>
<path d="M375.892 154.852H387.535C388.234 154.852 388.88 154.481 389.219 153.865L394.442 144.644C394.696 144.198 394.378 143.657 393.87 143.657H382.482C381.634 143.657 380.84 144.113 380.427 144.856L375.32 153.865C375.066 154.3 375.384 154.852 375.892 154.852Z" fill="#012347"/>
<path d="M359.122 154.852H370.765C371.464 154.852 372.11 154.481 372.449 153.865L377.672 144.644C377.926 144.198 377.608 143.657 377.1 143.657H365.712C364.864 143.657 364.07 144.113 363.657 144.856L358.55 153.865C358.296 154.3 358.614 154.852 359.122 154.852Z" fill="#012347"/>
<path d="M398.001 47.6019H409.643C410.342 47.6019 410.989 47.2305 411.328 46.615L416.55 37.3936C416.805 36.9479 416.487 36.4067 415.978 36.4067H404.59C403.743 36.4067 402.948 36.863 402.535 37.6058L397.429 46.615C397.175 47.0501 397.492 47.6019 398.001 47.6019Z" fill="#012347"/>
<path d="M380.596 47.6019H392.238C392.937 47.6019 393.583 47.2305 393.922 46.615L399.145 37.3936C399.399 36.9479 399.082 36.4067 398.573 36.4067H387.185C386.337 36.4067 385.543 36.863 385.13 37.6058L380.024 46.615C379.769 47.0501 380.087 47.6019 380.596 47.6019Z" fill="#012347"/>
<path d="M363.921 47.6019H375.564C376.263 47.6019 376.909 47.2305 377.248 46.615L382.471 37.3936C382.725 36.9479 382.407 36.4067 381.899 36.4067H370.511C369.663 36.4067 368.869 36.863 368.455 37.6058L363.349 46.615C363.095 47.0501 363.413 47.6019 363.921 47.6019Z" fill="#012347"/>
<path d="M347.321 47.6019H358.964C359.663 47.6019 360.309 47.2305 360.648 46.615L365.871 37.3936C366.125 36.9479 365.807 36.4067 365.299 36.4067H353.91C353.063 36.4067 352.268 36.863 351.855 37.6058L346.749 46.615C346.495 47.0501 346.813 47.6019 347.321 47.6019Z" fill="#012347"/>
<path d="M391.433 61.1316H403.075C403.775 61.1316 404.421 60.7602 404.76 60.1448L409.982 50.9234C410.237 50.4777 409.919 49.9365 409.41 49.9365H398.022C397.175 49.9365 396.38 50.3928 395.967 51.1356L390.861 60.1448C390.607 60.5798 390.925 61.1316 391.433 61.1316Z" fill="#012347"/>
<path d="M374.399 61.1316H386.041C386.74 61.1316 387.387 60.7602 387.726 60.1448L392.948 50.9234C393.203 50.4777 392.885 49.9365 392.376 49.9365H380.988C380.141 49.9365 379.346 50.3928 378.933 51.1356L373.827 60.1448C373.573 60.5798 373.89 61.1316 374.399 61.1316Z" fill="#012347"/>
<path d="M357.236 61.1314H368.879C369.578 61.1314 370.224 60.76 370.563 60.1445L375.786 50.9231C376.04 50.4775 375.722 49.9363 375.214 49.9363H363.826C362.978 49.9363 362.183 50.3926 361.77 51.1354L356.664 60.1445C356.41 60.5796 356.728 61.1314 357.236 61.1314Z" fill="#012347"/>
<path d="M340.467 61.1314H352.109C352.808 61.1314 353.455 60.76 353.794 60.1445L359.016 50.9231C359.27 50.4775 358.953 49.9363 358.444 49.9363H347.056C346.208 49.9363 345.414 50.3926 345.001 51.1354L339.895 60.1445C339.64 60.5796 339.958 61.1314 340.467 61.1314Z" fill="#012347"/>
<path d="M384.219 74.5127H395.861C396.56 74.5127 397.206 74.1413 397.545 73.5259L402.768 64.3045C403.022 63.8588 402.705 63.3176 402.196 63.3176H390.808C389.96 63.3176 389.166 63.7739 388.753 64.5167L383.647 73.5259C383.392 73.9716 383.71 74.5127 384.219 74.5127Z" fill="#012347"/>
<path d="M367.185 74.5127H378.827C379.527 74.5127 380.173 74.1413 380.512 73.5259L385.735 64.3045C385.989 63.8588 385.671 63.3176 385.162 63.3176H373.774C372.927 63.3176 372.132 63.7739 371.719 64.5167L366.613 73.5259C366.359 73.9716 366.687 74.5127 367.185 74.5127Z" fill="#012347"/>
<path d="M350.022 74.5127H361.664C362.363 74.5127 363.01 74.1413 363.349 73.5259L368.571 64.3045C368.826 63.8588 368.508 63.3176 367.999 63.3176H356.611C355.764 63.3176 354.969 63.7739 354.556 64.5167L349.45 73.5259C349.196 73.9716 349.513 74.5127 350.022 74.5127Z" fill="#012347"/>
<path d="M333.253 74.5127H344.895C345.594 74.5127 346.241 74.1413 346.58 73.5259L351.802 64.3045C352.057 63.8588 351.739 63.3176 351.23 63.3176H339.842C338.995 63.3176 338.2 63.7739 337.787 64.5167L332.681 73.5259C332.427 73.9716 332.744 74.5127 333.253 74.5127Z" fill="#012347"/>
<path d="M377.015 87.9043H388.657C389.357 87.9043 390.003 87.5329 390.342 86.9175L395.565 77.6961C395.819 77.2504 395.501 76.7092 394.992 76.7092H383.604C382.757 76.7092 381.962 77.1655 381.549 77.9083L376.443 86.9175C376.189 87.3526 376.507 87.9043 377.015 87.9043Z" fill="#012347"/>
<path d="M359.98 87.9043H371.623C372.322 87.9043 372.968 87.5329 373.307 86.9175L378.53 77.6961C378.784 77.2504 378.466 76.7092 377.958 76.7092H366.57C365.722 76.7092 364.928 77.1655 364.514 77.9083L359.408 86.9175C359.154 87.3526 359.472 87.9043 359.98 87.9043Z" fill="#012347"/>
<path d="M342.808 87.9043H354.45C355.15 87.9043 355.796 87.5329 356.135 86.9175L361.357 77.6961C361.612 77.2504 361.294 76.7092 360.785 76.7092H349.397C348.55 76.7092 347.755 77.1655 347.342 77.9083L342.236 86.9175C341.982 87.3526 342.3 87.9043 342.808 87.9043Z" fill="#012347"/>
<path d="M326.039 87.9043H337.681C338.38 87.9043 339.026 87.5329 339.365 86.9175L344.588 77.6961C344.842 77.2504 344.524 76.7092 344.016 76.7092H332.628C331.78 76.7092 330.986 77.1655 330.573 77.9083L325.466 86.9175C325.212 87.3526 325.53 87.9043 326.039 87.9043Z" fill="#012347"/>
<path d="M369.801 101.296H381.444C382.143 101.296 382.789 100.925 383.128 100.309L388.351 91.0879C388.605 90.6423 388.287 90.1011 387.779 90.1011H376.39C375.543 90.1011 374.748 90.5574 374.335 91.3002L369.229 100.309C368.975 100.744 369.293 101.296 369.801 101.296Z" fill="#012347"/>
<path d="M352.766 101.296H364.408C365.108 101.296 365.754 100.925 366.093 100.309L371.316 91.0879C371.57 90.6423 371.252 90.1011 370.743 90.1011H359.355C358.508 90.1011 357.713 90.5574 357.3 91.3002L352.194 100.309C351.94 100.744 352.258 101.296 352.766 101.296Z" fill="#012347"/>
<path d="M335.605 101.296H347.247C347.946 101.296 348.592 100.925 348.931 100.309L354.154 91.0879C354.408 90.6423 354.091 90.1011 353.582 90.1011H342.183C341.336 90.1011 340.541 90.5574 340.128 91.3002L335.022 100.309C334.768 100.744 335.096 101.296 335.605 101.296Z" fill="#012347"/>
<path d="M318.835 101.296H330.477C331.176 101.296 331.823 100.925 332.162 100.309L337.384 91.0879C337.639 90.6423 337.321 90.1011 336.812 90.1011H325.424C324.577 90.1011 323.782 90.5574 323.369 91.3002L318.263 100.309C318.009 100.744 318.326 101.296 318.835 101.296Z" fill="#012347"/>
<path d="M362.587 114.688H374.229C374.928 114.688 375.575 114.316 375.914 113.701L381.136 104.479C381.391 104.034 381.073 103.492 380.564 103.492H369.176C368.329 103.492 367.534 103.949 367.121 104.692L362.015 113.701C361.761 114.136 362.078 114.688 362.587 114.688Z" fill="#012347"/>
<path d="M345.552 114.688H357.194C357.893 114.688 358.54 114.316 358.878 113.701L364.101 104.479C364.355 104.034 364.038 103.492 363.529 103.492H352.141C351.293 103.492 350.499 103.949 350.086 104.692L344.98 113.701C344.725 114.136 345.043 114.688 345.552 114.688Z" fill="#012347"/>
<path d="M328.39 114.688H340.032C340.732 114.688 341.378 114.316 341.717 113.701L346.94 104.48C347.194 104.034 346.876 103.493 346.367 103.493H334.979C334.132 103.493 333.337 103.949 332.924 104.692L327.818 113.701C327.564 114.136 327.882 114.688 328.39 114.688Z" fill="#012347"/>
<path d="M311.62 114.688H323.262C323.962 114.688 324.608 114.316 324.947 113.701L330.17 104.48C330.424 104.034 330.106 103.493 329.597 103.493H318.209C317.362 103.493 316.567 103.949 316.154 104.692L311.048 113.701C310.794 114.136 311.112 114.688 311.62 114.688Z" fill="#012347"/>
<path d="M355.383 128.069H367.025C367.724 128.069 368.371 127.697 368.71 127.082L373.932 117.861C374.186 117.415 373.869 116.874 373.36 116.874H361.972C361.125 116.874 360.33 117.33 359.917 118.073L354.811 127.082C354.546 127.528 354.874 128.069 355.383 128.069Z" fill="#012347"/>
<path d="M338.349 128.069H349.991C350.69 128.069 351.336 127.697 351.675 127.082L356.898 117.861C357.152 117.415 356.834 116.874 356.326 116.874H344.938C344.09 116.874 343.296 117.33 342.883 118.073L337.776 127.082C337.522 127.528 337.84 128.069 338.349 128.069Z" fill="#012347"/>
<path d="M321.176 128.069H332.819C333.518 128.069 334.164 127.697 334.503 127.082L339.726 117.861C339.98 117.415 339.662 116.874 339.154 116.874H327.765C326.918 116.874 326.123 117.33 325.71 118.073L320.604 127.082C320.35 127.528 320.668 128.069 321.176 128.069Z" fill="#012347"/>
<path d="M304.406 128.069H316.049C316.748 128.069 317.394 127.697 317.733 127.082L322.956 117.861C323.21 117.415 322.892 116.874 322.384 116.874H310.995C310.148 116.874 309.353 117.33 308.94 118.073L303.834 127.082C303.58 127.528 303.898 128.069 304.406 128.069Z" fill="#012347"/>
<path d="M348.169 141.46H359.811C360.51 141.46 361.157 141.089 361.496 140.474L366.718 131.252C366.973 130.807 366.655 130.265 366.146 130.265H354.758C353.911 130.265 353.116 130.722 352.703 131.464L347.597 140.474C347.343 140.909 347.66 141.46 348.169 141.46Z" fill="#012347"/>
<path d="M331.134 141.46H342.777C343.476 141.46 344.122 141.089 344.461 140.474L349.684 131.252C349.938 130.807 349.62 130.265 349.112 130.265H337.723C336.876 130.265 336.081 130.722 335.668 131.464L330.562 140.474C330.308 140.909 330.626 141.46 331.134 141.46Z" fill="#012347"/>
<path d="M313.962 141.46H325.604C326.304 141.46 326.95 141.089 327.289 140.474L332.511 131.252C332.766 130.807 332.448 130.265 331.939 130.265H320.551C319.704 130.265 318.909 130.722 318.496 131.464L313.39 140.474C313.136 140.909 313.464 141.46 313.962 141.46Z" fill="#012347"/>
<path d="M297.203 141.46H308.845C309.544 141.46 310.19 141.089 310.529 140.474L315.752 131.252C316.006 130.807 315.689 130.265 315.18 130.265H303.792C302.944 130.265 302.15 130.722 301.737 131.464L296.631 140.474C296.366 140.909 296.694 141.46 297.203 141.46Z" fill="#012347"/>
<path d="M340.954 154.852H352.597C353.296 154.852 353.942 154.481 354.281 153.865L359.504 144.644C359.758 144.198 359.44 143.657 358.932 143.657H347.544C346.696 143.657 345.902 144.113 345.489 144.856L340.382 153.865C340.128 154.3 340.446 154.852 340.954 154.852Z" fill="#012347"/>
<path d="M323.92 154.852H335.562C336.261 154.852 336.908 154.481 337.247 153.865L342.469 144.644C342.724 144.198 342.406 143.657 341.897 143.657H330.509C329.662 143.657 328.867 144.114 328.454 144.856L323.348 153.865C323.094 154.301 323.411 154.852 323.92 154.852Z" fill="#012347"/>
<path d="M306.758 154.852H318.401C319.1 154.852 319.746 154.481 320.085 153.865L325.308 144.644C325.562 144.198 325.244 143.657 324.736 143.657H313.347C312.5 143.657 311.705 144.113 311.292 144.856L306.186 153.865C305.932 154.3 306.25 154.852 306.758 154.852Z" fill="#012347"/>
<path d="M289.988 154.852H301.631C302.33 154.852 302.976 154.481 303.315 153.865L308.538 144.644C308.792 144.198 308.474 143.657 307.966 143.657H296.577C295.73 143.657 294.935 144.113 294.522 144.856L289.416 153.865C289.162 154.3 289.48 154.852 289.988 154.852Z" fill="#012347"/>
<g opacity="0.3">
<path d="M536.757 74.5129L334.408 154.842H288.453C287.616 154.842 287.393 153.696 288.156 153.377L554.078 41.9993L536.757 74.5129Z" fill="white"/>
</g>
<g opacity="0.3">
<path d="M519.362 36.4067L299.597 132.43L312.151 110.666L493.334 36.4067H521.322" fill="white"/>
</g>
<path d="M502.974 166.557L499.118 158.874L279.045 157.197L283.495 164.838L502.974 166.557Z" fill="#AAAAAA"/>
<path d="M79.5733 306.38H90.4106V294.612H79.5733V306.38Z" fill="white"/>
<path d="M109.24 294.616H98.4023V306.384H109.24V294.616Z" fill="white"/>
<path d="M124.378 164.657C123.308 199.76 116.104 300.527 116.104 300.527H97.7244L97.1523 183.96L97.0994 171.279L92.8937 230.65L90.5313 301.694L87.671 302.055L73.1683 303.912L65.7422 174.834L66.6744 155.648L71.4098 142.469L119.357 143.392C119.367 143.403 124.653 155.563 124.378 164.657Z" fill="#333333"/>
<g opacity="0.3">
<path d="M65.9751 160.773C65.9645 160.922 95.1182 159.224 95.1182 159.224L99.2497 150.958L102.555 159.224H124.23L122.418 152.613L99.5146 139.784L79.8846 147.541L66.2293 155.139L65.9751 160.773Z" fill="black"/>
</g>
<path d="M122.514 148.539L125.077 157.558H101.729L98.0318 145.557L92.9575 157.526L66.2085 158.492L71.749 120.736L72.2045 116.513L71.0181 111.77L67.4268 97.3594L62.1724 76.2743L77.7662 69.101L81.6541 65.4506L97.4492 64.1772L101.242 69.101L114.473 73.1333L113.371 112.661L122.514 148.539Z" fill="#8E599B"/>
<path d="M83.4865 66.0979L81.1665 69.8649L97.7244 105.339L100.256 88.1485L99.6418 70.8306L97.4277 65.302L83.4865 66.0979Z" fill="#F5F6F6"/>
<g opacity="0.3">
<path d="M112.492 132.239C112.195 131.804 111.592 131.719 111.072 131.677C104.017 131.114 96.9193 130.541 89.864 131.114C82.8086 131.687 75.7214 133.449 69.736 137.227L66.6851 139.402C73.1366 141.588 80.2449 142.989 86.9613 141.896C87.7876 141.758 88.6775 141.556 89.186 140.909C89.7686 140.177 89.6733 139.115 90.0017 138.245C90.4784 136.972 91.8132 136.176 93.148 135.932C94.4828 135.688 95.86 135.889 97.2159 136.006C101.803 136.409 106.464 135.879 110.839 134.457C111.348 134.287 111.878 134.107 112.248 133.714C112.63 133.332 112.799 132.685 112.492 132.239Z" fill="black"/>
</g>
<g opacity="0.39">
<path d="M99.0587 70.0241C99.1435 70.0559 99.1435 72.9847 98.4125 75.4041C98.3701 75.5421 98.3278 75.68 98.296 75.8074L97.7133 76.8367L97.1201 76.0302C96.2726 75.2662 95.8065 73.5683 95.2344 73.0802C94.6518 72.6133 94.3234 72.2843 94.3551 72.2525C94.3869 72.2207 94.7577 72.4754 95.3721 72.8998C95.976 73.3349 96.8552 73.8867 97.7345 74.6825L97.4591 74.7568C97.5015 74.6295 97.5332 74.4915 97.5756 74.3536C98.3066 71.9448 98.974 70.0029 99.0587 70.0241Z" fill="black"/>
</g>
<g opacity="0.3">
<path d="M82.9038 73.5894C82.9038 73.5894 88.3277 80.2746 88.4866 80.211L90.4676 74.5126L88.2853 78.6299L81.9609 71.6899L82.9038 73.5894Z" fill="black"/>
</g>
<path opacity="0.19" d="M69.0259 100.5L72.204 116.513L68.7505 102.665L69.0259 100.5Z" fill="black"/>
<path d="M110.002 313.229C113.138 314.799 115.479 317.824 122.196 316.922C125.395 316.497 127.906 315.892 129.654 315.372C129.59 314.651 129.526 313.844 129.463 312.995C129.24 310.088 122.079 308.963 119.844 307.392C117.609 305.822 113.583 298.426 113.583 298.426L107.545 298.871C107.545 298.871 104.864 303.127 101.506 304.474C98.1481 305.822 98.4024 300.527 98.4024 300.527C98.4024 300.527 97.9256 306.713 96.8027 309.419C96.6014 309.907 96.5061 310.396 96.4531 310.873C98.0528 311.414 100.246 311.977 102.619 312.093C107.312 312.327 106.867 311.658 110.002 313.229Z" fill="#333333"/>
<path d="M122.185 316.921C115.479 317.813 113.128 314.789 109.992 313.229C106.856 311.658 107.312 312.337 102.608 312.104C100.235 311.987 98.0422 311.425 96.4426 310.884C96.2095 313.07 97.2371 315.011 97.2371 315.011C97.2371 315.011 104.176 316.136 107.524 316.136C110.882 316.136 112.217 319.5 118.032 319.723C123.848 319.946 129.887 318.375 129.887 318.375C129.887 318.375 129.77 317.123 129.632 315.372C127.895 315.892 125.395 316.497 122.185 316.921Z" fill="#8E599B"/>
<path opacity="0.35" d="M90.9655 230.098L97.0992 171.279L92.8936 230.65L90.5312 301.694L87.6709 302.065L90.9655 230.098Z" fill="black"/>
<path d="M97.1521 183.96L97.0991 171.279C97.364 172.043 97.3534 176.723 97.1521 183.96Z" fill="black"/>
<path d="M78.804 313.228C75.6683 314.799 73.3271 317.823 66.6108 316.921C63.4115 316.497 60.9008 315.892 59.1528 315.372C59.2164 314.65 59.28 313.844 59.3435 312.995C59.566 310.087 66.7273 308.962 68.9625 307.392C71.1978 305.821 75.2234 298.425 75.2234 298.425L81.2618 298.871C81.2618 298.871 83.942 303.126 87.3001 304.474C90.6583 305.821 90.4041 300.526 90.4041 300.526C90.4041 300.526 90.8808 306.713 92.0037 309.419C92.205 309.907 92.3003 310.395 92.3533 310.873C90.7537 311.414 88.5608 311.976 86.1878 312.093C81.4948 312.326 81.9398 311.658 78.804 313.228Z" fill="#333333"/>
<path d="M66.6215 316.921C73.3273 317.813 75.6791 314.788 78.8148 313.228C81.9505 311.658 81.495 312.337 86.1986 312.104C88.5715 311.987 90.7644 311.424 92.3641 310.883C92.5971 313.069 91.5695 315.011 91.5695 315.011C91.5695 315.011 84.6307 316.136 81.2831 316.136C77.9249 316.136 76.5901 319.5 70.7742 319.723C64.9583 319.946 58.9199 318.375 58.9199 318.375C58.9199 318.375 59.0365 317.123 59.1742 315.372C60.9115 315.892 63.4222 316.497 66.6215 316.921Z" fill="#8E599B"/>
<path d="M106.199 31.632C103.296 27.727 94.5034 31.7912 94.5034 31.7912L99.9168 47.5598L107.745 47.0611C107.745 47.0505 111.114 38.2642 106.199 31.632Z" fill="#1A1C1B"/>
<path d="M97.0353 56.5796L85.1811 56.0491C85.1811 56.0491 86.7383 62.5115 83.0729 68.0082C81.8652 69.8122 84.6196 71.7647 87.2362 73.1123C89.6092 74.3327 92.4059 74.3963 94.8213 73.2821C97.1095 72.221 99.5884 70.9052 99.26 70.226C95.1603 64.0501 97.0353 56.5796 97.0353 56.5796Z" fill="#FD9D81"/>
<path d="M97.0244 56.5796C97.0244 56.5796 96.7277 62.1188 97.7129 67.3928C94.8844 67.467 90.9542 66.6606 85.4137 61.3867C85.6256 58.6277 85.1807 56.0491 85.1807 56.0491L97.0244 56.5796Z" fill="#DF7361"/>
<path d="M104.08 33.4147C99.0267 25.785 83.7612 27.5572 79.0364 35.3248C74.3011 43.0924 80.4878 53.9161 83.9731 57.5346C90.2657 64.0819 101.739 63.9439 105.393 58.4154C109.048 52.8974 109.133 41.0444 104.08 33.4147Z" fill="#FD9D81"/>
<path d="M106.612 38.7631C105.987 36.8637 105.161 35.0385 104.08 33.4149C99.0269 25.7853 83.7615 27.5574 79.0367 35.325C76.8862 38.848 76.9921 43.0077 78.0727 46.8279C79.291 47.3903 80.6258 47.7617 82.0665 48.027C82.0771 48.027 87.8612 42.4559 89.2596 36.3225C89.2596 36.3119 99.5778 39.9941 106.612 38.7631Z" fill="#DF7361"/>
<path d="M75.9645 29.7431C78.6659 26.6764 82.8504 23.8537 87.3845 27.3343C91.0711 30.1676 85.9331 44.8539 84.1322 47.061C81.6427 50.1065 82.6597 57.8954 81.1024 54.5209C77.5006 46.7427 68.2947 39.5057 75.9645 29.7431Z" fill="#252725"/>
<path d="M112.216 32.0565C112.068 28.3637 105.394 22.7396 98.3809 21.2009C88.7407 19.0786 84.196 24.6921 83.8464 27.0691C83.4968 29.4566 83.8146 33.7437 99.3449 36.2268C102.385 36.7149 105.828 36.8104 105.828 36.8104C105.828 36.8104 112.29 33.7543 112.216 32.0565Z" fill="#252725"/>
<path d="M92.1097 20.8826C93.9 20.6173 95.9764 20.6704 98.3917 21.2009C105.394 22.7396 112.058 28.3743 112.216 32.0671C112.227 32.3324 111.877 32.6613 111.613 32.9691C102.661 21.9225 91.3682 22.6229 86.2832 23.6522C87.6498 22.4319 89.4295 21.2752 92.1097 20.8826Z" fill="#474A46"/>
<path d="M83.6873 51.7299C83.2848 49.2999 80.9753 47.6551 78.5388 48.0584C76.0917 48.4616 74.4391 50.7643 74.8416 53.2049C75.2442 55.635 77.5536 57.2797 79.9901 56.8765C82.4373 56.4627 84.0899 54.16 83.6873 51.7299Z" fill="#FD9D81"/>
<path d="M84.3859 45.448C84.3859 45.448 88.2208 50.9129 89.7145 52.9822C91.2082 55.0514 92.3312 53.4703 96.4945 52.0908C100.658 50.7113 106.537 53.4278 106.919 54.3723C107.3 55.3167 106.251 57.8104 103.666 60.3784C101.071 62.9463 92.5007 63.5512 89.2378 61.1106C86.8649 59.3384 87.4369 56.5264 87.1933 55.7093C86.9496 54.8922 82.1719 48.0054 82.5109 46.8063C82.8605 45.6072 84.3859 45.448 84.3859 45.448Z" fill="#252725"/>
<path d="M102.268 55.4016C102.268 55.4016 99.7363 53.8629 97.3527 54.8923C94.9585 55.9216 94.7572 57.7255 95.2128 58.532C95.6683 59.3385 100.192 59.8266 101.05 59.2111C101.897 58.6063 103.677 56.9827 102.268 55.4016Z" fill="#FD9D81"/>
<path d="M97.6501 64.9518C97.6501 64.9518 93.4656 73.6638 93.5186 73.7487C93.5715 73.8442 97.5336 75.3828 97.5336 75.3828C97.5336 75.3828 99.8006 70.6926 99.8006 70.0134C99.79 69.3555 98.1586 64.6016 97.6501 64.9518Z" fill="#F5F6F6"/>
<path d="M83.1262 67.87C83.1262 67.87 92.8088 73.8124 92.7876 73.9185C92.7664 74.0246 87.8722 77.0701 87.8722 77.0701C87.8722 77.0701 81.9079 71.1808 81.6855 70.5441C81.463 69.918 82.5224 67.7214 83.1262 67.87Z" fill="#F5F6F6"/>
<path opacity="0.19" d="M72.2041 116.513L86.2513 121.935H71.5791L72.2041 116.513Z" fill="black"/>
<path d="M127.651 159.468L101.019 160.784L97.8832 148.75L95.1077 160.784H62.9454L65.7845 144.909L67.257 136.696L69.2062 125.787L70.488 118.646L70.3397 116.969L69.3757 106.326C70.0219 82.1103 62.1826 76.274 62.1826 76.274C65.1488 73.6954 67.8608 72.4008 69.8948 71.7428C72.0983 71.0319 73.486 71.0743 73.486 71.0743L97.9362 104.002L101.263 69.1006L103.593 69.1643L111.496 69.3659L116.009 97.4333C116.009 97.4333 116.846 112.862 116.74 114.252C116.729 114.327 116.761 114.518 116.814 114.804C117.068 116.237 117.979 120.152 119.166 125.097C119.801 127.761 120.532 130.732 121.274 133.778C122.132 137.29 123.022 140.909 123.859 144.272C125.935 152.634 127.651 159.468 127.651 159.468Z" fill="#FF9312"/>
<path d="M119.166 125.108C107.926 126.827 86.0076 129.3 69.2061 125.787L70.4879 118.646L70.3396 116.969C79.7891 117.585 99.345 118.221 116.824 114.804C117.068 116.248 117.969 120.153 119.166 125.108Z" fill="#E3E5E5"/>
<path d="M123.859 144.273C114.939 145.843 85.616 150.321 65.7847 144.909L67.2572 136.696C75.3825 137.343 100.627 138.808 121.274 133.778C122.132 137.29 123.022 140.909 123.859 144.273Z" fill="#E3E5E5"/>
<path d="M105.108 106.623C105.108 106.623 102.099 126.647 95.8174 140.643L124.41 142.161L132.747 105.965L105.108 106.623Z" fill="#F5F6F6"/>
<path d="M106.485 106.167C106.485 106.167 98.0738 141.567 97.8726 142.171H125.787L134.124 105.509L106.485 106.167Z" fill="#556F99"/>
<path d="M107.513 106.167C107.513 106.167 99.1012 141.567 98.8999 142.171H126.814L135.151 105.509L107.513 106.167Z" fill="#354C6D"/>
<path d="M103.561 129.257C103.434 129.416 110.68 131.051 111.337 131.634C112.005 132.218 111.613 133.215 111.21 133.237C110.807 133.258 103.18 131.666 102.82 132.218C102.46 132.77 107.1 134.276 108.191 134.839C109.144 135.327 109.632 135.38 109.483 136.049C109.462 136.144 109.42 136.261 109.377 136.388C108.975 137.396 99.6841 134.701 96.8027 135.762C93.9106 136.823 89.0799 136.24 88.4125 136.155C87.7451 136.059 81.8656 135.804 81.8656 135.804C81.7915 135.688 81.8338 134.361 82.3212 131.825C82.8508 129.077 83.4653 126.222 83.6348 126.063C83.7089 125.989 86.9824 126.817 88.0629 126.944C89.4719 127.114 97.184 124.864 97.8091 124.684C98.4447 124.503 104.441 123.835 105.087 123.845C105.733 123.845 110.204 125.32 110.68 125.808C111.146 126.286 111.019 126.848 110.712 126.997C110.405 127.146 107.248 126.509 106.612 126.339C105.828 126.127 102.958 126.201 102.788 126.403C102.619 126.594 107.301 126.7 108.244 126.848C109.176 126.997 112.545 128.175 112.757 128.843C112.969 129.522 111.485 129.777 109.886 129.618C108.286 129.448 103.689 129.109 103.561 129.257Z" fill="#FD9D81"/>
<path d="M62.1722 76.2742C59.8098 77.4414 57.6487 79.1074 55.9432 81.9619C51.3137 89.6871 49.4704 118.041 49.1738 123.527C48.8666 129.363 49.7459 137.375 55.2758 138.532C60.8056 139.688 84.9909 139.911 84.9909 139.911L86.2516 121.925L66.3249 121.681L69.0157 100.49L62.1722 76.2742Z" fill="#8E599B"/>
<path d="M103.572 69.1538L99.8007 111.334L69.8843 71.7324C72.0878 71.0214 73.4755 71.0638 73.4755 71.0638L97.9257 103.991L101.252 69.0901L103.572 69.1538Z" fill="#E3E5E5"/>
</g>
</g>
<defs>
<clipPath id="clip0_206_11377">
<rect width="530" height="320" fill="white" transform="translate(37.2983 20.7227)"/>
</clipPath>
</defs>
</svg>
