<svg width="1229" height="750" viewBox="0 0 1229 750" fill="none" xmlns="http://www.w3.org/2000/svg">
<g style="mix-blend-mode:plus-lighter" opacity="0.4">
<g opacity="0.2">
<path d="M763.077 121.951L760.451 122.461L760.959 125.088L763.585 124.578L763.077 121.951Z" fill="#5BF7FF"/>
<path d="M781.396 114.323L778.77 114.832L779.278 117.459L781.904 116.95L781.396 114.323Z" fill="#5BF7FF"/>
<path d="M789.573 112.711L786.947 113.22L787.455 115.847L790.081 115.338L789.573 112.711Z" fill="#5BF7FF"/>
<path d="M806.144 98.6891L801.363 99.6165L801.872 102.243L806.653 101.316L806.144 98.6891Z" fill="#00ACEC"/>
<path d="M814.252 107.951L811.626 108.46L812.135 111.087L814.761 110.578L814.252 107.951Z" fill="#5BF7FF"/>
<path d="M830.741 104.706L828.115 105.216L828.624 107.843L831.25 107.333L830.741 104.706Z" fill="#5BF7FF"/>
<path d="M786.026 101.179L783.4 101.689L783.909 104.316L786.535 103.806L786.026 101.179Z" fill="#5BF7FF"/>
</g>
<g opacity="0.2">
<path d="M837.752 125.09L835.709 125.339L835.957 127.382L838 127.133L837.752 125.09Z" fill="#5BF7FF"/>
<path d="M851.967 120.318L849.925 120.566L850.173 122.61L852.216 122.361L851.967 120.318Z" fill="#5BF7FF"/>
<path d="M858.308 119.536L856.266 119.785L856.514 121.829L858.556 121.58L858.308 119.536Z" fill="#5BF7FF"/>
<path d="M871.524 109.745L867.847 110.193L868.095 112.237L871.772 111.789L871.524 109.745Z" fill="#00ACEC"/>
<path d="M877.263 117.242L875.22 117.491L875.468 119.534L877.511 119.285L877.263 117.242Z" fill="#5BF7FF"/>
<path d="M889.877 115.693L887.834 115.942L888.083 117.986L890.125 117.737L889.877 115.693Z" fill="#5BF7FF"/>
<path d="M856.191 110.628L854.148 110.877L854.396 112.92L856.439 112.671L856.191 110.628Z" fill="#5BF7FF"/>
</g>
<path d="M424.605 67.8768L1033.55 1159.2" stroke="url(#paint0_linear_674_222)" stroke-width="0.7484" stroke-miterlimit="10"/>
<path d="M533.813 67.911L1094.04 1047.07" stroke="url(#paint1_linear_674_222)" stroke-width="0.7484" stroke-miterlimit="10"/>
<path d="M624.711 67.9418L1143.24 955.791" stroke="url(#paint2_linear_674_222)" stroke-width="0.7484" stroke-miterlimit="10"/>
<path d="M701.617 67.943L1184.03 880.078" stroke="url(#paint3_linear_674_222)" stroke-width="0.7484" stroke-miterlimit="10"/>
<path d="M767.458 67.9612L1218.39 816.306" stroke="url(#paint4_linear_674_222)" stroke-width="0.7484" stroke-miterlimit="10"/>
<path d="M824.535 67.9911L1247.79 761.776" stroke="url(#paint5_linear_674_222)" stroke-width="0.7484" stroke-miterlimit="10"/>
<path d="M874.271 67.6119L1273.17 714.689" stroke="url(#paint6_linear_674_222)" stroke-width="0.7484" stroke-miterlimit="10"/>
<path d="M918.333 67.7001L1295.33 673.572" stroke="url(#paint7_linear_674_222)" stroke-width="0.7484" stroke-miterlimit="10"/>
<path d="M1276.77 576.652L881.333 1159.62" stroke="url(#paint8_linear_674_222)" stroke-width="0.7484" stroke-miterlimit="10"/>
<path d="M1239.25 516.81L807.591 1023.24" stroke="url(#paint9_linear_674_222)" stroke-width="0.7484" stroke-miterlimit="10"/>
<path d="M1202.23 457.912L736.128 891.091" stroke="url(#paint10_linear_674_222)" stroke-width="0.7484" stroke-miterlimit="10"/>
<path d="M1165.83 399.782L666.764 762.823" stroke="url(#paint11_linear_674_222)" stroke-width="0.7484" stroke-miterlimit="10"/>
<path d="M1129.88 342.511L599.52 638.373" stroke="url(#paint12_linear_674_222)" stroke-width="0.7484" stroke-miterlimit="10"/>
<path d="M1094.47 286.053L534.217 517.614" stroke="url(#paint13_linear_674_222)" stroke-width="0.7484" stroke-miterlimit="10"/>
<path d="M1059.53 230.388L470.788 400.31" stroke="url(#paint14_linear_674_222)" stroke-width="0.7484" stroke-miterlimit="10"/>
<path d="M1025.15 175.471L409.185 286.374" stroke="url(#paint15_linear_674_222)" stroke-width="0.7484" stroke-miterlimit="10"/>
<path d="M991.153 121.392L349.341 175.57" stroke="url(#paint16_linear_674_222)" stroke-width="0.7484" stroke-miterlimit="10"/>
<path d="M291.122 67.8568L957.67 67.975L1314.88 637.393L957.444 1300.4L291.122 67.8568Z" stroke="url(#paint17_linear_674_222)" stroke-width="0.7484" stroke-miterlimit="10"/>
<path opacity="0.4" d="M894.515 278.78L850.906 206.848L904.066 197.976L943.989 263.735L894.515 278.78Z" fill="url(#paint18_linear_674_222)"/>
<path opacity="0.4" d="M875.89 301.093L832.281 229.161L885.441 220.289L925.364 286.048L875.89 301.093Z" fill="url(#paint19_linear_674_222)"/>
<path opacity="0.15" d="M1076.77 434.805L1119.94 505.596L1078.78 535.504L1110.07 587.882L1202.54 614.334L1213.19 579.993L1115.85 413.665L1076.77 434.805Z" fill="url(#paint20_linear_674_222)"/>
<path opacity="0.06" d="M1106.65 360.451L1017.92 408.075L1085.7 518.972L1170.11 462.606L1106.65 360.451Z" fill="url(#paint21_linear_674_222)"/>
<path opacity="0.1" d="M1023.21 215.748L985.54 227.699L1023.87 289.803L1060.02 274.867L1023.21 215.748Z" fill="url(#paint22_linear_674_222)"/>
<path d="M882.649 370.288C998.875 321.995 1093.63 284.139 1094.31 285.644C1094.92 287.128 1001.18 327.524 884.976 375.751C768.75 424.044 674 461.9 673.383 460.416C672.701 458.911 766.357 418.561 882.649 370.288Z" fill="url(#paint23_radial_674_222)"/>
<path d="M1069.96 576.447C1162.82 491.451 1239.02 423.561 1240.15 424.774C1241.28 425.987 1166.9 495.878 1074 580.788C981.145 665.785 904.941 733.675 903.809 732.461C902.723 731.334 977.106 661.443 1069.96 576.447Z" fill="url(#paint24_radial_674_222)"/>
<path d="M822.018 295.591C942.997 260.913 1041.45 234.048 1041.89 235.622C1042.34 237.197 944.678 266.607 823.698 301.285C702.719 335.963 604.269 362.829 603.824 361.254C603.358 359.745 701.018 330.334 822.018 295.591Z" fill="url(#paint25_radial_674_222)"/>
<path d="M753.973 221.181C877.812 198.813 978.468 181.971 978.741 183.636C979.035 185.236 878.867 204.672 755.028 227.04C631.189 249.408 530.533 266.251 530.26 264.586C529.966 262.986 630.134 243.549 753.973 221.181Z" fill="url(#paint26_radial_674_222)"/>
<path d="M852.406 316.152C916.901 424.231 968.076 512.518 966.662 513.373C965.248 514.228 911.781 427.313 847.285 319.233C782.79 211.153 731.615 122.866 733.029 122.011C734.443 121.157 787.91 208.072 852.406 316.152Z" fill="url(#paint27_radial_674_222)"/>
<path d="M819.14 394.701C882.307 503.59 932.345 592.53 930.886 593.299C929.472 594.154 877.162 506.52 813.974 397.696C750.872 288.827 700.834 199.887 702.248 199.032C703.641 198.243 756.038 285.832 819.14 394.701Z" fill="url(#paint28_radial_674_222)"/>
<path d="M747.228 434.395C809.967 543.511 859.747 632.587 858.268 633.421C856.854 634.276 804.821 546.441 742.063 437.391C679.325 328.276 629.609 239.22 631.023 238.365C632.482 237.597 684.47 325.346 747.228 434.395Z" fill="url(#paint29_radial_674_222)"/>
<path d="M984.764 424.446C1049.26 532.525 1100.8 620.566 1099.9 621.149C1098.93 621.712 1045.9 534.571 981.401 426.492C916.84 318.391 865.302 230.351 866.201 229.767C867.165 229.204 920.203 316.345 984.764 424.446Z" fill="url(#paint30_radial_674_222)"/>
<path d="M983.341 420.699C1093.36 359.56 1183.13 311.11 1183.99 312.524C1184.75 313.984 1096.28 364.707 986.249 425.912C876.3 487.071 786.457 535.501 785.689 534.041C784.835 532.627 873.393 481.859 983.341 420.699Z" fill="url(#paint31_radial_674_222)"/>
<path d="M1015.05 506.469C1116.45 431.882 1199.47 372.572 1200.43 373.876C1201.39 375.179 1119.98 436.712 1018.58 511.299C917.173 585.885 834.151 645.195 833.191 643.891C832.186 642.502 913.599 580.969 1015.05 506.469Z" fill="url(#paint32_radial_674_222)"/>
<path opacity="0.8" d="M1107.6 558.81C1097.19 555.579 1090.91 545.729 1093.67 536.816C1096.43 527.903 1107.12 523.315 1117.6 526.566C1128.02 529.796 1134.3 539.646 1131.53 548.559C1128.77 557.472 1118.08 562.06 1107.6 558.81Z" fill="url(#paint33_radial_674_222)"/>
<path opacity="0.8" d="M712.819 251.306C699.98 247.324 692.329 235.181 695.723 224.236C699.118 213.292 712.298 207.609 725.137 211.591C737.976 215.573 745.627 227.716 742.233 238.661C738.818 249.671 725.658 255.288 712.819 251.306Z" fill="url(#paint34_radial_674_222)"/>
<path d="M873.589 371.717C872.629 376.663 875.699 381.351 880.382 382.229C885.064 383.106 889.595 379.842 890.555 374.895C891.515 369.949 888.445 365.261 883.762 364.383C879.014 363.485 874.483 366.75 873.589 371.717Z" fill="url(#paint35_radial_674_222)"/>
<path d="M921.743 453.535C920.784 458.482 923.854 463.17 928.536 464.047C933.219 464.925 937.749 461.661 938.709 456.714C939.669 451.767 936.599 447.079 931.917 446.202C927.169 445.304 922.638 448.568 921.743 453.535Z" fill="url(#paint36_radial_674_222)"/>
<path d="M970.489 534.604C969.529 539.55 972.599 544.238 977.282 545.116C981.964 545.993 986.495 542.729 987.455 537.782C988.415 532.836 985.345 528.148 980.662 527.27C975.98 526.393 971.428 529.722 970.489 534.604Z" fill="url(#paint37_radial_674_222)"/>
<path d="M827.409 293.025C826.45 297.972 829.519 302.659 834.202 303.537C838.884 304.415 843.415 301.15 844.375 296.204C845.335 291.257 842.265 286.569 837.583 285.691C832.9 284.814 828.369 288.078 827.409 293.025Z" fill="url(#paint38_radial_674_222)"/>
<path d="M782.587 215.975C781.627 220.922 784.697 225.61 789.38 226.487C794.062 227.365 798.593 224.101 799.553 219.154C800.513 214.207 797.443 209.519 792.76 208.642C788.078 207.764 783.461 211.074 782.587 215.975Z" fill="url(#paint39_radial_674_222)"/>
<path d="M736.762 140.77C735.802 145.717 738.872 150.405 743.555 151.282C748.237 152.16 752.768 148.895 753.728 143.949C754.688 139.002 751.618 134.314 746.935 133.437C742.187 132.539 737.636 135.869 736.762 140.77Z" fill="url(#paint40_radial_674_222)"/>
<path d="M978.996 330.988C978.348 334.235 980.388 337.382 983.457 337.903C986.507 338.49 989.543 336.342 990.125 333.075C990.773 329.827 988.733 326.68 985.664 326.159C982.614 325.573 979.644 327.741 978.996 330.988Z" fill="url(#paint41_radial_674_222)"/>
<path d="M938.434 262.659C937.786 265.907 939.826 269.054 942.896 269.575C945.945 270.161 948.981 268.014 949.563 264.746C950.212 261.499 948.172 258.352 945.102 257.831C942.032 257.31 938.997 259.457 938.434 262.659Z" fill="url(#paint42_radial_674_222)"/>
<path d="M897.787 196.459C897.138 199.707 899.178 202.854 902.248 203.375C905.297 203.961 908.333 201.814 908.916 198.546C909.564 195.299 907.524 192.152 904.454 191.631C901.405 191.044 898.435 193.212 897.787 196.459Z" fill="url(#paint43_radial_674_222)"/>
<path d="M857.074 130.239C856.426 133.486 858.465 136.634 861.535 137.155C864.584 137.741 867.62 135.594 868.203 132.326C868.851 129.079 866.811 125.932 863.741 125.41C860.692 124.824 857.722 126.992 857.074 130.239Z" fill="url(#paint44_radial_674_222)"/>
<path d="M1021.55 397.994C1020.9 401.241 1022.94 404.388 1026.01 404.909C1029.06 405.496 1032.09 403.348 1032.68 400.081C1033.33 396.833 1031.29 393.686 1028.22 393.165C1025.17 392.579 1022.2 394.747 1021.55 397.994Z" fill="url(#paint45_radial_674_222)"/>
<path d="M1064.33 469.596C1063.68 472.843 1065.72 475.99 1068.79 476.511C1071.86 477.033 1074.87 474.95 1075.45 471.683C1076.1 468.435 1074.06 465.288 1070.99 464.767C1067.94 464.181 1064.91 466.328 1064.33 469.596Z" fill="url(#paint46_radial_674_222)"/>
<path opacity="0.6" d="M1056.76 298.57C1056.12 301.817 1058.16 304.964 1061.23 305.485C1064.28 306.072 1067.31 303.924 1067.89 300.656C1068.54 297.409 1066.5 294.262 1063.43 293.741C1060.36 293.22 1057.35 295.302 1056.76 298.57Z" fill="url(#paint47_radial_674_222)"/>
<path opacity="0.6" d="M1020.27 240.268C1019.63 243.515 1021.67 246.662 1024.73 247.184C1027.78 247.77 1030.82 245.622 1031.4 242.355C1032.05 239.108 1030.01 235.96 1026.94 235.439C1023.89 234.853 1020.92 237.021 1020.27 240.268Z" fill="url(#paint48_radial_674_222)"/>
<path opacity="0.6" d="M1094.73 359.053C1094.15 362.104 1095.98 364.973 1098.9 365.519C1101.76 366.045 1104.53 364.033 1105.12 360.982C1105.71 357.931 1103.87 355.062 1100.95 354.516C1098.16 354.011 1095.32 356.003 1094.73 359.053Z" fill="url(#paint49_radial_674_222)"/>
<path opacity="0.6" d="M984.214 180.807C983.627 183.858 985.466 186.727 988.384 187.273C991.237 187.799 994.015 185.787 994.602 182.736C995.189 179.685 993.351 176.816 990.432 176.27C987.579 175.745 984.801 177.757 984.214 180.807Z" fill="url(#paint50_radial_674_222)"/>
<path opacity="0.6" d="M948.222 122.517C947.635 125.568 949.474 128.437 952.392 128.983C955.245 129.508 958.023 127.497 958.61 124.446C959.198 121.395 957.359 118.526 954.44 117.98C951.567 117.52 948.789 119.532 948.222 122.517Z" fill="url(#paint51_radial_674_222)"/>
</g>
<defs>
<linearGradient id="paint0_linear_674_222" x1="296.774" y1="479.47" x2="1161.38" y2="747.631" gradientUnits="userSpaceOnUse">
<stop stop-color="#5083C2"/>
<stop offset="1" stop-color="#5082C2" stop-opacity="0"/>
</linearGradient>
<linearGradient id="paint1_linear_674_222" x1="419.678" y1="435.206" x2="1208.12" y2="679.742" gradientUnits="userSpaceOnUse">
<stop stop-color="#5083C2"/>
<stop offset="1" stop-color="#5082C2" stop-opacity="0"/>
</linearGradient>
<linearGradient id="paint2_linear_674_222" x1="521.682" y1="399.494" x2="1246.23" y2="624.213" gradientUnits="userSpaceOnUse">
<stop stop-color="#5083C2"/>
<stop offset="1" stop-color="#5082C2" stop-opacity="0"/>
</linearGradient>
<linearGradient id="paint3_linear_674_222" x1="607.707" y1="370.081" x2="1277.91" y2="577.945" gradientUnits="userSpaceOnUse">
<stop stop-color="#5083C2"/>
<stop offset="1" stop-color="#5082C2" stop-opacity="0"/>
</linearGradient>
<linearGradient id="paint4_linear_674_222" x1="681.239" y1="345.443" x2="1304.65" y2="538.796" gradientUnits="userSpaceOnUse">
<stop stop-color="#5083C2"/>
<stop offset="1" stop-color="#5082C2" stop-opacity="0"/>
</linearGradient>
<linearGradient id="paint5_linear_674_222" x1="744.816" y1="324.507" x2="1327.54" y2="505.239" gradientUnits="userSpaceOnUse">
<stop stop-color="#5083C2"/>
<stop offset="1" stop-color="#5082C2" stop-opacity="0"/>
</linearGradient>
<linearGradient id="paint6_linear_674_222" x1="800.082" y1="306.281" x2="1347.38" y2="476.026" gradientUnits="userSpaceOnUse">
<stop stop-color="#5083C2"/>
<stop offset="1" stop-color="#5082C2" stop-opacity="0"/>
</linearGradient>
<linearGradient id="paint7_linear_674_222" x1="849.026" y1="290.666" x2="1364.68" y2="450.597" gradientUnits="userSpaceOnUse">
<stop stop-color="#5083C2"/>
<stop offset="1" stop-color="#5082C2" stop-opacity="0"/>
</linearGradient>
<linearGradient id="paint8_linear_674_222" x1="980.919" y1="837.722" x2="1177.19" y2="898.596" gradientUnits="userSpaceOnUse">
<stop stop-color="#5083C2"/>
<stop offset="1" stop-color="#5082C2" stop-opacity="0"/>
</linearGradient>
<linearGradient id="paint9_linear_674_222" x1="897.952" y1="731.14" x2="1148.9" y2="808.971" gradientUnits="userSpaceOnUse">
<stop stop-color="#5083C2"/>
<stop offset="1" stop-color="#5082C2" stop-opacity="0"/>
</linearGradient>
<linearGradient id="paint10_linear_674_222" x1="817.637" y1="627.467" x2="1120.75" y2="721.478" gradientUnits="userSpaceOnUse">
<stop stop-color="#5083C2"/>
<stop offset="1" stop-color="#5082C2" stop-opacity="0"/>
</linearGradient>
<linearGradient id="paint11_linear_674_222" x1="739.852" y1="526.578" x2="1092.76" y2="636.034" gradientUnits="userSpaceOnUse">
<stop stop-color="#5083C2"/>
<stop offset="1" stop-color="#5082C2" stop-opacity="0"/>
</linearGradient>
<linearGradient id="paint12_linear_674_222" x1="664.482" y1="428.356" x2="1064.94" y2="552.558" gradientUnits="userSpaceOnUse">
<stop stop-color="#5083C2"/>
<stop offset="1" stop-color="#5082C2" stop-opacity="0"/>
</linearGradient>
<linearGradient id="paint13_linear_674_222" x1="591.417" y1="332.691" x2="1037.29" y2="470.978" gradientUnits="userSpaceOnUse">
<stop stop-color="#5083C2"/>
<stop offset="1" stop-color="#5082C2" stop-opacity="0"/>
</linearGradient>
<linearGradient id="paint14_linear_674_222" x1="520.556" y1="239.479" x2="1009.81" y2="391.223" gradientUnits="userSpaceOnUse">
<stop stop-color="#5083C2"/>
<stop offset="1" stop-color="#5082C2" stop-opacity="0"/>
</linearGradient>
<linearGradient id="paint15_linear_674_222" x1="451.8" y1="148.621" x2="982.522" y2="313.226" gradientUnits="userSpaceOnUse">
<stop stop-color="#5083C2"/>
<stop offset="1" stop-color="#5082C2" stop-opacity="0"/>
</linearGradient>
<linearGradient id="paint16_linear_674_222" x1="385.06" y1="60.0248" x2="955.423" y2="236.924" gradientUnits="userSpaceOnUse">
<stop stop-color="#5083C2"/>
<stop offset="1" stop-color="#5082C2" stop-opacity="0"/>
</linearGradient>
<linearGradient id="paint17_linear_674_222" x1="174.987" y1="441.608" x2="1270.49" y2="781.38" gradientUnits="userSpaceOnUse">
<stop stop-color="#5083C2"/>
<stop offset="1" stop-color="#5082C2" stop-opacity="0"/>
</linearGradient>
<linearGradient id="paint18_linear_674_222" x1="846.243" y1="221.906" x2="947.245" y2="253.232" gradientUnits="userSpaceOnUse">
<stop stop-color="#5083C2"/>
<stop offset="1" stop-color="#5082C2" stop-opacity="0"/>
</linearGradient>
<linearGradient id="paint19_linear_674_222" x1="827.634" y1="244.243" x2="928.636" y2="275.569" gradientUnits="userSpaceOnUse">
<stop stop-color="#5083C2"/>
<stop offset="1" stop-color="#5082C2" stop-opacity="0"/>
</linearGradient>
<linearGradient id="paint20_linear_674_222" x1="1061.28" y1="484.755" x2="1226.84" y2="536.105" gradientUnits="userSpaceOnUse">
<stop stop-color="#5083C2"/>
<stop offset="1" stop-color="#5082C2" stop-opacity="0"/>
</linearGradient>
<linearGradient id="paint21_linear_674_222" x1="1015.86" y1="414.791" x2="1170.1" y2="462.627" gradientUnits="userSpaceOnUse">
<stop stop-color="#5083C2"/>
<stop offset="1" stop-color="#5082C2" stop-opacity="0"/>
</linearGradient>
<linearGradient id="paint22_linear_674_222" x1="981.773" y1="239.825" x2="1063.04" y2="265.032" gradientUnits="userSpaceOnUse">
<stop stop-color="#5083C2"/>
<stop offset="1" stop-color="#5082C2" stop-opacity="0"/>
</linearGradient>
<radialGradient id="paint23_radial_674_222" cx="0" cy="0" r="1" gradientUnits="userSpaceOnUse" gradientTransform="translate(883.766 373.062) rotate(-110.982) scale(2.97923 227.75)">
<stop stop-color="#FAFAFA"/>
<stop offset="0.0469493" stop-color="#EFF2FA"/>
<stop offset="0.0982115" stop-color="#E8EDFA"/>
<stop offset="0.1217" stop-color="#E1E6FA" stop-opacity="0.9668"/>
<stop offset="0.2262" stop-color="#C6C9FC" stop-opacity="0.8188"/>
<stop offset="0.3388" stop-color="#B1B4FD" stop-opacity="0.6593"/>
<stop offset="0.4619" stop-color="#A2A4FE" stop-opacity="0.4851"/>
<stop offset="0.6033" stop-color="#999BFF" stop-opacity="0.2848"/>
<stop offset="0.8045" stop-color="#9698FF" stop-opacity="0"/>
</radialGradient>
<radialGradient id="paint24_radial_674_222" cx="0" cy="0" r="1" gradientUnits="userSpaceOnUse" gradientTransform="translate(1071.99 578.676) rotate(-130.882) scale(2.97885 227.78)">
<stop stop-color="#FAFAFA"/>
<stop offset="0.0469493" stop-color="#EFF2FA"/>
<stop offset="0.0982115" stop-color="#E8EDFA"/>
<stop offset="0.1217" stop-color="#E1E6FA" stop-opacity="0.9668"/>
<stop offset="0.2262" stop-color="#C6C9FC" stop-opacity="0.8188"/>
<stop offset="0.3388" stop-color="#B1B4FD" stop-opacity="0.6593"/>
<stop offset="0.4619" stop-color="#A2A4FE" stop-opacity="0.4851"/>
<stop offset="0.6033" stop-color="#999BFF" stop-opacity="0.2848"/>
<stop offset="0.8045" stop-color="#9698FF" stop-opacity="0"/>
</radialGradient>
<radialGradient id="paint25_radial_674_222" cx="0" cy="0" r="1" gradientUnits="userSpaceOnUse" gradientTransform="translate(822.852 298.488) rotate(-104.434) scale(2.97993 227.698)">
<stop stop-color="#FAFAFA"/>
<stop offset="0.0469493" stop-color="#EFF2FA"/>
<stop offset="0.0982115" stop-color="#E8EDFA"/>
<stop offset="0.1217" stop-color="#E1E6FA" stop-opacity="0.9668"/>
<stop offset="0.2262" stop-color="#C6C9FC" stop-opacity="0.8188"/>
<stop offset="0.3388" stop-color="#B1B4FD" stop-opacity="0.6593"/>
<stop offset="0.4619" stop-color="#A2A4FE" stop-opacity="0.4851"/>
<stop offset="0.6033" stop-color="#999BFF" stop-opacity="0.2848"/>
<stop offset="0.8045" stop-color="#9698FF" stop-opacity="0"/>
</radialGradient>
<radialGradient id="paint26_radial_674_222" cx="0" cy="0" r="1" gradientUnits="userSpaceOnUse" gradientTransform="translate(754.498 224.117) rotate(-98.685) scale(2.9802 227.677)">
<stop stop-color="#FAFAFA"/>
<stop offset="0.0469493" stop-color="#EFF2FA"/>
<stop offset="0.0982115" stop-color="#E8EDFA"/>
<stop offset="0.1217" stop-color="#E1E6FA" stop-opacity="0.9668"/>
<stop offset="0.2262" stop-color="#C6C9FC" stop-opacity="0.8188"/>
<stop offset="0.3388" stop-color="#B1B4FD" stop-opacity="0.6593"/>
<stop offset="0.4619" stop-color="#A2A4FE" stop-opacity="0.4851"/>
<stop offset="0.6033" stop-color="#999BFF" stop-opacity="0.2848"/>
<stop offset="0.8045" stop-color="#9698FF" stop-opacity="0"/>
</radialGradient>
<radialGradient id="paint27_radial_674_222" cx="0" cy="0" r="1" gradientUnits="userSpaceOnUse" gradientTransform="translate(849.869 317.688) rotate(-29.324) scale(2.97945 227.734)">
<stop stop-color="#FAFAFA"/>
<stop offset="0.0469493" stop-color="#EFF2FA"/>
<stop offset="0.0982115" stop-color="#E8EDFA"/>
<stop offset="0.1217" stop-color="#E1E6FA" stop-opacity="0.9668"/>
<stop offset="0.2262" stop-color="#C6C9FC" stop-opacity="0.8188"/>
<stop offset="0.3388" stop-color="#B1B4FD" stop-opacity="0.6593"/>
<stop offset="0.4619" stop-color="#A2A4FE" stop-opacity="0.4851"/>
<stop offset="0.6033" stop-color="#999BFF" stop-opacity="0.2848"/>
<stop offset="0.8045" stop-color="#9698FF" stop-opacity="0"/>
</radialGradient>
<radialGradient id="paint28_radial_674_222" cx="0" cy="0" r="1" gradientUnits="userSpaceOnUse" gradientTransform="translate(816.599 396.198) rotate(-28.5952) scale(2.97905 227.765)">
<stop stop-color="#FAFAFA"/>
<stop offset="0.0469493" stop-color="#EFF2FA"/>
<stop offset="0.0982115" stop-color="#E8EDFA"/>
<stop offset="0.1217" stop-color="#E1E6FA" stop-opacity="0.9668"/>
<stop offset="0.2262" stop-color="#C6C9FC" stop-opacity="0.8188"/>
<stop offset="0.3388" stop-color="#B1B4FD" stop-opacity="0.6593"/>
<stop offset="0.4619" stop-color="#A2A4FE" stop-opacity="0.4851"/>
<stop offset="0.6033" stop-color="#999BFF" stop-opacity="0.2848"/>
<stop offset="0.8045" stop-color="#9698FF" stop-opacity="0"/>
</radialGradient>
<radialGradient id="paint29_radial_674_222" cx="0" cy="0" r="1" gradientUnits="userSpaceOnUse" gradientTransform="translate(744.678 435.924) rotate(-28.3986) scale(2.97971 227.715)">
<stop stop-color="#FAFAFA"/>
<stop offset="0.0469493" stop-color="#EFF2FA"/>
<stop offset="0.0982115" stop-color="#E8EDFA"/>
<stop offset="0.1217" stop-color="#E1E6FA" stop-opacity="0.9668"/>
<stop offset="0.2262" stop-color="#C6C9FC" stop-opacity="0.8188"/>
<stop offset="0.3388" stop-color="#B1B4FD" stop-opacity="0.6593"/>
<stop offset="0.4619" stop-color="#A2A4FE" stop-opacity="0.4851"/>
<stop offset="0.6033" stop-color="#999BFF" stop-opacity="0.2848"/>
<stop offset="0.8045" stop-color="#9698FF" stop-opacity="0"/>
</radialGradient>
<radialGradient id="paint30_radial_674_222" cx="0" cy="0" r="1" gradientUnits="userSpaceOnUse" gradientTransform="translate(983.036 425.451) rotate(-28.5782) scale(1.99321 227.655)">
<stop stop-color="#FAFAFA"/>
<stop offset="0.0469493" stop-color="#EFF2FA"/>
<stop offset="0.0982115" stop-color="#E8EDFA"/>
<stop offset="0.1217" stop-color="#E1E6FA" stop-opacity="0.9668"/>
<stop offset="0.2262" stop-color="#C6C9FC" stop-opacity="0.8188"/>
<stop offset="0.3388" stop-color="#B1B4FD" stop-opacity="0.6593"/>
<stop offset="0.4619" stop-color="#A2A4FE" stop-opacity="0.4851"/>
<stop offset="0.6033" stop-color="#999BFF" stop-opacity="0.2848"/>
<stop offset="0.8045" stop-color="#9698FF" stop-opacity="0"/>
</radialGradient>
<radialGradient id="paint31_radial_674_222" cx="0" cy="0" r="1" gradientUnits="userSpaceOnUse" gradientTransform="translate(984.819 423.276) rotate(-117.531) scale(2.97963 227.722)">
<stop stop-color="#FAFAFA"/>
<stop offset="0.0469493" stop-color="#EFF2FA"/>
<stop offset="0.0982115" stop-color="#E8EDFA"/>
<stop offset="0.1217" stop-color="#E1E6FA" stop-opacity="0.9668"/>
<stop offset="0.2262" stop-color="#C6C9FC" stop-opacity="0.8188"/>
<stop offset="0.3388" stop-color="#B1B4FD" stop-opacity="0.6593"/>
<stop offset="0.4619" stop-color="#A2A4FE" stop-opacity="0.4851"/>
<stop offset="0.6033" stop-color="#999BFF" stop-opacity="0.2848"/>
<stop offset="0.8045" stop-color="#9698FF" stop-opacity="0"/>
</radialGradient>
<radialGradient id="paint32_radial_674_222" cx="0" cy="0" r="1" gradientUnits="userSpaceOnUse" gradientTransform="translate(1016.81 508.836) rotate(-124.752) scale(2.9796 227.723)">
<stop stop-color="#FAFAFA"/>
<stop offset="0.0469493" stop-color="#EFF2FA"/>
<stop offset="0.0982115" stop-color="#E8EDFA"/>
<stop offset="0.1217" stop-color="#E1E6FA" stop-opacity="0.9668"/>
<stop offset="0.2262" stop-color="#C6C9FC" stop-opacity="0.8188"/>
<stop offset="0.3388" stop-color="#B1B4FD" stop-opacity="0.6593"/>
<stop offset="0.4619" stop-color="#A2A4FE" stop-opacity="0.4851"/>
<stop offset="0.6033" stop-color="#999BFF" stop-opacity="0.2848"/>
<stop offset="0.8045" stop-color="#9698FF" stop-opacity="0"/>
</radialGradient>
<radialGradient id="paint33_radial_674_222" cx="0" cy="0" r="1" gradientUnits="userSpaceOnUse" gradientTransform="translate(1112.61 542.672) rotate(107.255) scale(16.9052 19.7933)">
<stop stop-color="#FAFAFA"/>
<stop offset="0.0093946" stop-color="#F2E1F7"/>
<stop offset="0.0318941" stop-color="#E1AAF1"/>
<stop offset="0.0528121" stop-color="#D47EEC"/>
<stop offset="0.0714933" stop-color="#CA5FE9"/>
<stop offset="0.0872582" stop-color="#C44CE7"/>
<stop offset="0.0982115" stop-color="#C245E6"/>
<stop offset="0.1614" stop-color="#B85BEC" stop-opacity="0.9105"/>
<stop offset="0.2599" stop-color="#AC77F3" stop-opacity="0.7711"/>
<stop offset="0.3659" stop-color="#A28DF8" stop-opacity="0.621"/>
<stop offset="0.4818" stop-color="#9B9DFC" stop-opacity="0.4568"/>
<stop offset="0.615" stop-color="#97A6FE" stop-opacity="0.2682"/>
<stop offset="0.8045" stop-color="#96A9FF" stop-opacity="0"/>
</radialGradient>
<radialGradient id="paint34_radial_674_222" cx="0" cy="0" r="1" gradientUnits="userSpaceOnUse" gradientTransform="translate(718.994 231.492) rotate(107.255) scale(20.7858 24.3369)">
<stop stop-color="#FAFAFA"/>
<stop offset="0.0093946" stop-color="#F2E1F7"/>
<stop offset="0.0318941" stop-color="#E1AAF1"/>
<stop offset="0.0528121" stop-color="#D47EEC"/>
<stop offset="0.0714933" stop-color="#CA5FE9"/>
<stop offset="0.0872582" stop-color="#C44CE7"/>
<stop offset="0.0982115" stop-color="#C245E6"/>
<stop offset="0.1614" stop-color="#B85BEC" stop-opacity="0.9105"/>
<stop offset="0.2599" stop-color="#AC77F3" stop-opacity="0.7711"/>
<stop offset="0.3659" stop-color="#A28DF8" stop-opacity="0.621"/>
<stop offset="0.4818" stop-color="#9B9DFC" stop-opacity="0.4568"/>
<stop offset="0.615" stop-color="#97A6FE" stop-opacity="0.2682"/>
<stop offset="0.8045" stop-color="#96A9FF" stop-opacity="0"/>
</radialGradient>
<radialGradient id="paint35_radial_674_222" cx="0" cy="0" r="1" gradientUnits="userSpaceOnUse" gradientTransform="translate(882.028 373.282) rotate(-169.267) scale(8.60259 9.0871)">
<stop stop-color="white"/>
<stop offset="1"/>
</radialGradient>
<radialGradient id="paint36_radial_674_222" cx="0" cy="0" r="1" gradientUnits="userSpaceOnUse" gradientTransform="translate(930.17 455.109) rotate(-169.266) scale(8.60259 9.08709)">
<stop stop-color="white"/>
<stop offset="1"/>
</radialGradient>
<radialGradient id="paint37_radial_674_222" cx="0" cy="0" r="1" gradientUnits="userSpaceOnUse" gradientTransform="translate(978.93 536.229) rotate(-169.266) scale(8.60259 9.08709)">
<stop stop-color="white"/>
<stop offset="1"/>
</radialGradient>
<radialGradient id="paint38_radial_674_222" cx="0" cy="0" r="1" gradientUnits="userSpaceOnUse" gradientTransform="translate(835.87 294.62) rotate(-169.267) scale(8.60259 9.0871)">
<stop stop-color="white"/>
<stop offset="1"/>
</radialGradient>
<radialGradient id="paint39_radial_674_222" cx="0" cy="0" r="1" gradientUnits="userSpaceOnUse" gradientTransform="translate(791.015 217.595) rotate(-169.267) scale(8.60259 9.0871)">
<stop stop-color="white"/>
<stop offset="1"/>
</radialGradient>
<radialGradient id="paint40_radial_674_222" cx="0" cy="0" r="1" gradientUnits="userSpaceOnUse" gradientTransform="translate(745.182 142.391) rotate(-169.266) scale(8.60259 9.08709)">
<stop stop-color="white"/>
<stop offset="1"/>
</radialGradient>
<radialGradient id="paint41_radial_674_222" cx="0" cy="0" r="1" gradientUnits="userSpaceOnUse" gradientTransform="translate(984.594 332.068) rotate(-169.266) scale(5.67033 5.98967)">
<stop stop-color="white"/>
<stop offset="1"/>
</radialGradient>
<radialGradient id="paint42_radial_674_222" cx="0" cy="0" r="1" gradientUnits="userSpaceOnUse" gradientTransform="translate(943.985 263.741) rotate(-169.267) scale(5.67031 5.98967)">
<stop stop-color="white"/>
<stop offset="1"/>
</radialGradient>
<radialGradient id="paint43_radial_674_222" cx="0" cy="0" r="1" gradientUnits="userSpaceOnUse" gradientTransform="translate(903.375 197.515) rotate(-169.267) scale(5.67036 5.98973)">
<stop stop-color="white"/>
<stop offset="1"/>
</radialGradient>
<radialGradient id="paint44_radial_674_222" cx="0" cy="0" r="1" gradientUnits="userSpaceOnUse" gradientTransform="translate(862.661 131.308) rotate(-169.267) scale(5.67031 5.98968)">
<stop stop-color="white"/>
<stop offset="1"/>
</radialGradient>
<radialGradient id="paint45_radial_674_222" cx="0" cy="0" r="1" gradientUnits="userSpaceOnUse" gradientTransform="translate(1027.13 399.076) rotate(-169.266) scale(5.67033 5.98967)">
<stop stop-color="white"/>
<stop offset="1"/>
</radialGradient>
<radialGradient id="paint46_radial_674_222" cx="0" cy="0" r="1" gradientUnits="userSpaceOnUse" gradientTransform="translate(1069.89 470.653) rotate(-169.266) scale(5.67038 5.98973)">
<stop stop-color="white"/>
<stop offset="1"/>
</radialGradient>
<radialGradient id="paint47_radial_674_222" cx="0" cy="0" r="1" gradientUnits="userSpaceOnUse" gradientTransform="translate(1062.32 299.643) rotate(-169.266) scale(5.67033 5.98967)">
<stop stop-color="white"/>
<stop offset="1"/>
</radialGradient>
<radialGradient id="paint48_radial_674_222" cx="0" cy="0" r="1" gradientUnits="userSpaceOnUse" gradientTransform="translate(1025.86 241.311) rotate(-169.266) scale(5.67033 5.98967)">
<stop stop-color="white"/>
<stop offset="1"/>
</radialGradient>
<radialGradient id="paint49_radial_674_222" cx="0" cy="0" r="1" gradientUnits="userSpaceOnUse" gradientTransform="translate(1099.96 360.029) rotate(-169.266) scale(5.28219 5.57967)">
<stop stop-color="white"/>
<stop offset="1"/>
</radialGradient>
<radialGradient id="paint50_radial_674_222" cx="0" cy="0" r="1" gradientUnits="userSpaceOnUse" gradientTransform="translate(989.433 181.795) rotate(-169.266) scale(5.28217 5.57966)">
<stop stop-color="white"/>
<stop offset="1"/>
</radialGradient>
<radialGradient id="paint51_radial_674_222" cx="0" cy="0" r="1" gradientUnits="userSpaceOnUse" gradientTransform="translate(953.405 123.523) rotate(-169.267) scale(5.28217 5.57966)">
<stop stop-color="white"/>
<stop offset="1"/>
</radialGradient>
</defs>
</svg>
