<svg width="588" height="360" viewBox="0 0 588 360" fill="none" xmlns="http://www.w3.org/2000/svg">
<g opacity="0.95">
<rect width="587.125" height="359" transform="translate(0.5 0.811279)" fill="#E6F0FA"/>
<g clip-path="url(#clip0_274_388)">
<path d="M505.5 299.647H82.625V299.9H505.5V299.647Z" fill="#EBEBEB"/>
<path d="M463.128 313.263H440.969V313.517H463.128V313.263Z" fill="#EBEBEB"/>
<path d="M384.304 310.557H355.379V310.811H384.304V310.557Z" fill="#EBEBEB"/>
<path d="M434.203 305.482H411.875V305.736H434.203V305.482Z" fill="#EBEBEB"/>
<path d="M176.419 306.835H139.882V307.089H176.419V306.835Z" fill="#EBEBEB"/>
<path d="M132.355 306.835H127.027V307.089H132.355V306.835Z" fill="#EBEBEB"/>
<path d="M241.372 310.472H193.841V310.726H241.372V310.472Z" fill="#EBEBEB"/>
<path d="M283.068 261.926H119.753C117.132 261.926 114.933 259.727 114.933 257.105V27.5688C114.933 24.947 117.132 22.748 119.753 22.748H283.068C285.69 22.748 287.888 24.947 287.888 27.5688V257.105C287.888 259.812 285.774 261.926 283.068 261.926ZM119.753 23.0018C117.216 23.0018 115.102 25.0316 115.102 27.6534V257.19C115.102 259.727 117.132 261.842 119.753 261.842H283.068C285.605 261.842 287.719 259.812 287.719 257.19V27.5688C287.719 25.0316 285.69 22.9172 283.068 22.9172H119.753V23.0018Z" fill="#EBEBEB"/>
<path d="M466.003 261.926H302.689C300.067 261.926 297.868 259.727 297.868 257.105V27.5688C297.868 24.947 300.067 22.748 302.689 22.748H466.003C468.625 22.748 470.824 24.947 470.824 27.5688V257.105C470.824 259.812 468.71 261.926 466.003 261.926ZM302.689 23.0018C300.152 23.0018 298.037 25.0316 298.037 27.6534V257.19C298.037 259.727 300.067 261.842 302.689 261.842H466.003C468.54 261.842 470.655 259.812 470.655 257.19V27.5688C470.655 25.0316 468.625 22.9172 466.003 22.9172H302.689V23.0018Z" fill="#EBEBEB"/>
<path d="M428.368 64.6973H333.136V211.773H428.368V64.6973Z" fill="#EBEBEB"/>
<path d="M265.9 211.701H333.137V64.6255H265.9V211.701Z" fill="#B1C6E1"/>
<path d="M265.899 64.6973H264.715V211.773H265.899V64.6973Z" fill="#E6E6E6"/>
<path d="M426.635 209.882V66.4425L334.956 66.4425V209.882L426.635 209.882Z" fill="#B1C6E1"/>
<path d="M426.592 151.894H378.215V66.4734H379.061V151.048H426.592V151.894Z" fill="#E0E0E0"/>
<path d="M428.406 211.701H443.798V64.6255H428.406V211.701Z" fill="#E0E0E0"/>
<path d="M334.898 209.925H350.291V66.4861H334.898V209.925Z" fill="#E0E0E0"/>
<path d="M394.96 84.4033H355.887V141.153H394.96V84.4033Z" fill="#E6E6E6"/>
<path d="M388.618 128.467H362.146C361.215 128.467 360.454 127.706 360.454 126.775V90.7464C360.454 89.8161 361.215 89.0549 362.146 89.0549H388.618C389.548 89.0549 390.309 89.8161 390.309 90.7464V126.775C390.309 127.706 389.548 128.467 388.618 128.467Z" fill="#F0F0F0"/>
<path d="M394.906 141.097H402.095V84.3469H394.906V141.097Z" fill="#E0E0E0"/>
<path d="M375.339 104.109C374.662 104.109 374.07 103.517 374.07 102.841V95.9901C374.07 95.3135 374.662 94.7214 375.339 94.7214C376.016 94.7214 376.608 95.3135 376.608 95.9901V102.841C376.608 103.602 376.1 104.109 375.339 104.109Z" fill="#FAFAFA"/>
<path d="M370.857 104.109C370.18 104.109 369.588 103.517 369.588 102.841V95.9901C369.588 95.3135 370.18 94.7214 370.857 94.7214C371.534 94.7214 372.126 95.3135 372.126 95.9901V102.841C372.126 103.602 371.618 104.109 370.857 104.109Z" fill="#FAFAFA"/>
<path d="M366.374 104.109C365.697 104.109 365.105 103.517 365.105 102.841V95.9901C365.105 95.3135 365.697 94.7214 366.374 94.7214C367.051 94.7214 367.643 95.3135 367.643 95.9901V102.841C367.643 103.602 367.135 104.109 366.374 104.109Z" fill="#FAFAFA"/>
<path d="M379.821 104.109C379.145 104.109 378.553 103.517 378.553 102.841V95.9901C378.553 95.3135 379.145 94.7214 379.821 94.7214C380.498 94.7214 381.09 95.3135 381.09 95.9901V102.841C381.09 103.602 380.583 104.109 379.821 104.109Z" fill="#FAFAFA"/>
<path d="M384.304 104.109C383.628 104.109 383.036 103.517 383.036 102.841V95.9901C383.036 95.3135 383.628 94.7214 384.304 94.7214C384.981 94.7214 385.573 95.3135 385.573 95.9901V102.841C385.573 103.602 385.065 104.109 384.304 104.109Z" fill="#FAFAFA"/>
<path d="M366.374 113.835C366.374 114.343 365.951 114.681 365.528 114.681C365.021 114.681 364.683 114.258 364.683 113.835C364.683 113.328 365.105 112.99 365.528 112.99C366.036 112.99 366.374 113.412 366.374 113.835Z" fill="#FAFAFA"/>
<path d="M366.374 121.955C366.374 122.462 365.951 122.8 365.528 122.8C365.021 122.8 364.683 122.377 364.683 121.955C364.683 121.532 365.105 121.109 365.528 121.109C366.036 121.024 366.374 121.447 366.374 121.955Z" fill="#E6E6E6"/>
<path d="M370.011 121.955C370.011 122.462 369.588 122.8 369.166 122.8C368.658 122.8 368.32 122.377 368.32 121.955C368.32 121.532 368.743 121.109 369.166 121.109C369.588 121.024 370.011 121.447 370.011 121.955Z" fill="#E6E6E6"/>
<path d="M373.563 121.955C373.563 122.462 373.14 122.8 372.717 122.8C372.21 122.8 371.872 122.377 371.872 121.955C371.872 121.532 372.294 121.109 372.717 121.109C373.225 121.024 373.563 121.447 373.563 121.955Z" fill="#E6E6E6"/>
<path d="M367.728 160.267H360.708V203.739H367.728V160.267Z" fill="#E6E6E6"/>
<path d="M367.728 168.555H360.708V172.192H367.728V168.555Z" fill="#E0E0E0"/>
<path d="M367.728 183.018H360.708V184.54H367.728V183.018Z" fill="#E0E0E0"/>
<path d="M367.64 203.763H370.346V160.292H367.64V203.763Z" fill="#E0E0E0"/>
<path d="M365.698 164.58C365.698 165.426 365.021 166.103 364.175 166.103C363.329 166.103 362.653 165.426 362.653 164.58C362.653 163.735 363.329 163.058 364.175 163.058C365.021 163.058 365.698 163.735 365.698 164.58Z" fill="#B1C6E1"/>
<path d="M376.693 160.267H369.673V203.739H376.693V160.267Z" fill="#E6E6E6"/>
<path d="M376.693 168.555H369.673V172.192H376.693V168.555Z" fill="#E0E0E0"/>
<path d="M376.693 183.018H369.673V184.54H376.693V183.018Z" fill="#E0E0E0"/>
<path d="M376.606 203.763H379.312V160.292H376.606V203.763Z" fill="#E0E0E0"/>
<path d="M374.663 164.58C374.663 165.426 373.986 166.103 373.141 166.103C372.295 166.103 371.618 165.426 371.618 164.58C371.618 163.735 372.295 163.058 373.141 163.058C373.986 163.058 374.663 163.735 374.663 164.58Z" fill="#B1C6E1"/>
<path d="M385.657 160.267H378.638V203.739H385.657V160.267Z" fill="#E6E6E6"/>
<path d="M385.657 168.555H378.638V172.192H385.657V168.555Z" fill="#E0E0E0"/>
<path d="M385.657 183.018H378.638V184.54H385.657V183.018Z" fill="#E0E0E0"/>
<path d="M385.571 203.763H388.278V160.292H385.571V203.763Z" fill="#E0E0E0"/>
<path d="M383.628 164.58C383.628 165.426 382.951 166.103 382.105 166.103C381.26 166.103 380.583 165.426 380.583 164.58C380.583 163.735 381.26 163.058 382.105 163.058C382.951 163.058 383.628 163.735 383.628 164.58Z" fill="#B1C6E1"/>
<path d="M394.622 160.267H387.603V203.739H394.622V160.267Z" fill="#E6E6E6"/>
<path d="M394.622 168.555H387.603V172.192H394.622V168.555Z" fill="#E0E0E0"/>
<path d="M394.622 183.018H387.603V184.54H394.622V183.018Z" fill="#E0E0E0"/>
<path d="M394.537 203.763H397.243V160.292H394.537V203.763Z" fill="#E0E0E0"/>
<path d="M392.592 164.58C392.592 165.426 391.915 166.103 391.07 166.103C390.224 166.103 389.547 165.426 389.547 164.58C389.547 163.735 390.224 163.058 391.07 163.058C391.915 163.058 392.592 163.735 392.592 164.58Z" fill="#B1C6E1"/>
<path d="M403.587 160.267H396.567V203.739H403.587V160.267Z" fill="#E6E6E6"/>
<path d="M403.587 168.555H396.567V172.192H403.587V168.555Z" fill="#E0E0E0"/>
<path d="M403.587 183.018H396.567V184.54H403.587V183.018Z" fill="#E0E0E0"/>
<path d="M403.503 203.763H406.209V160.292H403.503V203.763Z" fill="#E0E0E0"/>
<path d="M401.557 164.58C401.557 165.426 400.881 166.103 400.035 166.103C399.189 166.103 398.513 165.426 398.513 164.58C398.513 163.735 399.189 163.058 400.035 163.058C400.881 163.058 401.557 163.735 401.557 164.58Z" fill="#B1C6E1"/>
<path d="M412.552 160.267H405.533V203.739H412.552V160.267Z" fill="#E6E6E6"/>
<path d="M412.552 168.555H405.533V172.192H412.552V168.555Z" fill="#E0E0E0"/>
<path d="M412.552 183.018H405.533V184.54H412.552V183.018Z" fill="#E0E0E0"/>
<path d="M412.468 203.763H415.175V160.292H412.468V203.763Z" fill="#E0E0E0"/>
<path d="M410.522 164.58C410.522 165.426 409.846 166.103 409 166.103C408.154 166.103 407.478 165.426 407.478 164.58C407.478 163.735 408.154 163.058 409 163.058C409.846 163.058 410.522 163.735 410.522 164.58Z" fill="#B1C6E1"/>
<path d="M364.598 160.267H363.752V151.048H378.638V151.894H364.598V160.267Z" fill="#E0E0E0"/>
<path d="M373.564 151.471H372.718V160.267H373.564V151.471Z" fill="#E0E0E0"/>
<path d="M382.528 151.471H381.682V160.267H382.528V151.471Z" fill="#E0E0E0"/>
<path d="M391.493 151.471H390.647V160.267H391.493V151.471Z" fill="#E0E0E0"/>
<path d="M400.458 151.471H399.612V160.267H400.458V151.471Z" fill="#E0E0E0"/>
<path d="M409.423 151.471H408.577V160.267H409.423V151.471Z" fill="#E0E0E0"/>
<path d="M420.84 105.547H407.478V131.427H420.84V105.547Z" fill="#EBEBEB"/>
<path d="M419.572 105.547H407.478V131.427H419.572V105.547Z" fill="#012347"/>
<path d="M414.751 66.4734H413.652V105.547H414.751V66.4734Z" fill="#E0E0E0"/>
<path d="M217.015 120.686H214.393H207.288H182.423L183.1 123.561H207.965L214.562 150.795H189.697L190.373 153.67H215.238L221.835 180.903H196.97L197.562 183.356L182.423 120.686H179.802H172.697L215.831 299.9H222.935H225.557L204.582 212.619L204.92 214.141H229.785L236.382 241.374H211.517L212.194 244.25H237.059L243.656 271.483H218.791L219.467 274.359H244.332L250.422 299.816H257.526H260.148L217.015 120.686ZM204.159 211.181L197.562 183.948H222.427L229.024 211.181H204.159Z" fill="#E0E0E0"/>
<path d="M155.444 299.9H158.066L201.199 120.686H198.578L155.444 299.9Z" fill="#B1C6E1"/>
<path d="M165.17 299.9H158.066L201.199 120.686H208.303L165.17 299.9Z" fill="#E6E6E6"/>
<path d="M120.853 299.9H123.475L166.608 120.686H163.986L120.853 299.9Z" fill="#B1C6E1"/>
<path d="M130.579 299.9H123.475L166.608 120.686H173.713L130.579 299.9Z" fill="#E6E6E6"/>
<path d="M165.931 123.561H197.901L198.577 120.686H166.608L165.931 123.561Z" fill="#B1C6E1"/>
<path d="M158.658 153.755H190.628L191.304 150.879H159.335L158.658 153.755Z" fill="#B1C6E1"/>
<path d="M151.385 183.948H183.354L184.115 180.988H152.061L151.385 183.948Z" fill="#B1C6E1"/>
<path d="M144.111 214.141H176.081L176.842 211.181H144.873L144.111 214.141Z" fill="#B1C6E1"/>
<path d="M136.838 244.25H168.807L169.568 241.374H137.599L136.838 244.25Z" fill="#B1C6E1"/>
<path d="M129.564 274.443H161.618L162.294 271.568H130.325L129.564 274.443Z" fill="#B1C6E1"/>
<path d="M405.533 248.14V240.698C405.533 238.668 403.926 236.977 401.812 236.977C399.782 236.977 398.09 238.583 398.09 240.698V248.14C398.09 251.101 396.906 253.892 394.877 256.006L385.827 265.478C383.882 267.424 383.121 270.215 383.628 272.921L389.125 299.731H414.498L419.995 272.921C420.587 270.215 419.742 267.508 417.796 265.478L408.662 256.091C406.717 253.976 405.533 251.101 405.533 248.14Z" fill="#EBEBEB"/>
<path d="M401.811 236.977H399.612V239.852H401.811V236.977Z" fill="#EBEBEB"/>
<path d="M403.334 248.14V240.698C403.334 238.668 401.727 236.977 399.612 236.977C397.583 236.977 395.891 238.583 395.891 240.698V248.14C395.891 251.101 394.707 253.892 392.677 256.006L383.628 265.478C381.683 267.424 380.921 270.215 381.429 272.921L386.926 299.731H412.299L417.796 272.921C418.388 270.215 417.542 267.508 415.597 265.478L406.548 256.091C404.433 253.976 403.334 251.101 403.334 248.14Z" fill="#E0E0E0"/>
<path d="M399.612 239.852H348.867V242.897H399.612C400.458 242.897 401.135 242.22 401.135 241.374C401.135 240.529 400.458 239.852 399.612 239.852Z" fill="#EBEBEB"/>
<path d="M354.788 248.14V240.698C354.788 238.668 353.181 236.977 351.067 236.977C349.037 236.977 347.345 238.583 347.345 240.698V248.14C347.345 251.101 346.161 253.892 344.131 256.006L335.082 265.478C333.137 267.424 332.375 270.215 332.883 272.921L338.38 299.731H363.753L369.25 272.921C369.842 270.215 368.996 267.508 367.051 265.478L357.917 256.091C355.972 253.976 354.788 251.101 354.788 248.14Z" fill="#EBEBEB"/>
<path d="M351.066 236.977H348.867V239.852H351.066V236.977Z" fill="#EBEBEB"/>
<path d="M352.589 248.14V240.698C352.589 238.668 350.982 236.977 348.867 236.977C346.838 236.977 345.146 238.583 345.146 240.698V248.14C345.146 251.101 343.962 253.892 341.932 256.006L332.798 265.478C330.853 267.424 330.092 270.215 330.599 272.921L336.097 299.731H361.469L366.966 272.921C367.558 270.215 366.713 267.508 364.768 265.478L355.803 256.091C353.688 253.976 352.589 251.101 352.589 248.14Z" fill="#B1C6E1"/>
<path d="M350.39 241.374C350.39 242.22 349.713 242.897 348.868 242.897C348.022 242.897 347.345 242.22 347.345 241.374C347.345 240.529 348.022 239.852 348.868 239.852C349.713 239.852 350.39 240.529 350.39 241.374Z" fill="#EBEBEB"/>
<path d="M418.303 272.836H368.912L363.33 299.647H412.721L418.303 272.836Z" fill="#EBEBEB"/>
<path d="M163.817 36.7875H125.505V45.245H163.817V36.7875Z" fill="#FAFAFA"/>
<path d="M182.085 45.245H143.773V53.7025H182.085V45.245Z" fill="#B1C6E1"/>
<path d="M407.309 42.6232H368.996V51.0807H407.309V42.6232Z" fill="#FAFAFA"/>
<path d="M425.577 34.1656H387.264V42.6231H425.577V34.1656Z" fill="#B1C6E1"/>
<path d="M162.887 93.3682H124.574V101.826H162.887V93.3682Z" fill="#B1C6E1"/>
<path d="M456.954 222.599H418.642V231.056H456.954V222.599Z" fill="#B1C6E1"/>
<path d="M294.063 337.874C384.632 337.874 458.054 333.596 458.054 328.317C458.054 323.039 384.632 318.76 294.063 318.76C203.493 318.76 130.072 323.039 130.072 328.317C130.072 333.596 203.493 337.874 294.063 337.874Z" fill="#B1C6E1"/>
<path d="M290.003 113.497C288.904 114.512 287.973 115.442 286.958 116.372C285.943 117.303 284.844 118.149 283.829 118.994C281.715 120.686 279.516 122.377 277.232 123.984C274.949 125.591 272.496 127.114 269.874 128.467C268.521 129.143 267.168 129.82 265.645 130.412C264.123 131.004 262.432 131.596 260.233 131.934L259.81 132.019C259.556 132.103 259.218 132.103 258.964 132.019C256.596 131.85 254.904 131.258 253.551 130.581C252.113 129.905 250.929 129.228 249.83 128.551C247.631 127.114 245.77 125.507 243.994 123.9C242.218 122.293 240.611 120.601 239.004 118.825C237.482 117.049 236.044 115.358 234.606 113.328C233.422 111.636 233.761 109.184 235.537 108C236.805 107.069 238.497 107.069 239.765 107.915L239.85 108L245.347 111.467C247.208 112.567 248.984 113.751 250.76 114.766C252.536 115.78 254.312 116.711 256.004 117.472C256.85 117.81 257.611 118.149 258.287 118.233C258.964 118.402 259.471 118.402 259.302 118.318L257.949 118.402C258.372 118.233 259.133 117.895 259.979 117.472C260.825 117.049 261.755 116.457 262.685 115.865C263.616 115.273 264.546 114.596 265.561 113.92C266.491 113.243 267.506 112.482 268.436 111.805C270.382 110.283 272.242 108.761 274.188 107.154L277.063 104.701L279.854 102.333L280.023 102.248C283.237 99.5421 288.058 99.8804 290.764 103.094C293.132 106.139 292.879 110.706 290.003 113.497Z" fill="#CF7A64"/>
<path d="M238.243 113.835L229.786 114.681L231.646 104.617C231.646 104.617 239.427 104.786 240.019 108.93L238.243 113.835Z" fill="#263238"/>
<path d="M222.85 109.184L224.119 105.801C224.626 104.448 225.979 103.602 227.417 103.94L231.646 104.701L229.785 114.766L224.711 113.074C223.104 112.482 222.343 110.791 222.85 109.184Z" fill="#263238"/>
<path d="M232.407 112.567C234.606 114.343 238.327 119.586 239.089 121.193C244.671 119.164 247.462 113.835 246.7 111.89C242.895 108.93 239.596 106.985 237.143 106.477C233.253 107.408 232.407 112.567 232.407 112.567Z" fill="#263238"/>
<path d="M296.008 105.04C294.739 109.184 292.033 115.019 287.889 117.387C283.745 119.756 276.556 128.805 271.058 131.173C262.263 126.691 261.84 118.741 262.855 114.596C268.183 107.577 277.909 97.174 282.983 95.8208C287.381 94.7214 291.187 101.657 296.008 105.04Z" fill="#263238"/>
<path d="M295.077 72.1398C297.953 73.3239 299.644 72.901 299.644 72.901C299.644 72.901 297.953 70.7021 297.953 69.6026C298.376 70.2792 299.137 70.7866 300.067 70.8712C298.714 66.2196 301.59 64.3589 300.659 62.5829C298.883 59.1153 292.371 59.1153 292.963 62.8366C290.256 64.2744 289.749 67.6574 289.749 67.6574C289.749 67.6574 290.51 66.3887 291.525 65.9659C290.426 68.5877 290.933 72.3936 292.878 75.1845C295.923 74.9308 295.077 72.1398 295.077 72.1398Z" fill="#263238"/>
<path d="M328.907 187.585L331.445 186.908C333.221 186.485 334.32 184.625 333.897 182.764L329.922 167.202C329.499 165.426 327.639 164.327 325.778 164.749L323.241 165.426C321.465 165.849 320.365 167.71 320.788 169.57L324.763 185.132C325.271 186.908 327.131 188.008 328.907 187.585Z" fill="#263238"/>
<path d="M322.733 164.326C326.286 161.874 328.315 161.874 329.753 162.889C331.191 163.904 331.445 169.908 333.39 173.122C330.768 174.391 322.733 164.326 322.733 164.326Z" fill="#263238"/>
<path d="M318.251 94.383C309.624 93.2835 297.953 93.199 288.565 94.2139C280.192 95.0596 273.764 102.248 273.849 110.706C273.934 125.845 277.909 148.004 280.361 171.262C303.45 179.043 322.987 170.839 322.987 170.839C323.494 165.511 323.241 149.695 321.465 140.392C322.818 130.75 326.116 119.756 327.977 107.069C328.907 100.811 324.509 95.1442 318.251 94.383Z" fill="#263238"/>
<path d="M309.371 76.0303C309.117 84.4878 310.639 89.1394 312.415 93.7064C309.286 96.582 304.212 100.219 297.53 100.134C290.764 100.05 291.948 96.582 293.724 94.2139C298.545 91.7612 298.883 88.2091 297.699 86.0947L309.371 76.0303Z" fill="#CE7A63"/>
<path opacity="0.2" d="M309.371 76.0303L297.699 86.0947C298.376 87.2787 298.545 88.8857 297.784 90.408C299.983 90.5772 302.351 89.9006 304.381 88.2091C307.341 85.7564 308.44 82.8808 309.286 78.7367C309.286 77.8909 309.286 76.9606 309.371 76.0303Z" fill="black"/>
<path d="M313.092 70.9558C311.739 78.483 311.401 82.9655 307.087 86.433C300.66 91.5921 291.695 86.9405 290.68 79.1596C289.834 72.1399 292.117 60.976 299.898 58.8616C307.595 56.8318 314.445 63.4286 313.092 70.9558Z" fill="#CE7A63"/>
<path d="M312.923 73.5775C309.963 74.4233 308.271 73.8312 308.271 73.8312C308.271 73.8312 310.216 71.886 310.301 70.7865C309.793 71.3786 309.032 71.886 308.102 71.8014C309.878 67.319 307.256 65.2046 308.356 63.5131C310.47 60.2992 317.997 61.5679 316.982 65.12C319.52 66.8115 318.674 69.6871 318.674 69.6871C318.674 69.6871 318.082 68.5876 317.151 68.1647C317.997 70.9557 318.674 73.2392 314.699 76.7914C311.654 76.1993 312.923 73.5775 312.923 73.5775Z" fill="#263238"/>
<path d="M292.709 78.7367C292.709 78.7367 295.078 78.3138 301.674 78.5675C300.829 80.259 299.306 81.5276 295.923 81.4431C292.54 81.2739 292.709 78.7367 292.709 78.7367Z" fill="#012347"/>
<path d="M295.331 76.8759C295.247 79.4131 295.247 80.1743 299.137 80.2589C301.844 80.3435 304.635 82.2041 304.212 83.811C305.396 82.627 306.326 79.9206 304.127 78.0599C301.59 76.1147 298.799 75.861 295.331 76.8759Z" fill="#263238"/>
<path d="M296.092 76.876C296.008 79.4132 294.908 79.667 293.301 80.0053C291.694 80.3436 291.356 81.1048 291.525 82.2888C290.087 81.4431 289.157 79.0749 290.087 77.8909C291.61 76.0302 294.062 75.6919 296.092 76.876Z" fill="#263238"/>
<path d="M315.375 76.7913C314.529 78.5674 313.007 79.7515 311.654 80.2589C309.539 81.0201 308.525 78.9057 309.201 76.7068C309.793 74.677 311.569 71.8014 313.599 72.0551C315.629 72.3089 316.39 74.7615 315.375 76.7913Z" fill="#CE7A63"/>
<path d="M302.689 70.702C302.604 71.3786 302.182 71.8014 301.759 71.7169C301.336 71.6323 301.082 71.0403 301.167 70.4482C301.251 69.7716 301.674 69.3488 302.097 69.4333C302.52 69.5179 302.774 70.0254 302.689 70.702Z" fill="#263238"/>
<path d="M294.823 69.6026C294.739 70.2792 294.316 70.7021 293.893 70.6175C293.47 70.5329 293.216 69.9409 293.301 69.3489C293.385 68.6723 293.808 68.2494 294.231 68.334C294.654 68.334 294.908 68.926 294.823 69.6026Z" fill="#263238"/>
<path d="M297.023 70.7865C297.023 70.7865 294.993 74.2541 293.132 75.7764C294.147 77.0451 296.092 76.8759 296.092 76.8759L297.023 70.7865Z" fill="#BA4D3C"/>
<path d="M305.226 67.9956C305.311 67.9956 305.395 67.9956 305.395 67.9956C305.565 67.911 305.734 67.7418 305.649 67.4881C304.973 65.4583 303.196 65.0354 303.112 65.0354C302.943 64.9509 302.689 65.12 302.689 65.2892C302.604 65.4583 302.774 65.712 302.943 65.7966C303.027 65.7966 304.296 66.1349 304.888 67.7418C304.973 67.911 305.142 67.9956 305.226 67.9956Z" fill="#263238"/>
<path d="M291.863 66.135C291.948 66.135 292.117 66.135 292.202 66.0504C293.386 64.8664 294.739 65.1201 294.824 65.1201C294.993 65.1201 295.246 65.0355 295.246 64.7818C295.246 64.6127 295.162 64.3589 294.908 64.3589C294.824 64.3589 293.132 64.0206 291.61 65.543C291.441 65.7121 291.441 65.9659 291.61 66.0504C291.779 66.0504 291.863 66.135 291.863 66.135Z" fill="#263238"/>
<path d="M303.704 239.683C309.878 205.176 312.5 163.481 312.5 163.481L278.416 162.973C278.416 162.973 282.306 219.131 283.66 242.643C285.097 267.085 286.028 314.109 286.028 314.109H297.445C297.445 314.109 307.087 269.961 303.704 239.683Z" fill="#407BFF"/>
<path opacity="0.2" d="M296.938 172.953C296.938 172.953 301.42 206.445 305.057 231.056C308.356 210.42 310.385 188.684 311.485 175.66L296.938 172.953Z" fill="black"/>
<path d="M270.804 325.696C270.804 325.696 286.112 322.143 286.789 316.9L296.515 318.168L297.614 328.317H293.555L292.878 327.049L291.525 328.317C277.824 328.317 272.834 328.148 270.297 327.303C270.128 326.118 270.804 325.696 270.804 325.696Z" fill="#263238"/>
<path d="M297.868 320.029C294.232 320.283 286.873 319.691 285.52 319.014C284.083 318.338 284.928 312.671 284.928 312.671C284.928 312.671 297.699 311.402 298.799 312.079C299.898 312.756 297.868 320.029 297.868 320.029Z" fill="#407BFF"/>
<path opacity="0.3" d="M297.868 320.029C294.232 320.283 286.873 319.691 285.52 319.014C284.083 318.338 284.928 312.671 284.928 312.671C284.928 312.671 297.699 311.402 298.799 312.079C299.898 312.756 297.868 320.029 297.868 320.029Z" fill="#012347"/>
<path d="M334.32 238.753C328.653 203.992 329.33 180.819 323.664 163.65L291.018 163.227C291.018 163.227 306.579 218.37 313.684 241.29C320.788 264.294 333.728 314.109 333.728 314.109H344.131C344.131 314.109 343.708 265.647 334.32 238.753Z" fill="#407BFF"/>
<path d="M322.734 325.696C322.734 325.696 334.236 322.143 334.912 316.9L344.639 318.168L345.738 328.317H343.201L342.524 327.049L341.171 328.317C327.47 328.317 324.679 328.148 322.142 327.303C322.057 326.118 322.734 325.696 322.734 325.696Z" fill="#263238"/>
<path d="M345.737 319.775C343.454 320.198 334.996 319.691 333.474 319.014C331.952 318.338 332.459 312.333 332.459 312.333C332.459 312.333 344.046 310.98 345.23 311.656C346.414 312.333 345.737 319.775 345.737 319.775Z" fill="#407BFF"/>
<path opacity="0.3" d="M345.737 319.775C343.454 320.198 334.996 319.691 333.474 319.014C331.952 318.338 332.459 312.333 332.459 312.333C332.459 312.333 344.046 310.98 345.23 311.656C346.414 312.333 345.737 319.775 345.737 319.775Z" fill="#012347"/>
<path d="M278.332 162.973C277.993 159.167 274.78 132.019 274.61 129.566C274.78 116.034 281.546 98.8655 286.028 93.8756C287.719 93.1144 289.242 93.7064 289.242 93.7064C289.242 93.7064 283.068 101.572 281.376 114.596C292.709 117.303 304.888 115.95 308.102 115.273C309.202 106.139 314.868 95.1442 316.137 93.6218C318.505 93.7064 319.181 94.0447 319.181 94.0447C319.181 94.0447 313.007 106.308 312.331 115.78C311.654 125.253 323.918 129.82 323.918 129.82C323.918 129.82 322.564 138.024 322.903 141.66C323.156 145.297 323.579 163.65 323.579 163.65C323.579 163.65 294.232 168.471 278.332 162.973Z" fill="#407BFF"/>
<path d="M286.535 177.267L280.784 162.973L280.192 163.143L279.685 163.396L285.351 177.774L285.267 179.043L286.958 181.664L287.55 181.495L288.057 181.242L287.465 178.112L286.535 177.267Z" fill="#012347"/>
<path d="M280.7 164.242C279.685 164.665 278.501 164.157 278.078 163.143L272.834 149.864C272.411 148.849 272.919 147.665 273.934 147.242C274.949 146.82 276.133 147.327 276.555 148.342L281.799 161.62C282.222 162.635 281.715 163.819 280.7 164.242Z" fill="#263238"/>
<path d="M278.163 161.197C277.571 161.789 277.486 165.426 278.67 167.118C286.197 171.008 306.072 171.6 324.594 166.779C325.017 164.58 324.848 161.705 323.579 160.774C321.042 162.973 301.421 166.018 287.973 164.327C281.884 163.481 278.163 161.197 278.163 161.197Z" fill="#263238"/>
<path opacity="0.2" d="M281.038 119.586C281.038 119.586 288.058 122.462 307.764 121.109C308.102 124.915 307.679 135.656 307.087 139.292C306.495 142.929 291.018 146.312 291.018 146.312C291.018 146.312 281.123 142.506 280.361 138.024C279.6 133.541 281.038 119.586 281.038 119.586Z" fill="#012347"/>
<path d="M318.674 67.1498C311.57 64.4434 302.266 61.3987 293.978 61.5678C294.147 59.1997 295.585 56.4933 296.854 55.4784C298.545 54.1252 304.212 52.9412 308.525 53.8715C311.993 54.6327 316.221 57.2545 318.166 60.5529C319.012 61.9907 318.674 67.1498 318.674 67.1498Z" fill="#407BFF"/>
<path opacity="0.3" d="M309.117 56.4934C305.819 53.4487 298.545 54.1253 296.854 55.4785C295.5 56.5779 294.147 59.1998 293.978 61.5679C299.222 61.4833 304.888 62.5828 310.216 64.1897C310.216 61.3987 310.386 59.2843 309.117 56.4934Z" fill="#012347"/>
<path d="M311.57 64.6126C306.58 64.1897 301.167 63.936 298.799 62.9211C296.431 61.9062 290.595 61.4833 289.495 62.7519C288.988 61.8216 291.61 60.0455 297.107 60.3838C302.435 60.6375 311.57 64.6126 311.57 64.6126Z" fill="#407BFF"/>
<path d="M303.366 55.7321L301.167 55.563L300.237 57.4236L299.56 57.3391L298.714 59.7072L301.167 57.5082H301.674L303.366 55.7321Z" fill="#012347"/>
<path d="M309.286 53.9562C309.201 54.3791 308.609 54.6328 308.017 54.4636C307.425 54.2945 307.002 53.8716 307.087 53.4487C307.172 53.0259 307.764 52.7721 308.356 52.9413C309.032 53.1104 309.37 53.5333 309.286 53.9562Z" fill="#407BFF"/>
<path d="M328.738 100.303C329.837 101.318 330.768 102.249 331.783 103.263C332.713 104.194 333.643 105.209 334.574 106.224C336.434 108.253 338.21 110.368 339.902 112.567C341.593 114.766 343.285 117.049 344.807 119.671C345.568 120.94 346.33 122.293 347.006 123.815C347.683 125.338 348.359 126.944 348.782 129.143L348.867 129.566C348.951 129.82 348.951 130.158 348.951 130.412C348.951 132.78 348.359 134.472 347.852 135.909C347.26 137.347 346.668 138.616 345.991 139.715C344.638 141.999 343.2 143.944 341.678 145.805C340.156 147.665 338.549 149.357 336.942 151.048C335.25 152.655 333.643 154.262 331.698 155.7C330.007 157.053 327.638 156.715 326.285 155.108C325.27 153.839 325.186 152.148 325.947 150.879L326.032 150.795L329.161 145.128C330.176 143.267 331.191 141.407 332.121 139.546C333.051 137.685 333.897 135.825 334.489 134.133C334.827 133.288 335.081 132.442 335.166 131.85C335.25 131.173 335.25 130.666 335.166 130.835L335.335 132.104C335.166 131.681 334.827 130.919 334.32 130.074C333.812 129.228 333.22 128.382 332.544 127.452C331.867 126.522 331.191 125.676 330.429 124.745C329.668 123.815 328.907 122.885 328.146 121.955C326.539 120.094 324.932 118.318 323.156 116.457L320.619 113.751L318.081 111.129L317.997 110.96C315.121 107.915 315.206 103.094 318.251 100.219C321.211 97.5969 325.778 97.5969 328.738 100.303Z" fill="#CF7A64"/>
<path d="M331.022 148.596L322.48 148.68L325.525 158.491C325.525 158.491 333.221 157.476 333.306 153.247L331.022 148.596Z" fill="#263238"/>
<path d="M316.221 155.023L317.828 158.237C318.505 159.506 319.942 160.182 321.38 159.76L325.44 158.491L322.395 148.68L317.574 150.964C316.137 151.725 315.545 153.501 316.221 155.023Z" fill="#263238"/>
<path d="M325.693 149.864C327.639 147.835 329.584 143.944 330.091 142.253C335.927 143.521 339.395 148.427 338.887 150.456C335.504 153.924 332.459 156.292 330.176 157.053C326.793 155.362 325.693 149.864 325.693 149.864Z" fill="#263238"/>
<path d="M319.942 94.7213C324.171 95.7362 330.091 98.1043 332.713 102.164C335.335 106.224 342.355 113.835 345.061 119.248C341.001 128.298 335.504 128.128 331.275 127.367C323.917 122.462 314.53 116.288 314.36 111.044C314.36 106.477 316.813 99.7958 319.942 94.7213Z" fill="#263238"/>
<path d="M326.286 139.123C325.947 139.123 325.609 139.039 325.186 138.785C325.017 138.7 324.848 138.616 324.679 138.531C323.241 138.362 321.888 137.516 321.042 136.248C320.535 135.486 320.281 134.641 320.027 133.71C317.997 125.929 317.152 119.586 317.49 113.666C317.575 111.975 317.744 110.283 318.082 108.676C318.589 105.631 319.435 102.756 320.619 100.134C321.211 98.7809 321.972 97.4277 322.734 96.2437C322.818 96.1591 322.818 96.0745 322.903 95.9899C323.326 95.2288 323.749 94.6367 324.256 94.5522C324.51 94.5522 324.679 94.5522 324.763 94.6367C324.933 94.4676 325.186 94.2984 325.525 94.2139C325.778 94.2139 326.032 94.2139 326.201 94.4676C326.37 94.6367 326.455 94.8905 326.539 95.1442C326.878 96.582 326.201 97.9352 325.609 99.2884C325.525 99.5421 325.355 99.7958 325.271 100.05C323.664 103.771 323.749 107.915 323.918 112.059C323.918 113.074 324.002 114.004 324.002 115.019C324.002 115.865 324.002 116.626 324.002 117.472C324.002 118.994 324.002 120.517 324.087 122.039C324.171 123.731 324.425 125.507 324.679 127.198C324.933 128.89 325.186 130.666 325.778 132.357C325.947 132.949 326.201 133.541 326.455 134.049C326.962 135.233 327.385 136.332 327.639 137.601C327.639 137.855 327.808 138.7 327.216 139.123C326.878 139.039 326.624 139.123 326.286 139.123ZM325.017 137.685C325.271 137.685 325.525 137.685 325.778 137.685C324.594 136.248 323.41 134.81 322.564 133.203C320.281 129.059 319.943 124.153 319.773 119.925C319.773 119.925 319.773 119.925 319.773 119.84C319.604 122.039 319.604 124.238 319.858 126.437C320.112 129.143 320.535 131.258 321.296 133.034C322.142 135.064 323.41 136.671 325.017 137.685ZM320.535 114.174C320.535 116.203 320.535 118.064 320.619 119.84C320.788 123.984 321.127 128.805 323.326 132.78C324.256 134.472 325.44 135.909 326.709 137.432C326.709 137.432 326.709 137.432 326.709 137.347C326.539 136.163 326.117 135.064 325.609 133.964C325.355 133.372 325.102 132.78 324.933 132.188C324.341 130.497 324.087 128.636 323.833 126.944C323.579 125.253 323.326 123.477 323.241 121.701C323.156 120.178 323.156 118.571 323.156 117.134C323.156 116.288 323.156 115.527 323.156 114.681C323.156 113.751 323.156 112.736 323.072 111.805C322.987 108.93 322.903 105.97 323.41 103.094L322.734 105.462C321.888 108.338 321.127 111.213 320.535 114.174ZM321.634 135.486C321.719 135.571 321.719 135.656 321.803 135.74C321.972 135.994 322.226 136.248 322.48 136.501C322.142 136.248 321.888 135.909 321.634 135.486ZM323.41 96.6665C322.649 97.8506 321.972 99.1192 321.38 100.388C320.281 102.925 319.435 105.716 318.928 108.676C318.674 110.283 318.505 111.975 318.42 113.582C318.251 116.626 318.42 119.756 318.843 123.139C318.843 121.024 318.928 118.994 319.266 116.965C319.435 116.034 319.52 115.104 319.773 114.174C319.773 111.89 319.943 109.522 320.281 107.154C320.788 103.179 321.888 99.6267 323.41 96.6665ZM324.171 97.0048C322.649 99.965 321.634 103.348 321.042 107.154C320.958 107.83 320.873 108.507 320.788 109.184C321.127 107.83 321.55 106.477 321.888 105.124L324.171 97.0048ZM325.355 95.0596C325.44 95.5671 325.355 96.0745 325.271 96.2437L324.171 100.05C324.256 99.7958 324.341 99.6267 324.425 99.3729C324.51 99.1192 324.679 98.8655 324.763 98.6118C325.355 97.4277 325.863 96.2437 325.694 95.0596C325.694 94.8905 325.609 94.8905 325.609 94.8905C325.609 94.8905 325.44 94.975 325.355 95.0596Z" fill="#407BFF"/>
<path opacity="0.4" d="M326.286 139.123C325.947 139.123 325.609 139.039 325.186 138.785C325.017 138.7 324.848 138.616 324.679 138.531C323.241 138.362 321.888 137.516 321.042 136.248C320.535 135.486 320.281 134.641 320.027 133.71C317.997 125.929 317.152 119.586 317.49 113.666C317.575 111.975 317.744 110.283 318.082 108.676C318.589 105.631 319.435 102.756 320.619 100.134C321.211 98.7809 321.972 97.4277 322.734 96.2437C322.818 96.1591 322.818 96.0745 322.903 95.9899C323.326 95.2288 323.749 94.6367 324.256 94.5522C324.51 94.5522 324.679 94.5522 324.763 94.6367C324.933 94.4676 325.186 94.2984 325.525 94.2139C325.778 94.2139 326.032 94.2139 326.201 94.4676C326.37 94.6367 326.455 94.8905 326.539 95.1442C326.878 96.582 326.201 97.9352 325.609 99.2884C325.525 99.5421 325.355 99.7958 325.271 100.05C323.664 103.771 323.749 107.915 323.918 112.059C323.918 113.074 324.002 114.004 324.002 115.019C324.002 115.865 324.002 116.626 324.002 117.472C324.002 118.994 324.002 120.517 324.087 122.039C324.171 123.731 324.425 125.507 324.679 127.198C324.933 128.89 325.186 130.666 325.778 132.357C325.947 132.949 326.201 133.541 326.455 134.049C326.962 135.233 327.385 136.332 327.639 137.601C327.639 137.855 327.808 138.7 327.216 139.123C326.878 139.039 326.624 139.123 326.286 139.123ZM325.017 137.685C325.271 137.685 325.525 137.685 325.778 137.685C324.594 136.248 323.41 134.81 322.564 133.203C320.281 129.059 319.943 124.153 319.773 119.925C319.773 119.925 319.773 119.925 319.773 119.84C319.604 122.039 319.604 124.238 319.858 126.437C320.112 129.143 320.535 131.258 321.296 133.034C322.142 135.064 323.41 136.671 325.017 137.685ZM320.535 114.174C320.535 116.203 320.535 118.064 320.619 119.84C320.788 123.984 321.127 128.805 323.326 132.78C324.256 134.472 325.44 135.909 326.709 137.432C326.709 137.432 326.709 137.432 326.709 137.347C326.539 136.163 326.117 135.064 325.609 133.964C325.355 133.372 325.102 132.78 324.933 132.188C324.341 130.497 324.087 128.636 323.833 126.944C323.579 125.253 323.326 123.477 323.241 121.701C323.156 120.178 323.156 118.571 323.156 117.134C323.156 116.288 323.156 115.527 323.156 114.681C323.156 113.751 323.156 112.736 323.072 111.805C322.987 108.93 322.903 105.97 323.41 103.094L322.734 105.462C321.888 108.338 321.127 111.213 320.535 114.174ZM321.634 135.486C321.719 135.571 321.719 135.656 321.803 135.74C321.972 135.994 322.226 136.248 322.48 136.501C322.142 136.248 321.888 135.909 321.634 135.486ZM323.41 96.6665C322.649 97.8506 321.972 99.1192 321.38 100.388C320.281 102.925 319.435 105.716 318.928 108.676C318.674 110.283 318.505 111.975 318.42 113.582C318.251 116.626 318.42 119.756 318.843 123.139C318.843 121.024 318.928 118.994 319.266 116.965C319.435 116.034 319.52 115.104 319.773 114.174C319.773 111.89 319.943 109.522 320.281 107.154C320.788 103.179 321.888 99.6267 323.41 96.6665ZM324.171 97.0048C322.649 99.965 321.634 103.348 321.042 107.154C320.958 107.83 320.873 108.507 320.788 109.184C321.127 107.83 321.55 106.477 321.888 105.124L324.171 97.0048ZM325.355 95.0596C325.44 95.5671 325.355 96.0745 325.271 96.2437L324.171 100.05C324.256 99.7958 324.341 99.6267 324.425 99.3729C324.51 99.1192 324.679 98.8655 324.763 98.6118C325.355 97.4277 325.863 96.2437 325.694 95.0596C325.694 94.8905 325.609 94.8905 325.609 94.8905C325.609 94.8905 325.44 94.975 325.355 95.0596Z" fill="#012347"/>
<path opacity="0.4" d="M246.616 57.3391C244.248 45.9215 232.746 38.6481 221.244 41.7773C211.095 44.4837 204.667 54.8019 206.528 65.0355C207.712 71.5477 211.856 76.7914 217.353 79.5824C218.453 80.1744 219.383 80.851 220.144 81.8659C222.005 84.234 224.965 85.3335 227.925 84.7414L234.522 83.3882C237.482 82.7962 239.766 80.5127 240.527 77.6371C240.865 76.4531 241.372 75.4382 242.134 74.5079C246.193 69.9408 247.969 63.6823 246.616 57.3391Z" fill="#407BFF"/>
<path d="M237.736 87.5325L226.91 89.7314C226.064 89.9005 225.303 89.3931 225.134 88.5474C224.965 87.7016 225.472 86.9404 226.318 86.7713L237.144 84.5723C237.989 84.4032 238.751 84.9106 238.92 85.7564C239.089 86.6021 238.497 87.3633 237.736 87.5325Z" fill="#263238"/>
<path d="M237.567 92.0995L228.855 93.8755C228.01 94.0447 227.248 93.5372 227.079 92.6915C226.91 91.8457 227.418 91.0846 228.263 90.9154L236.975 89.1393C237.82 88.9702 238.581 89.4776 238.751 90.3234C238.92 91.0846 238.328 91.9303 237.567 92.0995Z" fill="#263238"/>
<path d="M234.776 83.8957C234.607 83.9803 234.353 83.8112 234.268 83.642C234.099 83.05 231.054 73.6622 230.462 65.7121C228.771 66.2196 226.656 66.6424 224.965 66.8116C227.587 74.4233 228.517 84.1495 228.517 84.8261C228.517 85.0798 228.348 85.2489 228.094 85.2489C227.841 85.2489 227.671 85.0798 227.671 84.8261C227.671 84.6569 226.656 74.4233 224.119 66.8116C217.438 67.4036 215.07 64.8664 214.309 63.5977C213.378 62.0754 213.463 60.2147 214.562 59.0307C215.577 57.7621 217.269 57.5083 219.129 58.1849C221.497 59.1153 223.358 62.2445 224.711 65.9658C225.557 65.8813 226.572 65.7121 227.587 65.543C228.602 65.2892 229.617 65.1201 230.462 64.7818C230.209 60.7222 230.716 57.17 232.492 55.394C233.845 54.0408 235.537 53.7025 236.975 54.3791C238.412 55.1402 239.258 56.7472 239.004 58.5232C238.835 59.961 237.651 63.2594 231.308 65.3738C231.9 73.4084 235.114 83.1346 235.114 83.3037C235.114 83.5574 235.029 83.8112 234.776 83.8957C234.776 83.8112 234.776 83.8112 234.776 83.8957ZM234.86 54.9711C234.184 55.1402 233.592 55.4785 233 55.986C231.393 57.5083 230.97 60.8068 231.224 64.5281C237.144 62.4983 237.99 59.4536 238.159 58.4387C238.328 57.0855 237.736 55.7323 236.552 55.1402C235.96 54.8865 235.452 54.8019 234.86 54.9711ZM216.592 58.6924C216 58.777 215.493 59.1153 215.154 59.5381C214.309 60.4685 214.309 61.9908 214.985 63.1749C215.493 64.0206 217.522 66.4733 223.781 66.0504C222.512 62.5828 220.821 59.7919 218.791 58.9461C217.945 58.6078 217.269 58.5232 216.592 58.6924Z" fill="#012347"/>
<path d="M228.047 30.3921L227.682 36.5549L228.526 36.605L228.892 30.4421L228.047 30.3921Z" fill="#407BFF"/>
<path d="M236.002 31.8532L234.054 37.7117L234.856 37.9786L236.805 32.1201L236.002 31.8532Z" fill="#407BFF"/>
<path d="M243.356 35.2772L239.964 40.4355L240.671 40.9002L244.063 35.7418L243.356 35.2772Z" fill="#407BFF"/>
<path d="M212.623 81.9371L209.23 87.0955L209.937 87.5602L213.33 82.4018L212.623 81.9371Z" fill="#407BFF"/>
<path d="M249.517 40.4695L244.905 44.5734L245.467 45.2052L250.08 41.1014L249.517 40.4695Z" fill="#407BFF"/>
<path d="M207.767 77.6631L203.155 81.767L203.717 82.3988L208.33 78.295L207.767 77.6631Z" fill="#407BFF"/>
<path d="M254.227 47.1261L248.711 49.9L249.091 50.6556L254.607 47.8816L254.227 47.1261Z" fill="#407BFF"/>
<path d="M204.22 72.1645L198.704 74.9385L199.084 75.6941L204.6 72.9201L204.22 72.1645Z" fill="#407BFF"/>
<path d="M256.948 54.7094L250.901 55.9559L251.072 56.7843L257.118 55.5377L256.948 54.7094Z" fill="#407BFF"/>
<path d="M202.234 66.0297L196.187 67.2762L196.358 68.1046L202.405 66.858L202.234 66.0297Z" fill="#407BFF"/>
<path d="M251.528 62.4504L251.479 63.2947L257.642 63.6562L257.692 62.8119L251.528 62.4504Z" fill="#407BFF"/>
<path d="M195.666 59.1768L195.616 60.0211L201.78 60.3826L201.829 59.5383L195.666 59.1768Z" fill="#407BFF"/>
<path d="M250.44 68.8414L250.174 69.644L256.033 71.5907L256.3 70.7881L250.44 68.8414Z" fill="#407BFF"/>
<path d="M197.279 51.2438L197.013 52.0464L202.872 53.993L203.138 53.1904L197.279 51.2438Z" fill="#407BFF"/>
<path d="M247.633 74.7304L247.168 75.4365L252.323 78.8347L252.788 78.1286L247.633 74.7304Z" fill="#407BFF"/>
<path d="M200.97 43.9901L200.505 44.6962L205.66 48.0943L206.125 47.3882L200.97 43.9901Z" fill="#407BFF"/>
<path d="M206.295 37.9138L205.664 38.4762L209.769 43.0875L210.401 42.5251L206.295 37.9138Z" fill="#407BFF"/>
<path d="M213.117 33.4494L212.361 33.8291L215.133 39.3455L215.889 38.9658L213.117 33.4494Z" fill="#407BFF"/>
<path d="M220.786 30.9383L219.958 31.1091L221.205 37.1559L222.033 36.9851L220.786 30.9383Z" fill="#407BFF"/>
</g>
</g>
<defs>
<clipPath id="clip0_274_388">
<rect width="422.875" height="315.126" fill="white" transform="translate(82.625 22.748)"/>
</clipPath>
</defs>
</svg>
